<svg width="25" height="24" viewBox="0 0 25 24" fill="none" xmlns="http://www.w3.org/2000/svg">
<g clip-path="url(#clip0_954_652)">
<path d="M18.7924 9.04067L20.7764 5.60404C20.8884 5.41139 20.8207 5.16657 20.6307 5.05481C20.4406 4.9428 20.1932 5.0079 20.0838 5.20055L18.074 8.68145C16.5404 7.9812 14.8145 7.59063 12.9581 7.59063C11.1017 7.59063 9.3757 7.9812 7.84214 8.68145L5.8321 5.20055C5.7201 5.0079 5.47551 4.9428 5.28286 5.05481C5.09021 5.16681 5.02511 5.41139 5.13712 5.60404L7.12107 9.04067C3.69976 10.8944 1.38267 14.3572 1 18.4107H24.9159C24.5332 14.3572 22.2162 10.8944 18.7924 9.04067ZM7.46713 15.0521C6.91263 15.0521 6.46486 14.6017 6.46486 14.0499C6.46486 13.498 6.91526 13.0476 7.46713 13.0476C8.019 13.0476 8.4694 13.498 8.4694 14.0499C8.47203 14.6017 8.02163 15.0521 7.46713 15.0521ZM18.4461 15.0521C17.8916 15.0521 17.4439 14.6017 17.4439 14.0499C17.4439 13.498 17.8943 13.0476 18.4461 13.0476C18.998 13.0476 19.4484 13.498 19.4484 14.0499C19.4511 14.6017 19.0007 15.0521 18.4461 15.0521Z" fill="#32DE84"/>
</g>
<defs>
<clipPath id="clip0_954_652">
<rect width="24" height="24" fill="white" transform="translate(0.96582)"/>
</clipPath>
</defs>
</svg>
