<svg xmlns="http://www.w3.org/2000/svg" xmlns:xlink="http://www.w3.org/1999/xlink" width="50" height="50" viewBox="0 0 50 50"><defs><style>.a{fill:#fff;}.b{fill:#005d6d;}.c{clip-path:url(#a);}.d{fill:#32de84;}</style><clipPath id="a"><rect class="a" width="32" height="32" transform="translate(0.966)"/></clipPath></defs><g transform="translate(774 -319)"><circle class="b" cx="25" cy="25" r="25" transform="translate(-774 319)"/><g class="c" transform="translate(-765.966 328)"><path class="d" d="M24.723,10.388l2.645-4.582a.537.537,0,0,0-.194-.732.531.531,0,0,0-.729.194l-2.68,4.641a16.723,16.723,0,0,0-13.642,0L7.443,5.267a.536.536,0,0,0-.927.538l2.645,4.582A15.793,15.793,0,0,0,1,22.881H32.888A15.789,15.789,0,0,0,24.723,10.388ZM9.623,18.4a1.336,1.336,0,1,1,1.336-1.336A1.337,1.337,0,0,1,9.623,18.4Zm14.639,0A1.336,1.336,0,1,1,25.6,17.067,1.337,1.337,0,0,1,24.261,18.4Z" transform="translate(0.011 1.667)"/></g></g></svg>