<svg width="23" height="24" viewBox="0 0 23 24" fill="none" xmlns="http://www.w3.org/2000/svg">
<g clip-path="url(#clip0_1078_576)">
<path d="M11.3181 0V24L20.8311 18.7409L22.6361 3.93755L11.3181 0Z" fill="#A5120D"/>
<path d="M11.318 0V24L1.80504 18.7409L0 3.93755L11.318 0Z" fill="#DC1B16"/>
<path d="M11.3207 1.22461L3.5332 18.5161H6.39388L8.03652 14.6151H14.6039L16.2465 18.5161H19.1072L11.3207 1.22461ZM9.02422 12.2698L11.3207 6.81647L13.6172 12.2698C9.98539 12.2783 10.997 12.2783 9.02476 12.2698H9.02422Z" fill="white"/>
<path d="M11.3206 1.22461V6.81647L13.6171 12.2698C12.4659 12.2725 11.7818 12.2741 11.3206 12.2751V14.6151H14.6042L16.2469 18.5161H19.1076L11.3206 1.22461Z" fill="#B3B2B2"/>
</g>
<defs>
<clipPath id="clip0_1078_576">
<rect width="22.636" height="24" fill="white"/>
</clipPath>
</defs>
</svg>
