<svg xmlns="http://www.w3.org/2000/svg" xmlns:xlink="http://www.w3.org/1999/xlink" width="50" height="50" viewBox="0 0 50 50"><defs><style>.a{fill:#fff;}.b{fill:#005d6d;}.c{clip-path:url(#a);}.d{fill:#a5120d;}.e{fill:#dc1b16;}.f{fill:#b3b2b2;}</style><clipPath id="a"><rect class="a" width="30.181" height="32"/></clipPath></defs><g transform="translate(774 -319)"><circle class="b" cx="25" cy="25" r="25" transform="translate(-774 319)"/><g class="c" transform="translate(-764.091 328)"><path class="d" d="M11.318,0V32L24,24.988,26.409,5.25Z" transform="translate(3.773)"/><path class="e" d="M15.091,0V32L2.407,24.988,0,5.25Z"/><path class="a" d="M13.917,1.225,3.533,24.28H7.347l2.19-5.2h8.757l2.19,5.2H24.3ZM10.855,15.952,13.917,8.68l3.062,7.271c-4.842.011-3.494.011-6.123,0Z" transform="translate(1.178 0.408)"/><path class="f" d="M11.321,1.225V8.68l3.062,7.271-3.062.007v3.12H15.7l2.19,5.2H21.7Z" transform="translate(3.774 0.408)"/></g></g></svg>