<svg width="24" height="24" viewBox="0 0 24 24" fill="none" xmlns="http://www.w3.org/2000/svg">
<path d="M13.9299 18.2055C13.7267 18.2055 13.5893 18.2252 13.5171 18.2447V19.5485C13.6026 19.5678 13.7074 19.5745 13.8512 19.5745C14.382 19.5745 14.7092 19.3056 14.7092 18.8539C14.709 18.4476 14.4276 18.2055 13.9299 18.2055Z" fill="#1071B8"/>
<path d="M6.34148 18.2316H6.32896C6.2633 18.4939 6.19738 18.8277 6.12594 19.0832L5.86353 20.0196H6.83952L6.56419 19.0832C6.48566 18.8213 6.40709 18.494 6.34148 18.2316Z" fill="#1071B8"/>
<path d="M20.7014 5.75126C20.7 5.64122 20.6651 5.5324 20.5895 5.44661L15.9617 0.160951C15.9608 0.159463 15.9594 0.159025 15.9578 0.157668C15.9305 0.126853 15.8985 0.101333 15.8647 0.0790531C15.8547 0.0723996 15.8445 0.0665341 15.8339 0.0607124C15.8041 0.0447355 15.7732 0.0315162 15.7408 0.0218425C15.7321 0.0193037 15.7246 0.0157581 15.7158 0.0133506C15.6807 0.00516515 15.6444 0 15.6079 0H4.23539C3.71655 0 3.29419 0.422361 3.29419 0.941195V23.0589C3.29419 23.5779 3.71655 24 4.23539 24H19.7648C20.284 24 20.706 23.5779 20.706 23.0589V5.80401C20.706 5.78632 20.7033 5.76899 20.7014 5.75126ZM7.32406 21.9004L6.98364 20.7673H5.71984L5.40494 21.9004H4.37016L5.71984 17.4849H7.02947L8.39836 21.9004H7.32406ZM10.0706 21.9656C9.56569 21.9656 9.06786 21.8343 8.81932 21.6967L9.02234 20.8718C9.29084 21.0092 9.70305 21.1462 10.1294 21.1462C10.5876 21.1462 10.8304 20.9569 10.8304 20.6687C10.8304 20.3934 10.6207 20.2365 10.0901 20.046C9.35633 19.7909 8.87886 19.3846 8.87886 18.7427C8.87886 17.9896 9.50752 17.4134 10.549 17.4134C11.047 17.4134 11.4139 17.518 11.6758 17.6351L11.4525 18.4415C11.276 18.3565 10.9612 18.2316 10.5292 18.2316C10.0967 18.2316 9.88707 18.4283 9.88707 18.6577C9.88707 18.9389 10.1363 19.0639 10.7059 19.2799C11.4854 19.568 11.8521 19.9742 11.8521 20.5967C11.8521 21.3371 11.2821 21.9656 10.0706 21.9656ZM15.2924 19.8757C14.9518 20.197 14.4472 20.341 13.8576 20.341C13.7264 20.341 13.6088 20.3346 13.5171 20.3218V21.9006H12.5276V17.5442C12.8361 17.4913 13.2685 17.4523 13.8774 17.4523C14.4929 17.4523 14.9323 17.5703 15.2264 17.8061C15.5086 18.0285 15.6983 18.3959 15.6983 18.8282C15.6984 19.2606 15.5548 19.6269 15.2924 19.8757ZM18.4771 21.9004L18.0778 21.1006C17.9137 20.7935 17.8094 20.5635 17.6848 20.3079H17.6719C17.5798 20.5635 17.4688 20.7935 17.3309 21.1006L16.9642 21.9004H15.8243L17.1021 19.6664L15.87 17.4849H17.0171L17.4031 18.291C17.534 18.56 17.6324 18.7758 17.7372 19.0244H17.7505C17.8553 18.7427 17.9405 18.5464 18.0515 18.291L18.4247 17.4849H19.5644L18.3199 19.64L19.6302 21.9004H18.4771ZM4.23539 15.9805V0.941195H15.1375V5.75665C15.1375 6.01644 15.348 6.22725 15.6081 6.22725H19.7648L19.7652 15.9804H4.23539V15.9805Z" fill="#1071B8"/>
<path d="M5.70752 9.72996L9.99691 7.51647V8.56876L6.75289 10.1471V10.1669L9.99691 11.745V12.7974L5.70752 10.5838V9.72996Z" fill="#1071B8"/>
<path d="M10.6604 13.1939L12.5737 5.99783H13.4758L11.5634 13.1939H10.6604Z" fill="#1071B8"/>
<path d="M18.2846 10.613L13.9951 12.7971V11.7448L17.3108 10.1666V10.1468L13.9951 8.56846V7.51617L18.2846 9.69989V10.613Z" fill="#1071B8"/>
</svg>
