<svg width="52" height="49" viewBox="0 0 52 49" fill="none" xmlns="http://www.w3.org/2000/svg">
<path d="M15.7464 9.82801C15.7464 8.60588 15.7464 7.4307 15.7464 6.25557C15.7381 5.05171 16.1467 3.88207 16.9031 2.94484C17.6594 2.00761 18.717 1.36049 19.8964 1.11323C20.2967 1.03822 20.7031 1.00046 21.1103 1.00042C24.4699 1.00042 27.8389 1.00042 31.2078 1.00042C32.4644 0.984546 33.6855 1.41699 34.6515 2.22002C35.6175 3.02305 36.265 4.14396 36.4777 5.38128C36.5312 5.70754 36.5564 6.03785 36.553 6.36844C36.553 7.40255 36.553 8.43664 36.553 9.46136V9.83742H43.6014C45.3672 9.79453 47.0872 10.4008 48.4351 11.5411C49.783 12.6814 50.6649 14.2763 50.9134 16.0233C50.9797 16.465 51.008 16.9117 50.9981 17.3583C50.9981 25.1235 50.9981 32.8887 50.9981 40.654C51.0342 42.3168 50.4909 43.9406 49.4609 45.2473C48.4309 46.5541 46.9783 47.4627 45.3518 47.8176C44.7514 47.9426 44.1394 48.0025 43.5261 47.9962H8.50972C7.28729 48.0412 6.07355 47.7738 4.98342 47.2195C3.89329 46.6651 2.96282 45.842 2.27997 44.8281C1.4403 43.6583 0.992301 42.2532 1.0001 40.8138C1.0001 32.8919 1.0001 24.9605 1.0001 17.0198C0.996379 16.0722 1.18016 15.1332 1.54087 14.2568C1.90158 13.3804 2.43209 12.5838 3.10195 11.9128C3.77181 11.2419 4.56782 10.7099 5.44418 10.3472C6.32054 9.98461 7.26001 9.79853 8.20857 9.79978C10.5894 9.79978 12.9138 9.79978 15.3417 9.79978L15.7464 9.82801ZM3.83267 27.3891C3.83267 27.4926 3.83267 27.5771 3.83267 27.6618C3.83267 32.0144 3.83267 36.3766 3.83267 40.7386C3.86809 41.9068 4.34846 43.0173 5.17566 43.8437C6.00287 44.6701 7.11457 45.1499 8.28387 45.1853H43.6297C44.2382 45.1904 44.8415 45.0737 45.404 44.842C45.9666 44.6103 46.477 44.2683 46.9051 43.8363C47.3332 43.4043 47.6703 42.8909 47.8965 42.3266C48.1227 41.7623 48.2333 41.1584 48.222 40.5506V27.3891H36.2518C36.2518 27.9438 36.2518 28.4609 36.2518 28.9779C36.2633 29.265 36.1763 29.5472 36.0052 29.7781C35.834 30.0089 35.589 30.1744 35.3108 30.247C35.096 30.3303 34.8638 30.3586 34.6353 30.3295C34.4068 30.3003 34.1892 30.2146 34.0022 30.0801C33.8152 29.9456 33.6649 29.7667 33.5647 29.5594C33.4646 29.3521 33.4178 29.1232 33.4287 28.8933C33.4287 28.395 33.4287 27.8968 33.4287 27.3891H18.5601C18.5601 27.925 18.5601 28.4421 18.5601 28.9685C18.5601 29.3425 18.4114 29.7012 18.1467 29.9656C17.882 30.2301 17.5229 30.3787 17.1485 30.3787C16.7742 30.3787 16.4151 30.2301 16.1504 29.9656C15.8857 29.7012 15.737 29.3425 15.737 28.9685C15.737 28.7053 15.737 28.4514 15.737 28.1882V27.3797L3.83267 27.3891ZM18.5601 24.5688H33.4287V23.7979C33.4287 23.5347 33.4287 23.2715 33.4287 23.0176C33.4189 22.717 33.5139 22.4223 33.6976 22.1839C33.8812 21.9455 34.1422 21.7783 34.4356 21.7109C34.6478 21.6402 34.8741 21.6223 35.0948 21.6588C35.3155 21.6953 35.5239 21.7851 35.7019 21.9204C35.88 22.0556 36.0223 22.2323 36.1165 22.435C36.2107 22.6377 36.2539 22.8603 36.2424 23.0835C36.2424 23.5723 36.2424 24.0236 36.2424 24.5782H48.1655C48.1655 24.503 48.1655 24.4654 48.1655 24.4278C48.1655 21.9647 48.1655 19.5111 48.1655 17.0574C48.1574 16.2698 47.9186 15.5017 47.4786 14.8481C47.0699 14.1751 46.4915 13.6212 45.8011 13.2417C45.1108 12.8622 44.3328 12.6706 43.545 12.6859H8.38737C7.19567 12.6949 6.05351 13.1635 5.1995 13.9939C4.34549 14.8242 3.8457 15.9522 3.80447 17.142V24.2868C3.80447 24.3902 3.80447 24.4842 3.80447 24.5876H15.7276C15.7276 24.0517 15.7276 23.5347 15.7276 23.0176C15.721 22.8393 15.7512 22.6616 15.8165 22.4955C15.8818 22.3294 15.9807 22.1786 16.107 22.0524C16.2333 21.9262 16.3843 21.8275 16.5506 21.7622C16.7168 21.697 16.8948 21.6667 17.0732 21.6733C17.2644 21.6555 17.4572 21.679 17.6384 21.7423C17.8197 21.8056 17.9852 21.9071 18.1236 22.0401C18.262 22.173 18.3701 22.3342 18.4406 22.5126C18.5111 22.691 18.5422 22.8825 18.5319 23.074C18.5695 23.5159 18.5601 24.0141 18.5601 24.5312V24.5688ZM18.5601 9.84678H33.7298V6.52824C33.7689 6.1652 33.7257 5.79804 33.6035 5.45392C33.4813 5.10981 33.2832 4.79755 33.0239 4.54027C32.7645 4.28299 32.4506 4.08723 32.1053 3.96757C31.76 3.8479 31.3922 3.80734 31.029 3.84891H27.2178C25.1192 3.84891 23.0113 3.84891 20.9127 3.84891C20.3239 3.83526 19.7524 4.04821 19.3163 4.44364C18.8802 4.83908 18.6128 5.38677 18.5695 5.97355C18.5131 7.22389 18.5789 8.50245 18.5789 9.80919L18.5601 9.84678Z" fill="#33bbcf" stroke="#33bbcf" stroke-width="0.4"/>
</svg>
