<svg xmlns="http://www.w3.org/2000/svg" width="58" height="58" viewBox="0 0 58 58"><defs><style>.a{fill:#005d6d;}.b{fill:#fff;}.c{fill:#fcc131;}</style></defs><g transform="translate(765 -317)"><circle class="a" cx="29" cy="29" r="29" transform="translate(-765 317)"/><g transform="translate(-758.312 326)"><path class="b" d="M12.882,4H31.163a1,1,0,0,1,.8.4l4.57,6.094a1,1,0,0,1,.2.6V32.422a4.051,4.051,0,0,1-4.047,4.047H11.359a4.051,4.051,0,0,1-4.047-4.047V11.094a1,1,0,0,1,.2-.6L12.082,4.4A1,1,0,0,1,12.882,4ZM30.663,6H13.382l-4.07,5.427V32.422a2.049,2.049,0,0,0,2.047,2.047H32.687a2.049,2.049,0,0,0,2.047-2.047V11.427Z"/><path class="b" d="M8.812,15H36.234V36.937a1.828,1.828,0,0,1-1.828,1.828H10.64a1.828,1.828,0,0,1-1.828-1.828Z" transform="translate(-0.195 -3.906)"/><g transform="translate(8.312 11.094)"><path class="b" d="M35.734,16H8.312a1,1,0,1,1,0-2H35.734a1,1,0,0,1,0,2Z" transform="translate(-8.312 -15)"/><path class="c" d="M26.906,32.094A7.1,7.1,0,0,1,19.812,25a1,1,0,0,1,2,0A5.094,5.094,0,0,0,32,25a1,1,0,0,1,2,0A7.1,7.1,0,0,1,26.906,32.094Z" transform="translate(-13.195 -18.906)"/></g></g></g></svg>