<svg xmlns="http://www.w3.org/2000/svg" width="18" height="18" viewBox="0 0 18 18"><defs><style>.a{fill:#005d6d;}.b{fill:#fff;fill-rule:evenodd;}</style></defs><g transform="translate(758 -204)"><g transform="translate(139 50)"><circle class="a" cx="9" cy="9" r="9" transform="translate(-897 154)"/></g><g transform="translate(-754 209)"><path class="b" d="M500.692,441.169V440H492v6.428a1.169,1.169,0,0,0,1.242,1.169H501a1.018,1.018,0,0,0,.931-1.169v-5.259Zm-7.523,5.843a.544.544,0,0,1-.584-.584v-5.843h7.6v5.843a.824.824,0,0,0,.1.584Z" transform="translate(-492 -440)"/><path class="b" d="M494.125,443h6.209v.584h-6.209Zm3.415,3.506h2.173v.584H497.54Zm0-1.169h2.794v.584H497.54Zm0-1.169h2.794v.584H497.54Zm-3.415,0h2.794v2.922h-2.794Z" transform="translate(-492.883 -441.247)"/></g></g></svg>