<svg width="21" height="24" viewBox="0 0 21 24" fill="none" xmlns="http://www.w3.org/2000/svg">
<g clip-path="url(#clip0_1078_796)">
<path d="M1.0344 22.6792C0.623606 22.6792 0.504174 22.44 0.504174 22.0817C0.504174 21.9622 0.519172 21.8275 0.537643 21.6855C0.627632 21.0658 0.847315 20.7112 1.37754 20.7112C1.73615 20.7112 1.911 20.8716 1.911 21.1629V21.3049H2.26677C2.27072 21.3049 2.27072 21.1742 2.27072 21.1444C2.27072 20.7188 2.01299 20.3151 1.37809 20.3151C0.515383 20.3151 0.160638 20.7838 0.0299173 21.7025C0.0112091 21.8258 0 21.9409 0 22.0637C0 22.6053 0.213052 23.0978 0.974799 23.0978C1.55357 23.0978 1.89734 22.8156 2.09887 22.4683L1.75896 22.2394C1.53873 22.5868 1.29955 22.6792 1.0344 22.6792ZM3.36858 20.9688C2.67756 20.9688 2.37902 21.3234 2.27822 22.0291C2.26638 22.1108 2.26005 22.1932 2.25927 22.2757C2.25927 22.7312 2.47216 23.0936 3.06206 23.0936C3.75308 23.0936 4.05565 22.7238 4.15645 22.0291C4.16766 21.9396 4.17516 21.8574 4.17516 21.7753C4.17532 21.3123 3.95508 20.9688 3.36858 20.9688ZM3.65615 22.0293C3.58139 22.5411 3.42099 22.6979 3.11827 22.6979C2.87569 22.6979 2.75626 22.597 2.75626 22.2946C2.75626 22.2198 2.76384 22.1303 2.77868 22.0293C2.85343 21.5215 3.00278 21.3647 3.30898 21.3647C3.5555 21.3647 3.67857 21.4655 3.67857 21.7717C3.67857 21.8463 3.67099 21.9323 3.65615 22.0293ZM5.91218 20.3522L5.79654 21.0378C5.78912 21.0974 5.79291 21.0776 5.81548 21.1336C5.70718 21.0515 5.51284 20.9972 5.38212 20.9972C4.76214 20.9972 4.41497 21.2778 4.30304 22.0621C4.28997 22.1449 4.28371 22.2286 4.28433 22.3124C4.28433 22.884 4.62037 23.097 5.07213 23.097C5.26284 23.097 5.44945 23.101 5.59493 22.9779L5.63211 23.2102H5.99072L6.40894 20.3522H5.91218ZM5.55744 22.5895C5.38954 22.69 5.22535 22.7128 5.12454 22.7128C4.85189 22.7128 4.77722 22.5708 4.77722 22.3431C4.77722 22.2571 4.78843 22.1566 4.8035 22.048C4.88923 21.4543 5.07979 21.3495 5.32631 21.3495C5.48671 21.3495 5.60985 21.3758 5.72589 21.4394L5.55744 22.5895ZM7.49954 20.9688C6.81594 20.9688 6.49506 21.2935 6.3866 22.0291C6.37523 22.1188 6.36773 22.2048 6.36773 22.2869C6.36773 22.7911 6.62554 23.0936 7.19294 23.0936C7.63365 23.0936 7.96258 22.9105 8.13798 22.5744L7.76074 22.4212C7.6526 22.5854 7.50696 22.6975 7.24923 22.6975C6.97294 22.6975 6.86085 22.6232 6.86085 22.3766C6.86085 22.328 6.86464 22.2574 6.87214 22.2574H8.22008C8.23902 22.0668 8.26113 21.9322 8.26113 21.8205C8.26113 21.4472 8.11935 20.9687 7.49954 20.9687V20.9688ZM7.75711 21.8765H6.93553C7.01786 21.6859 7.15576 21.391 7.4397 21.391C7.65994 21.391 7.7684 21.5198 7.7684 21.7401C7.76816 21.7774 7.76477 21.8765 7.75711 21.8765ZM9.69826 20.9238L9.74302 20.5428H8.68976L8.64516 20.9238H8.92144L8.6229 22.8291H8.34622L8.3017 23.2102H9.35473L9.39972 22.8291H9.1232L9.42182 20.9238H9.69826ZM11.8383 21.4954L11.9728 21.1144H11.6106L11.3494 21.1683C11.2037 21.0751 11.0057 21.0052 10.8192 21.0052C10.2849 21.0052 9.82953 21.2632 9.82953 21.8496C9.82953 22.0141 9.88921 22.1469 9.96002 22.2366C9.84824 22.2962 9.75107 22.3961 9.75107 22.5307C9.75107 22.5904 9.77333 22.6515 9.81833 22.7074C9.59406 22.8421 9.45632 23.0652 9.45632 23.3264C9.45632 23.8308 9.98275 23.9384 10.386 23.9384C10.8938 23.9384 11.499 23.8224 11.499 23.1763C11.499 22.956 11.3608 22.784 10.9613 22.7093L10.2406 22.5746C10.1585 22.5595 10.1398 22.5334 10.1398 22.4961C10.1398 22.44 10.1737 22.4104 10.2294 22.4104L10.2781 22.4178C10.3752 22.4401 10.4872 22.4515 10.6029 22.4515C11.1221 22.4515 11.5851 22.2273 11.5851 21.6447C11.5851 21.5625 11.5703 21.5068 11.5329 21.4171C11.5963 21.4471 11.6786 21.4956 11.712 21.4956H11.8383V21.4954ZM10.8115 23.0412C10.9533 23.0675 11.0018 23.1197 11.0018 23.2131C11.0018 23.5156 10.6768 23.553 10.4417 23.553C10.0832 23.553 9.94881 23.4672 9.94881 23.2765C9.94881 23.1084 9.9972 23.0302 10.1094 22.9105L10.8115 23.0412ZM10.6581 22.063C10.4415 22.063 10.322 21.9847 10.322 21.7978C10.322 21.5215 10.4827 21.3609 10.7627 21.3609C10.9868 21.3609 11.0952 21.4543 11.0952 21.637C11.0952 21.9134 10.9382 22.063 10.6581 22.063ZM13.165 20.9688C12.9558 20.9688 12.7692 21.0714 12.5376 21.2542L12.504 21.1144H12.0931L11.8056 23.2101H12.3023L12.5189 21.6208C12.6647 21.5312 12.8438 21.4011 12.9969 21.4011C13.1835 21.4011 13.2509 21.4912 13.2509 21.6629C13.2509 21.704 13.247 21.8258 13.2395 21.8706L13.0567 23.2101H13.5535L13.7362 21.8597C13.7438 21.7965 13.7512 21.6924 13.7512 21.6328C13.7515 21.2776 13.5832 20.9688 13.165 20.9688ZM14.6948 22.6851L14.6986 22.6338L14.915 21.1144H14.0896L14.0376 21.4954H14.3996C14.3697 21.4954 14.3511 21.5288 14.3474 21.5589L14.198 22.5708C14.1906 22.6195 14.187 22.7209 14.187 22.7617C14.187 23.0231 14.3287 23.2102 14.6199 23.2102H14.8739L14.9299 22.8291H14.7694C14.7132 22.8291 14.6948 22.7299 14.6948 22.6851ZM15.0158 20.3522H14.5303C14.5004 20.3522 14.5004 20.2423 14.4968 20.2796L14.4294 20.8165C14.4255 20.8503 14.4255 20.9239 14.4554 20.9239H14.9411C14.971 20.9239 14.9711 20.7933 14.9747 20.7594L15.0421 20.345C15.0459 20.3076 15.0459 20.3522 15.0158 20.3522ZM16.0287 22.6978C15.9056 22.6978 15.8458 22.6455 15.8458 22.5337L15.8495 22.526L16.0064 21.4954H16.574L16.7456 21.1144H16.0586L16.1742 20.2758L15.6516 20.4429L15.5581 21.1144H15.2557L15.2035 21.4954H15.5545C15.5209 21.6859 15.4872 21.5623 15.4836 21.5998L15.3491 22.5035C15.3417 22.5447 15.3417 22.5745 15.3417 22.6117C15.3417 22.9665 15.603 23.0993 15.917 23.0993C16.2082 23.0993 16.4435 23.0143 16.6266 22.8609L16.3949 22.576C16.2789 22.6468 16.2006 22.6978 16.0287 22.6978ZM17.8511 20.9688C17.1677 20.9688 16.8466 21.2935 16.7382 22.0291C16.727 22.1188 16.7195 22.2048 16.7195 22.2869C16.7195 22.7911 16.9772 23.0936 17.5447 23.0936C17.9854 23.0936 18.3144 22.9105 18.4896 22.5744L18.1125 22.4212C18.0044 22.5854 17.8586 22.6975 17.6008 22.6975C17.3246 22.6975 17.2124 22.6232 17.2124 22.3766C17.2124 22.328 17.2164 22.2574 17.2239 22.2574H18.5719C18.5906 22.0668 18.613 21.9322 18.613 21.8205C18.613 21.4472 18.4711 20.9687 17.8511 20.9687V20.9688ZM18.1089 21.8765H17.2873C17.3694 21.6859 17.5074 21.391 17.7915 21.391C18.0117 21.391 18.1202 21.5198 18.1202 21.7401C18.1199 21.7774 18.1163 21.8765 18.1089 21.8765ZM19.9874 20.9687C19.8081 20.9687 19.64 21.0715 19.4719 21.2317L19.4421 21.1144H19.0314L18.7438 23.2101H19.2443L19.4645 21.5872C19.5953 21.509 19.7446 21.4421 19.8866 21.4421C19.9763 21.4421 20.062 21.4278 20.1441 21.4389L20.208 21.006C20.1329 20.9911 20.0583 20.9688 19.9874 20.9688V20.9687ZM7.30488 18.8511C6.17449 18.3624 5.11673 17.1206 5.1142 15.8499C5.11112 14.4646 5.98907 13.2884 7.08101 12.5155C6.94974 13.0114 6.87814 13.4651 7.20336 13.9087C7.50569 14.3212 8.03521 14.5216 8.5352 14.4128C9.70347 14.157 9.75707 12.8727 9.06447 12.1245C8.37969 11.3835 7.71725 10.5465 7.9779 9.47195C8.10838 8.93328 8.43913 8.42871 8.85813 8.06804C8.53607 8.91441 9.45127 9.7491 10.0543 10.1649C11.1003 10.8862 12.2479 11.4313 13.2097 12.2769C14.2214 13.1656 14.9684 14.3672 14.8176 15.7608C14.6541 17.2714 13.4538 18.3219 12.1074 18.8523C14.9525 18.2244 17.8922 16.0163 17.9524 12.861C18.0023 10.2651 16.2216 8.26736 14.0157 7.12364L13.9004 7.06072C13.961 7.20762 13.9808 7.33258 13.9785 7.44444C13.9982 7.36195 14.0116 7.27717 14.0154 7.18971C14.0149 7.29361 14.0013 7.39704 13.975 7.49756L13.9785 7.44444C13.9457 7.58225 13.8906 7.71375 13.8152 7.83368L13.8475 7.79887C13.4075 8.5288 12.2161 8.68731 11.6275 7.93148C10.6813 6.71569 11.6473 5.40485 11.7824 4.11738C11.9516 2.50382 10.9397 0.937383 9.68508 0C10.3761 1.11783 9.46571 2.59673 8.73736 3.42352C8.0311 4.22497 7.17218 4.89412 6.39252 5.62232C5.55499 6.40444 4.74983 7.22831 4.06141 8.14627C2.68459 9.98362 1.84169 12.2944 2.46111 14.5866C3.08014 16.8772 5.06431 18.3354 7.30496 18.851L7.30488 18.8511Z" fill="#EE4323"/>
</g>
<defs>
<clipPath id="clip0_1078_796">
<rect width="20.208" height="24" fill="white"/>
</clipPath>
</defs>
</svg>
