<svg xmlns="http://www.w3.org/2000/svg" width="50" height="50" viewBox="0 0 50 50"><defs><style>.a{fill:#005d6d;}.b{fill:#ffd629;}.c{fill:#ffa910;}.d{fill:#fc09b2;}.e{fill:#cc1dab;}.f{fill:#00d5fe;}.g{fill:#11a7e9;}.h{fill:#a1e032;}.i{fill:#ff8cde;}.j{fill:#fff;}.k{fill:#915efd;}.l{fill:#6e4acf;}.m{fill:#eee;}.n{fill:#e0e0e0;}</style></defs><g transform="translate(780 -287)"><path class="a" d="M25,0A25,25,0,1,1,0,25,25,25,0,0,1,25,0Z" transform="translate(-780 287)"/><g transform="translate(-770.998 293.207)"><path class="b" d="M216.153,125.965s-.045-.126-.141-.338a7.066,7.066,0,0,0-11.5-1.979l-6.257,6.43c1.47,1.409,10.339,11.234,16.842,3.207A7.3,7.3,0,0,0,216.153,125.965Zm-5.027,6.58c-3.021,1.832-6.89-.959-9.024-3.376,2.524-5.188,6.791-4.744,6.791-4.744A4.371,4.371,0,0,1,211.126,132.546Z" transform="translate(-184.705 -110.402)"/><path class="c" d="M256.12,225.076l-.053-.021a4.3,4.3,0,0,1-1.977,2.565c-3.021,1.832-6.89-.959-9.024-3.376q.151-.31.319-.61a.689.689,0,0,0-.836,1.066c1.911,2.164,4.729,4.2,7.4,4.2a4.73,4.73,0,0,0,2.494-.691,5.088,5.088,0,0,0,2.012-2.219A.689.689,0,0,0,256.12,225.076Z" transform="translate(-227.669 -205.476)"/><path class="d" d="M196.427,121.361a7.557,7.557,0,0,0-11.05-3.683,22.962,22.962,0,0,0-8.291,8.618l2.606,2.409c3.358-5.428,6.339-7.551,8.024-8.374,3.6-1.759,6.746,2.022,5.426,5.421l-.621-.3.72,3.779,3.6-1.776-.554-.414a7.144,7.144,0,0,0,.14-5.684Z" transform="translate(-164.979 -105.797)"/><path class="e" d="M222.27,161.907A5.151,5.151,0,0,0,221,156.282a4.428,4.428,0,0,0-5.1-.664c-1.926.94-4.914,3.181-8.237,8.517l.515.476c3.358-5.428,6.339-7.551,8.024-8.373,3.6-1.759,6.746,2.022,5.426,5.421l-.621-.3.72,3.779.641-.316-.481-2.527A.689.689,0,0,0,222.27,161.907Z" transform="translate(-193.464 -141.703)"/><path class="f" d="M11.981,124.643l.3.443S9,129.441,5.552,127.127a4.8,4.8,0,0,1-2.006-4.8c.265-1.6,1.25-3.3,4.239-3.323,0,0,3.235.164,5.7,4.321l.04-.059a18.564,18.564,0,0,1,2.167-2.639,11.314,11.314,0,0,0-5.541-4.465,7.411,7.411,0,0,0-9.628,4.381,7.65,7.65,0,0,0,1.052,7.32c3.172,4.629,9.077,4.12,12.68.416l.474.395.8-3.66Z" transform="translate(0 -104.984)"/><path class="g" d="M15.694,120.63a11.314,11.314,0,0,0-5.541-4.465,7.411,7.411,0,0,0-9.628,4.381,7.65,7.65,0,0,0,1.052,7.32c3.172,4.629,9.077,4.12,12.68.416l.474.395.8-3.66-.689-.073-.576,2.649h0a.688.688,0,0,0-.494.209,8.47,8.47,0,0,1-6.639,2.683,6.6,6.6,0,0,1-4.979-3.008,6.943,6.943,0,0,1-.982-6.671l.01-.027a6.7,6.7,0,0,1,8.763-3.958,10.69,10.69,0,0,1,5.164,4.16.691.691,0,0,0,.12.15q.232-.254.474-.5Z" transform="translate(0 -104.983)"/><path class="b" d="M10.153,116.166a7.411,7.411,0,0,0-9.628,4.381,7.144,7.144,0,0,0,.14,5.684l-.554.414,3.808,1.914.513-3.917-.621.3a4.962,4.962,0,0,1-.264-2.607c.265-1.6,1.25-3.3,4.239-3.323,0,0,3.235.164,5.7,4.321l.1-.151a17.007,17.007,0,0,1,2.1-2.546,11.315,11.315,0,0,0-5.541-4.465Z" transform="translate(0 -104.983)"/><path class="c" d="M15.694,120.63a11.314,11.314,0,0,0-5.541-4.465,7.411,7.411,0,0,0-9.628,4.381,7.144,7.144,0,0,0,.14,5.684l-.554.414,3.808,1.914.095-.724-2.7-1.359a.689.689,0,0,0-.012-.52,6.425,6.425,0,0,1-.133-5.149l.01-.027a6.7,6.7,0,0,1,8.764-3.958,10.625,10.625,0,0,1,5.163,4.16.687.687,0,0,0,.116.146q.234-.253.477-.5Z" transform="translate(0 -104.983)"/><g transform="translate(5.239 16.719)"><path class="h" d="M76.748,205.459l1.5.771a.153.153,0,1,0,.139-.274l-1.355-.679,1.355-.679a.153.153,0,1,0-.139-.274l-1.5.771a.205.205,0,0,0,0,.365ZM79,206.472a.156.156,0,0,0,.146-.1l.967-2.5a.158.158,0,1,0-.294-.114l-.964,2.5a.156.156,0,0,0,.146.212Zm1.416-2.012a.153.153,0,0,0,.085.137l1.366.679-1.366.679a.154.154,0,1,0,.138.274l1.492-.766a.211.211,0,0,0,0-.376l-1.492-.766A.153.153,0,0,0,80.415,204.46Z" transform="translate(-76.637 -203.654)"/><circle class="h" cx="0.192" cy="0.192" r="0.192" transform="translate(17.088 1.431)"/><circle class="h" cx="0.192" cy="0.192" r="0.192" transform="translate(17.999 1.431)"/><circle class="h" cx="0.192" cy="0.192" r="0.192" transform="translate(18.91 1.431)"/><path class="h" d="M311.185,205.479c.021.212.041.424.061.634,0,.131-.035.264-.291.264h-.017v.228h.017c.2,0,.291.086.291.263-.021.207-.041.413-.061.622a.5.5,0,0,0,.569.538h.1v-.244h-.086c-.193,0-.283-.1-.283-.312.019-.185.036-.375.053-.565a.479.479,0,0,1,0-.835c-.016-.185-.034-.373-.053-.558,0-.217.085-.31.283-.31h.086v-.244h-.1C311.387,204.962,311.185,205.145,311.185,205.479Zm4.02.9c-.256,0-.291-.134-.291-.263.02-.212.04-.424.061-.637,0-.333-.2-.516-.573-.516h-.093v.244h.085c.2,0,.284.1.284.308-.018.186-.037.374-.057.561a.478.478,0,0,1,0,.835c.021.188.04.377.057.561,0,.211-.091.31-.287.314h-.082v.244h.1a.5.5,0,0,0,.569-.54c-.02-.207-.04-.413-.061-.618,0-.178.1-.264.291-.264h.017v-.228h-.017Z" transform="translate(-294.919 -204.873)"/></g><path class="i" d="M248.966,317.832h14.2v10.062h-14.2Z" transform="translate(-231.944 -293.307)"/><g transform="translate(18.404 25.966)"><path class="j" d="M270.382,347.525h-.276m2.933,0h-.276m2.733,0h-.276m2.683,0h-.276m2.382,0h-.276m.985-6.276a.137.137,0,0,0-.159-.11,6.182,6.182,0,0,0-3.621,2.132,2.113,2.113,0,0,1-1.668.983,3.267,3.267,0,0,1-1.692-1.375,1.621,1.621,0,0,0-1.283-.677,4.339,4.339,0,0,0-3.083,1.832.137.137,0,1,0,.221.161,4.306,4.306,0,0,1,.672-.7v4.03h.276v-4.251a3.519,3.519,0,0,1,1.91-.8,1.409,1.409,0,0,1,.472.081v4.968h.276v-4.818a1.583,1.583,0,0,1,.319.335,3.35,3.35,0,0,0,1.863,1.482v3h.276v-2.987a2.2,2.2,0,0,0,1.656-1.1,5.173,5.173,0,0,1,.476-.515v4.6h.276v-4.843a6.047,6.047,0,0,1,1.831-1.039v5.881h.276v-5.972a5.6,5.6,0,0,1,.6-.145A.137.137,0,0,0,280.72,341.249ZM271,339.177h-1.444a.137.137,0,1,1,0-.273H271a.137.137,0,1,1,0,.273Zm1.378,1.378h-2.823a.137.137,0,1,1,0-.273h2.823a.137.137,0,1,1,0,.273Z" transform="translate(-269.185 -338.904)"/></g><path class="k" d="M67.094,45.12a3.551,3.551,0,1,0-6.066,2.506,1.864,1.864,0,0,1,.556,1.313v.472a1.959,1.959,0,1,0,3.918,0v-.445a1.93,1.93,0,0,1,.569-1.353,3.539,3.539,0,0,0,1.023-2.493Z" transform="translate(-55.891 -35.932)"/><path class="l" d="M62.342,49.413v-.472a1.864,1.864,0,0,0-.556-1.313,3.55,3.55,0,0,1,2.137-6.037,3.6,3.6,0,0,0-.52-.018,3.551,3.551,0,0,0-2.375,6.055,1.864,1.864,0,0,1,.556,1.313v.472a1.959,1.959,0,0,0,2.338,1.922A1.96,1.96,0,0,1,62.342,49.413Z" transform="translate(-55.89 -35.933)"/><g transform="translate(5.09 7.569)"><path class="j" d="M74.565,71.476l1.363.7a.14.14,0,1,0,.127-.249l-1.235-.619,1.235-.619a.14.14,0,1,0-.127-.249l-1.363.7C74.467,71.148,74.381,71.373,74.565,71.476Zm2.051.923a.142.142,0,0,0,.133-.091l.881-2.281a.144.144,0,1,0-.268-.1l-.878,2.282a.142.142,0,0,0,.133.193Zm1.29-1.833a.14.14,0,0,0,.078.125l1.244.619-1.244.619a.14.14,0,1,0,.126.25l1.36-.7a.2.2,0,0,0,0-.342l-1.36-.7A.14.14,0,0,0,77.906,70.565Z" transform="translate(-74.457 -69.827)"/></g><path class="m" d="M83.186,147.4v.472a1.959,1.959,0,1,0,3.918,0v-.445c0-.057,0-.114.008-.171H83.18C83.184,147.308,83.186,147.356,83.186,147.4Z" transform="translate(-77.493 -134.397)"/><path class="n" d="M83.945,147.878v-.472c0-.049,0-.1-.007-.145H83.18c0,.048.006.1.006.145v.472a1.959,1.959,0,0,0,2.338,1.922A1.96,1.96,0,0,1,83.945,147.878Z" transform="translate(-77.493 -134.399)"/><g transform="translate(1.654 3)"><path class="k" d="M30.194,4.1a.137.137,0,0,1-.137-.137V3.137a.137.137,0,0,1,.273,0v.826A.137.137,0,0,1,30.194,4.1ZM25.159,9.027h-.826a.137.137,0,0,1,0-.273h.826a.137.137,0,0,1,0,.273Zm10.9,0H35.23a.137.137,0,0,1,0-.273h.826a.137.137,0,1,1,0,.273ZM26.55,5.449a.136.136,0,0,1-.1-.04l-.584-.584a.137.137,0,1,1,.193-.193l.584.584c.1.131.027.217-.1.233Zm7.289,0c-.124-.016-.174-.1-.1-.233l.584-.584a.137.137,0,1,1,.193.193l-.584.584A.136.136,0,0,1,33.839,5.451Z" transform="translate(-24.196 -3)"/></g><g transform="translate(27.653 4.232)"><circle class="f" cx="0.276" cy="0.276" r="0.276" transform="translate(0 3.584)"/><circle class="f" cx="0.276" cy="0.276" r="0.276" transform="translate(0 5.307)"/><circle class="f" cx="0.276" cy="0.276" r="0.276" transform="translate(0 1.792)"/><circle class="f" cx="0.276" cy="0.276" r="0.276"/></g><g transform="translate(29.238 4.232)"><circle class="f" cx="0.276" cy="0.276" r="0.276" transform="translate(0 3.584)"/><circle class="f" cx="0.276" cy="0.276" r="0.276" transform="translate(0 5.307)"/><circle class="f" cx="0.276" cy="0.276" r="0.276" transform="translate(0 1.792)"/><circle class="f" cx="0.276" cy="0.276" r="0.276"/></g><g transform="translate(12.556 26.765)"><circle class="k" cx="0.276" cy="0.276" r="0.276" transform="translate(0 5.1)"/><circle class="k" cx="0.276" cy="0.276" r="0.276" transform="translate(0 6.823)"/><circle class="k" cx="0.276" cy="0.276" r="0.276" transform="translate(0 3.308)"/><circle class="k" cx="0.276" cy="0.276" r="0.276" transform="translate(1.585 5.1)"/><circle class="k" cx="0.276" cy="0.276" r="0.276" transform="translate(1.585 6.823)"/><circle class="k" cx="0.276" cy="0.276" r="0.276" transform="translate(1.585 3.308)"/><circle class="k" cx="0.276" cy="0.276" r="0.276"/><circle class="k" cx="0.276" cy="0.276" r="0.276" transform="translate(0 1.723)"/><circle class="k" cx="0.276" cy="0.276" r="0.276" transform="translate(1.585)"/><circle class="k" cx="0.276" cy="0.276" r="0.276" transform="translate(1.585 1.723)"/></g><path class="e" d="M10.279,345.054l.264.42a.138.138,0,0,0,.238-.008l.218-.405A.138.138,0,0,1,11.06,345l.445-.216a.138.138,0,0,0-.015-.254l-.414-.143a.138.138,0,0,1-.08-.073l-.21-.456a.138.138,0,0,0-.247-.007l-.254.48a.138.138,0,0,1-.075.065l-.38.136a.138.138,0,0,0-.018.252l.415.218A.136.136,0,0,1,10.279,345.054Z" transform="translate(-9.072 -317.481)"/><path class="f" d="M224.367,111.5l.264.42a.138.138,0,0,0,.238-.008l.218-.405a.138.138,0,0,1,.061-.059l.445-.216a.138.138,0,0,0-.015-.254l-.414-.143a.138.138,0,0,1-.08-.073l-.21-.456a.138.138,0,0,0-.247-.007l-.254.48a.138.138,0,0,1-.075.065l-.38.136a.138.138,0,0,0-.018.252l.415.218A.135.135,0,0,1,224.367,111.5Z" transform="translate(-208.522 -99.897)"/><path class="h" d="M34.388,427.015a.675.675,0,0,1-.6-.351.763.763,0,0,0-1.356,0,.675.675,0,0,1-.6.351.686.686,0,0,1-.614-1,2.14,2.14,0,0,1,3.791,0A.686.686,0,0,1,34.388,427.015Z" transform="translate(-29.005 -393.028)"/><path class="i" d="M70.559,370.524a.675.675,0,0,0-.6.351.763.763,0,0,1-1.356,0,.675.675,0,0,0-.6-.351.686.686,0,0,0-.614,1,2.14,2.14,0,0,0,3.791,0A.686.686,0,0,0,70.559,370.524Z" transform="translate(-62.703 -342.396)"/><path class="h" d="M232.211,49.5a.675.675,0,0,1-.6-.351.763.763,0,0,0-1.356,0,.675.675,0,0,1-.6.351.686.686,0,0,1-.614-1,2.14,2.14,0,0,1,3.791,0,.686.686,0,0,1-.614,1Z" transform="translate(-213.304 -41.322)"/><path class="i" d="M317.1,27.032a.674.674,0,0,0-.6.351.763.763,0,0,1-1.356,0,.675.675,0,0,0-.6-.351.686.686,0,0,0-.614,1,2.14,2.14,0,0,0,3.791,0A.686.686,0,0,0,317.1,27.032Z" transform="translate(-292.388 -22.389)"/></g></g></svg>