<svg xmlns="http://www.w3.org/2000/svg" width="50" height="50" viewBox="0 0 50 50"><defs><style>.a{fill:#005d6d;}.b{fill:#fff;}.c{fill:#fedea1;}.d{fill:#ff877f;}.e{fill:#573a32;}</style></defs><g transform="translate(780 -287)"><path class="a" d="M25,0A25,25,0,1,1,0,25,25,25,0,0,1,25,0Z" transform="translate(-780 287)"/><g transform="translate(-771 296)"><path class="b" d="M212.151,26.239a4.8,4.8,0,0,1-.364-9.585,4.773,4.773,0,0,1,9.367,0,4.8,4.8,0,0,1-.364,9.585h-8.64Z" transform="translate(-194.392 -12)"/><circle class="c" cx="1.6" cy="1.6" r="1.6" transform="translate(4 11.2)"/><circle class="d" cx="1.6" cy="1.6" r="1.6" transform="translate(24.8 18.4)"/><path class="b" d="M17.6,297.582A4.8,4.8,0,0,1,17.236,288a4.773,4.773,0,0,1,9.368,0,4.8,4.8,0,0,1-.364,9.585Z" transform="translate(-12 -266.384)"/><path class="e" d="M27.4,3.931a5.572,5.572,0,0,0-10.65,0A5.59,5.59,0,0,0,13.085,6.4H8A3.2,3.2,0,0,0,4.8,9.6v.947a2.387,2.387,0,0,0,0,4.507v5.328c-.071.169-.15.333-.2.51A5.6,5.6,0,0,0,5.6,32h8.641a5.592,5.592,0,0,0,5.519-4.8H24A3.2,3.2,0,0,0,27.2,24V22.253a2.387,2.387,0,0,0,0-4.507V14.96a5.587,5.587,0,0,0,.2-11.029ZM5.6,12a.8.8,0,1,1-.8.8A.8.8,0,0,1,5.6,12Zm8.641,18.4H5.6a4,4,0,1,1,0-8l.334,0,.033-.284a3.975,3.975,0,0,1,7.906,0l.081.279h.286a4,4,0,1,1,0,8ZM25.6,24A1.6,1.6,0,0,1,24,25.6H19.769a5.619,5.619,0,0,0-4.523-4.709A5.544,5.544,0,0,0,6.4,18.237V15.053a2.387,2.387,0,0,0,0-4.507V9.6A1.6,1.6,0,0,1,8,8h4.372a5.492,5.492,0,0,0-.212,1.439,5.607,5.607,0,0,0,5.6,5.6H25.6v2.706a2.387,2.387,0,0,0,0,4.507Zm.8-3.2a.8.8,0,1,1,.8-.8A.8.8,0,0,1,26.4,20.8Zm0-7.361H17.759a4,4,0,1,1,0-8l.334,0,.033-.284a3.974,3.974,0,0,1,7.906,0l.081.279H26.4a4,4,0,1,1,0,8Z"/></g></g></svg>