<svg xmlns="http://www.w3.org/2000/svg" width="50" height="50" viewBox="0 0 50 50"><defs><style>.a{fill:#005d6d;}.b{fill:#fff;}</style></defs><g transform="translate(780 -287)"><path class="a" d="M25,0A25,25,0,1,1,0,25,25,25,0,0,1,25,0Z" transform="translate(-780 287)"/><g transform="translate(-776.003 290.997)"><path class="b" d="M18.632,21.854V17.7a.593.593,0,0,0-.593-.593h-8.3a.593.593,0,0,0-.593.593v4.149H8.055a3.029,3.029,0,1,1,0-6.058,3.081,3.081,0,0,1,.741.089.593.593,0,0,0,.715-.726,4.091,4.091,0,0,1-.134-1.043,4.149,4.149,0,1,1,8.272.456.593.593,0,0,0,.754.634,3.454,3.454,0,0,1,.958-.135,3.391,3.391,0,1,1,0,6.783Z" transform="translate(0 -2.036)"/><path class="b" d="M21.112,27.556H14V24h7.112Zm-4.742-1.185h2.371a.593.593,0,0,0,0-1.185H16.371a.593.593,0,0,0,0,1.185ZM14,28.742h7.112V32.3H14Zm2.371,2.371h2.371a.593.593,0,1,0,0-1.185H16.371a.593.593,0,1,0,0,1.185ZM36.522,40V35.854a.593.593,0,0,0-.593-.593h-8.3a.593.593,0,0,0-.593.593V40H25.945a3.029,3.029,0,1,1,0-6.058,3.081,3.081,0,0,1,.741.089.593.593,0,0,0,.715-.726,4.091,4.091,0,0,1-.134-1.043,4.149,4.149,0,1,1,8.272.456.593.593,0,0,0,.754.634,3.454,3.454,0,0,1,.958-.135,3.391,3.391,0,1,1,0,6.783Z" transform="translate(-3.666 -7.739)"/><path class="b" d="M42.154,32.264H35.041V28.708h7.112Zm-4.742-1.185h2.371a.593.593,0,1,0,0-1.185H37.412a.593.593,0,0,0,0,1.185Zm-2.371,2.371h7.112v3.556H35.041Zm2.371,2.371h2.371a.593.593,0,0,0,0-1.185H37.412a.593.593,0,0,0,0,1.185Zm9.283-18.7L44.46,18.55l-1-2.456.4.127a.593.593,0,0,0,.765-.474A8.3,8.3,0,0,0,31.541,7.776L30.736,6.9a9.482,9.482,0,0,1,15,9.37.593.593,0,0,0,.4.677Z" transform="translate(-10.483)"/></g></g></svg>