<svg xmlns="http://www.w3.org/2000/svg" version="1.1" xmlns:xlink="http://www.w3.org/1999/xlink" xmlns:svgjs="http://svgjs.com/svgjs" width="512" height="512" x="0" y="0" viewBox="0 0 64 64" style="enable-background:new 0 0 512 512" xml:space="preserve" class=""><g><path d="M28 30v-7a1 1 0 0 0-1-1H13a1 1 0 0 0-1 1v7h-1.846C7.311 30 5 27.712 5 24.889s2.311-5.111 5.154-5.111c.431 0 .85.052 1.25.151a1 1 0 0 0 1.207-1.225 6.903 6.903 0 0 1-.226-1.76c0-3.834 3.138-6.944 7-6.944 3.861 0 7 3.11 7 6.944 0 .26-.015.516-.043.769a1.001 1.001 0 0 0 1.272 1.07 5.828 5.828 0 0 1 1.617-.227c3.181 0 5.769 2.562 5.769 5.722S32.412 30 29.231 30z" fill="#ffffff" data-original="#000000" class=""></path><path d="M26 30H14v-6h12zm-8-2h4a1 1 0 0 0 0-2h-4a1 1 0 0 0 0 2zM14 32h12v6H14zm4 4h4a1 1 0 0 0 0-2h-4a1 1 0 0 0 0 2zM52 51v-7a1 1 0 0 0-1-1H37a1 1 0 0 0-1 1v7h-1.846C31.311 51 29 48.712 29 45.889s2.311-5.111 5.154-5.111c.431 0 .85.052 1.25.151a1 1 0 0 0 1.207-1.225 6.903 6.903 0 0 1-.226-1.76c0-3.834 3.138-6.944 7-6.944 3.861 0 7 3.11 7 6.944 0 .26-.015.516-.043.769a1.001 1.001 0 0 0 1.272 1.07 5.828 5.828 0 0 1 1.617-.227c3.182 0 5.769 2.562 5.769 5.722S56.413 51 53.231 51z" fill="#ffffff" data-original="#000000" class=""></path><path d="M50 51H38v-6h12zm-8-2h4a1 1 0 0 0 0-2h-4a1 1 0 0 0 0 2zM38 53h12v6H38zm4 4h4a1 1 0 0 0 0-2h-4a1 1 0 0 0 0 2zM57.663 25.45l-3.771 2.411-1.691-4.143.678.215a1 1 0 0 0 1.291-.8 13.93 13.93 0 0 0-.316-5.751c-1.199-4.455-4.571-8.227-9.292-9.724a13.984 13.984 0 0 0-12.467 2.026l-1.359-1.482c3.993-2.986 9.32-4.071 14.431-2.45 6.18 1.959 10.338 7.331 11.056 13.38.19 1.596.14 3.239-.176 4.879a1 1 0 0 0 .68 1.142z" fill="#ffffff" data-original="#000000" class=""></path></g></svg>