<svg xmlns="http://www.w3.org/2000/svg" version="1.1" xmlns:xlink="http://www.w3.org/1999/xlink" xmlns:svgjs="http://svgjs.com/svgjs" width="512" height="512" x="0" y="0" viewBox="0 0 512 512" style="enable-background:new 0 0 512 512" xml:space="preserve" class=""><g><path d="M284.151 227.823c-42.342 0-76.8-34.449-76.8-76.8 0-40.371 31.334-73.574 70.98-76.561 7.049-35.558 38.17-61.662 74.94-61.662 36.753 0 67.857 26.078 74.94 61.67 39.637 2.987 70.98 36.181 70.98 76.561 0 42.351-34.458 76.8-76.8 76.8h-138.24v-.008z" style="" fill="#ffffff" data-original="#a9d0d3" class=""></path><circle cx="89.6" cy="204.8" r="25.6" style="" fill="#fedea1" data-original="#fedea1" class=""></circle><circle cx="422.4" cy="320" r="25.6" style="" fill="#ff877f" data-original="#ff877f" class=""></circle><path d="M89.6 499.174c-42.342 0-76.8-34.449-76.8-76.8 0-40.371 31.334-73.574 70.98-76.561 7.057-35.567 38.178-61.67 74.948-61.67 36.753 0 67.857 26.078 74.94 61.67 39.637 2.987 70.98 36.181 70.98 76.561 0 42.351-34.458 76.8-76.8 76.8H89.6z" style="" fill="#ffffff" data-original="#6fb0b6" class=""></path><path d="M438.477 62.899C426.923 25.702 392.371 0 353.271 0s-73.651 25.702-85.197 62.899c-24.755 4.489-45.568 19.371-58.718 39.501H128c-28.228 0-51.2 22.972-51.2 51.2v15.147c-14.882 5.29-25.6 19.353-25.6 36.053s10.718 30.763 25.6 36.053v85.248c-1.135 2.697-2.398 5.325-3.277 8.158C31.377 341.897 0 379.204 0 422.374 0 471.799 40.201 512 89.6 512h138.249c45.013 0 82.014-33.485 88.303-76.8H384c28.228 0 51.2-22.972 51.2-51.2v-27.947c14.882-5.291 25.6-19.354 25.6-36.053s-10.718-30.763-25.6-36.053V239.36c43.307-6.281 76.8-43.29 76.8-88.329 0-43.178-31.377-80.477-73.523-88.132zM89.6 192c7.057 0 12.8 5.743 12.8 12.8s-5.743 12.8-12.8 12.8-12.8-5.743-12.8-12.8S82.543 192 89.6 192zm138.249 294.374H89.6c-35.302 0-64-28.698-64-64 0-35.277 28.698-63.974 64-63.974l5.35.077.529-4.548c3.575-32.503 30.771-56.977 63.249-56.977s59.674 24.474 63.249 56.977l1.297 4.471h4.574c35.302 0 64 28.698 64 63.974.001 35.303-28.697 64-63.999 64zM409.6 384c0 14.14-11.46 25.6-25.6 25.6h-67.703c-5.495-37.547-34.466-68.471-72.371-75.349-11.554-37.197-46.097-62.899-85.197-62.899-21.129 0-40.772 7.68-56.329 20.446v-50.944C117.282 235.563 128 221.5 128 204.8s-10.718-30.763-25.6-36.053V153.6c0-14.14 11.46-25.6 25.6-25.6h69.948c-2.005 7.415-3.396 15.061-3.396 23.023 0 49.425 40.201 89.626 89.6 89.626H409.6v43.298C394.718 289.237 384 303.3 384 320s10.718 30.763 25.6 36.053V384zm12.8-51.2c-7.057 0-12.8-5.743-12.8-12.8s5.743-12.8 12.8-12.8 12.8 5.743 12.8 12.8-5.743 12.8-12.8 12.8zm0-117.777H284.151c-35.302 0-64-28.698-64-64 0-35.277 28.698-63.974 64-63.974l5.35.077.529-4.548c3.567-32.503 30.771-56.977 63.241-56.977s59.674 24.474 63.249 56.977l1.297 4.471h4.582c35.302 0 64 28.698 64 63.974.001 35.302-28.697 64-63.999 64z" style="" fill="#573a32" data-original="#573a32" class=""></path></g></svg>