<svg xmlns="http://www.w3.org/2000/svg" width="18" height="18" viewBox="0 0 18 18"><defs><style>.a{fill:#005d6d;}</style></defs><path class="a" d="M11,2a9,9,0,1,0,9,9,9,9,0,0,0-9-9M9.622,13.256a1.856,1.856,0,0,0,1.505.729,1.705,1.705,0,0,0,1.427-.626,2.744,2.744,0,0,0,.451-1.01h1.807a3.925,3.925,0,0,1-1.195,2.315,3.478,3.478,0,0,1-2.463.892,3.692,3.692,0,0,1-2.921-1.2,4.855,4.855,0,0,1-1.064-3.319A4.812,4.812,0,0,1,8.38,7.519a3.584,3.584,0,0,1,2.676-1.075,3.6,3.6,0,0,1,3.178,1.441,3.136,3.136,0,0,1,.6,1.624H13.011a2.487,2.487,0,0,0-.445-.945A1.794,1.794,0,0,0,11.125,8a1.776,1.776,0,0,0-1.533.8,3.91,3.91,0,0,0-.561,2.265,3.435,3.435,0,0,0,.592,2.194" transform="translate(-2 -2)"/></svg>