<svg xmlns="http://www.w3.org/2000/svg" width="30" height="30" viewBox="0 0 30 30"><defs><style>.a{fill:#fff;}</style></defs><path class="a" d="M19.5,28h1v1h-1Zm2,0h1v1h-1Zm2,0h1v1h-1Zm-4,2h1v1h-1Zm2,0h1v1h-1Zm2,0h1v1h-1Zm2,0h1v1h-1Zm2,0h1v1h-1Zm-8,2h1v1h-1Zm2,0h1v1h-1Zm2,0h1v1h-1Zm2,0h1v1h-1Zm2,0h1v1h-1Zm-8,2h1v1h-1Zm2,0h1v1h-1Zm2,0h1v1h-1Zm2,0h1v1h-1Zm2,0h1v1h-1Zm-8,2h1v1h-1Zm2,0h1v1h-1Zm2,0h1v1h-1Zm2,0h1v1h-1Zm2,0h1v1h-1Zm-8,2h1v1h-1Zm2,0h1v1h-1Zm2,0h1v1h-1Zm2,0h1v1h-1Zm2,0h1v1h-1Zm13-25.5H37v-1a.5.5,0,0,0-.5-.5h-5a.5.5,0,0,0-.5.5v1H11.5a.5.5,0,0,0-.5.5v2a.5.5,0,0,0,.5.5H13V25a.5.5,0,0,0,.5.5.5.5,0,1,1-.5.5H12a1.489,1.489,0,0,0,.382.991L11.1,28.7l.007,0A.49.49,0,0,0,11,29v2a.5.5,0,0,0,.146.353l1,1a.5.5,0,0,0,.353.146h2a.5.5,0,0,0,.354-.146l1-1A.5.5,0,0,0,16,31V29a.494.494,0,0,0-.106-.3l.006,0-1.283-1.709A1.491,1.491,0,0,0,14,24.585V15.5H31V16a.5.5,0,0,0,.5.5h1V40h-2V20h-1v2h-3V21h-1v1h-3v-.5h-1V22h-3V20.5H25v-1H18.5v-2h-1V40h-.793l-2.354-2.353a.5.5,0,0,0-.707,0L11.294,40H11v1H41V40h-.391a1.486,1.486,0,0,0-.72-2.44,1.5,1.5,0,1,0-2.78,0A1.486,1.486,0,0,0,36.388,40H35.5V16.5h1A.5.5,0,0,0,37,16v-.5h3.5A.5.5,0,0,0,41,15V13A.5.5,0,0,0,40.5,12.5ZM13.75,27.5l.75,1h-2l.75-1ZM15,30.793l-.707.707H12.706L12,30.793V29.5h3ZM38.35,13.5,37,14.4v-.9ZM32,12h2v2H32ZM18.5,13.6l1.35.9h-2.7Zm-3,.8-1.35-.9h2.7Zm4.65-.9h2.7l-1.35.9Zm4.35.1,1.35.9h-2.7Zm1.649-.1h2.7l-1.35.9ZM12,13.5h.35l1.5,1H12Zm17.15,1,1.5-1H31v1ZM34.5,38.35,33.6,37l.9-1.35Zm0-12L33.6,25l.9-1.35Zm-1,.3L34.4,28l-.9,1.35Zm0-3.3v-2.7L34.4,22Zm0,9.3L34.4,34l-.9,1.35Zm1-.3L33.6,31l.9-1.35ZM33.6,19l.9-1.35v2.7Zm-.1-1.65V16.5h.566ZM29.5,23v5h-3V23Zm-4,0v4.3l-1.15-1.136a.5.5,0,0,0-.35-.145H22.5V23Zm-4,0v.833h-3V23ZM14,38.707,15.293,40H12.707ZM18.5,40V24.834h3v1.688a.5.5,0,0,0,.5.5H23.8l1.856,1.834A.494.494,0,0,0,26,29h3.5V40Zm15-1.349L34.4,40h-.9Zm6,.85A.5.5,0,1,1,40,39,.5.5,0,0,1,39.5,39.5Zm-1-3a.5.5,0,1,1-.5.5A.5.5,0,0,1,38.5,36.5Zm-1,2a.5.5,0,1,1-.5.5A.5.5,0,0,1,37.5,38.5ZM36,15.5H32V15h2.5a.5.5,0,0,0,.5-.5V12h1Zm2.65-1L40,13.6v.9Z" transform="translate(-11 -11)"/></svg>