<svg xmlns="http://www.w3.org/2000/svg" width="135.118" height="151.151" viewBox="0 0 135.118 151.151">
  <g id="Group_233" data-name="Group 233" transform="translate(-73.369 -204.531)">
    <g id="Group_202" data-name="Group 202">
      <path id="Path_194" data-name="Path 194" d="M131.4,326.9c.407-.414,4.319,2.1,8.263,2.731s7.957-.245,11.855-1.119c2.143-.481,4.492-1.1,5.723-2.915,1.011-1.494,1-3.421,1.165-5.217.708-7.82,6.012-14.2,10.274-20.791,6.194-9.583,23.033-26.063,16-48.73-7.012-22.591-29.479-25.057-37.237-25.45a49.089,49.089,0,0,0-10.522.89c-.035,3.111-.069,6.222-.174,9.492-3.054,0-11.7,2.41-14.068,5.66,0,0-8.034-7.928-8.652-7.295a53.966,53.966,0,0,0-11.443,13.377s8.877,6.485,8.558,6.659c-2.317,4.024-3.851,6.982-4.743,11.54l-9.768,0-.252,16.584s10.344-.579,10.73-.193a25,25,0,0,0,4.733,12.235l-7.982,6.17,10.382,13.038s7.625-7.581,7.7-7.012c3.357,3.981,9.852,3.883,15.042,3.463,0,0-.213-20.565.111-21.4-5.834,1.566-12.962-3.725-12.962-12.426,0-7.813,4.884-13.208,9.52-12.792,2.634.236,4.428-.619,6.707-1.964a13.384,13.384,0,0,0,6.337-9.392c.43-2.859-1.048-7.346-4.544-7.513-3.463-.166-9.872,6.889,1.128,17.888,4.9,4.9,10.466,14.373,17.253,15.789,2.817.587,6.933-1.311,7.368-4.155.4-2.635-4.142-4.861-6.807-4.815-3.868.067-7.065,1.483-9.185,4.72a24.108,24.108,0,0,0-3.61,9.409,174.613,174.613,0,0,0-3.765,42.331C140.638,324.2,136.024,324.788,131.4,326.9Z" fill="#fff"/>
      <path id="Path_195" data-name="Path 195" d="M142.474,330.716a18.651,18.651,0,0,1-2.951-.225,27.217,27.217,0,0,1-6.328-2.108c-.577-.251-1.279-.558-1.582-.64a.87.87,0,0,1-.836-1.454.982.982,0,0,1,.494-.287c4.477-2,8.714-2.512,12.348-1.521a175.431,175.431,0,0,1,3.821-41.3,25.032,25.032,0,0,1,3.733-9.7c.077-.117.156-.233.236-.347-1.572-1.655-3.061-3.466-4.479-5.194-1.5-1.825-2.917-3.549-4.273-4.906q-.642-.641-1.206-1.262c-.215.143-.435.282-.658.414-2.2,1.3-4.262,2.341-7.227,2.081a6.216,6.216,0,0,0-4.669,1.83c-2.444,2.234-3.9,6.008-3.9,10.1a12.231,12.231,0,0,0,4.56,9.873,8.452,8.452,0,0,0,7.307,1.713.87.87,0,0,1,1.058,1.091c-.2,1.141-.153,13.549-.075,21.143a.87.87,0,0,1-.8.877c-5.569.452-11.691.4-15.288-3.234-1.193.975-4.223,3.865-6.907,6.533a.848.848,0,0,1-.664.251.869.869,0,0,1-.63-.326l-10.381-13.038a.869.869,0,0,1,.149-1.23l7.319-5.658a25.761,25.761,0,0,1-4.328-11.306c-1.517-.071-5.919.086-9.892.309a.882.882,0,0,1-.651-.241.871.871,0,0,1-.267-.641l.25-16.584a.871.871,0,0,1,.87-.857h0l9.061,0a34.785,34.785,0,0,1,4.38-10.551c-1.167-1-4.727-3.684-8-6.075a.871.871,0,0,1-.231-1.153,54.582,54.582,0,0,1,11.611-13.58,1.011,1.011,0,0,1,.669-.253c.362,0,1.41-.011,8.512,6.936,2.964-2.916,9.954-4.9,13.27-5.218.085-2.98.117-5.874.148-8.679a.871.871,0,0,1,.7-.844,49.871,49.871,0,0,1,10.705-.906c11.389.576,31.432,4.728,38.054,26.062,6.019,19.4-5.067,34.367-12.4,44.274-1.389,1.876-2.7,3.648-3.695,5.186-.755,1.169-1.554,2.347-2.327,3.486-3.564,5.256-7.248,10.691-7.812,16.912-.024.259-.043.522-.063.786a9.566,9.566,0,0,1-1.247,4.84c-1.38,2.037-3.846,2.735-6.254,3.276A42.547,42.547,0,0,1,142.474,330.716Zm-8.532-3.9a25.183,25.183,0,0,0,5.857,1.961c3.832.616,7.92-.3,11.525-1.109,2.153-.483,4.17-1.042,5.194-2.554a8.154,8.154,0,0,0,.953-4c.02-.272.041-.544.065-.811.6-6.669,4.417-12.292,8.105-17.731.767-1.132,1.561-2.3,2.306-3.455,1.024-1.585,2.352-3.378,3.758-5.276,7.126-9.625,17.9-24.171,12.139-42.723-6.308-20.325-25.544-24.287-36.45-24.839a48.494,48.494,0,0,0-9.616.743c-.033,2.841-.07,5.773-.166,8.8a.87.87,0,0,1-.87.842c-3.13,0-11.291,2.454-13.364,5.3a.871.871,0,0,1-1.315.107,74.642,74.642,0,0,0-7.811-6.969,52.842,52.842,0,0,0-10.511,12.2c8.327,6.1,8.31,6.363,8.272,6.93a.885.885,0,0,1-.128.4c-2.227,3.865-3.752,6.74-4.637,11.261a.87.87,0,0,1-.854.7h0l-8.912,0-.223,14.794c9.821-.53,10.159-.189,10.461.113a.872.872,0,0,1,.249.525,24.02,24.02,0,0,0,4.568,11.808.868.868,0,0,1-.168,1.2l-7.283,5.63,9.226,11.589c6.951-6.882,7.307-6.76,7.884-6.562a.912.912,0,0,1,.42.311c2.857,3.362,8.328,3.561,13.48,3.2-.075-7.58-.115-16.184.041-19.526a10.425,10.425,0,0,1-7.641-2.244,13.952,13.952,0,0,1-5.242-11.254c0-4.566,1.671-8.821,4.469-11.379a7.942,7.942,0,0,1,6-2.28c2.26.2,3.793-.433,6.188-1.846q.2-.118.4-.245c-5.053-6.222-4.356-10.67-3.368-12.9,1.175-2.655,3.531-3.969,5.248-3.878a4.923,4.923,0,0,1,3.628,1.9,9.049,9.049,0,0,1,1.734,6.61,14.209,14.209,0,0,1-4.71,8.536q.492.539,1.049,1.1c1.416,1.416,2.859,3.172,4.387,5.032,1.351,1.645,2.769,3.37,4.248,4.942a11.624,11.624,0,0,1,8.549-3.41,9.815,9.815,0,0,1,6.7,2.911,3.562,3.562,0,0,1,.985,2.9,5.36,5.36,0,0,1-2.4,3.493,8.192,8.192,0,0,1-6,1.382c-2.777-.579-5.327-2.386-7.692-4.665l-.027.04c-1.965,3-2.638,5.145-3.488,9.115a173.694,173.694,0,0,0-3.745,42.12.87.87,0,0,1-1.18.841C141.264,325.375,137.748,325.487,133.942,326.811Zm3.973-37.934c0,.016-.012.032-.017.048C137.9,288.913,137.909,288.9,137.915,288.877Zm15.824-15.863c2.2,2.142,4.526,3.827,6.964,4.335a6.47,6.47,0,0,0,4.655-1.109,3.667,3.667,0,0,0,1.676-2.326,1.882,1.882,0,0,0-.576-1.5,8.176,8.176,0,0,0-5.292-2.315H161.1A9.84,9.84,0,0,0,153.739,273.014Zm-11.718-27.623a4.456,4.456,0,0,0-3.492,2.847c-.668,1.508-1.519,5.377,3.171,11.149a12.445,12.445,0,0,0,4.127-7.48,7.312,7.312,0,0,0-1.358-5.247,3.193,3.193,0,0,0-2.366-1.267Zm-27.379-10.625h0Z"/>
    </g>
    <g id="Group_205" data-name="Group 205">
      <g id="Group_203" data-name="Group 203">
        <path id="Path_196" data-name="Path 196" d="M163.3,320.115s-35.285-.465-35.322-.128a84.343,84.343,0,0,0,1.321,21.689c.7,3.626,2.285,12.177,15.236,12.945,10.16.6,14.9-5.058,16.329-10.982A104.019,104.019,0,0,0,163.3,320.115Z" fill="#acd4f7"/>
        <path id="Path_197" data-name="Path 197" d="M146.045,355.536q-.756,0-1.559-.047c-13.563-.8-15.291-9.768-16.029-13.6a85.206,85.206,0,0,1-1.344-21.965c.094-.855.623-.866,2.379-.9.972-.019,2.359-.029,4.022-.031,2.943,0,7.023.017,12.149.06,8.727.073,17.563.189,17.652.19a.87.87,0,0,1,.858.865,104.183,104.183,0,0,1-2.461,23.732C160.848,347.44,157.611,355.536,146.045,355.536ZM128.8,320.782a83.343,83.343,0,0,0,1.355,20.729c.728,3.774,2.221,11.518,14.434,12.242,11.513.69,14.632-6.988,15.432-10.318a101.708,101.708,0,0,0,2.414-22.461C150.064,320.814,132.431,320.651,128.8,320.782Z"/>
      </g>
      <g id="Group_204" data-name="Group 204" opacity="0.129">
        <path id="Path_198" data-name="Path 198" d="M162.756,320.455a2.033,2.033,0,0,0-3.9.784c-.524,5.72-.57,9.857-1.032,13.825a35.654,35.654,0,0,1-2.052,6.463c-.687,1.714-4.094,6.043-7.45,7.52-1.249.682-5.393,1.648-7.553.7-1.284-.361-2.337-1-5.658-2.8a2.277,2.277,0,0,0-2.3,3.931c1.418.883,2.817,1.795,4.188,2.75-.172-.115-.368-.3-.5-.384a11.315,11.315,0,0,0,4.176,2.079c8.437,1.73,15.1-2.851,19.006-10.089a37.619,37.619,0,0,0,2.9-13.933,5.684,5.684,0,0,0-.024-1.594c.056-1.206.1-2.4.168-3.569.048-1.409.094-2.817.164-4.225A2.639,2.639,0,0,0,162.756,320.455Z"/>
      </g>
    </g>
    <g id="Group_213" data-name="Group 213">
      <g id="Group_206" data-name="Group 206">
        <path id="Path_199" data-name="Path 199" d="M141,218.376a.87.87,0,0,1-.87-.86,121.054,121.054,0,0,1,.482-12.193.87.87,0,1,1,1.733.156,119.346,119.346,0,0,0-.475,12.018.87.87,0,0,1-.86.879Z"/>
      </g>
      <g id="Group_207" data-name="Group 207">
        <path id="Path_200" data-name="Path 200" d="M184.931,233.346a.87.87,0,0,1-.585-1.513,72.6,72.6,0,0,0,8.325-8.966.87.87,0,0,1,1.371,1.072,74.519,74.519,0,0,1-8.525,9.181A.867.867,0,0,1,184.931,233.346Z"/>
      </g>
      <g id="Group_208" data-name="Group 208">
        <path id="Path_201" data-name="Path 201" d="M207.617,272.115h-.038l-11.249-.485a.87.87,0,0,1,.075-1.739l11.249.485a.87.87,0,0,1-.037,1.739Z"/>
      </g>
      <g id="Group_209" data-name="Group 209">
        <path id="Path_202" data-name="Path 202" d="M188.662,315.1a.864.864,0,0,1-.482-.146l-9.366-6.248a.87.87,0,1,1,.965-1.448l9.367,6.249a.869.869,0,0,1-.484,1.593Z"/>
      </g>
      <g id="Group_210" data-name="Group 210">
        <path id="Path_203" data-name="Path 203" d="M96.924,233.182a.869.869,0,0,1-.585-.226,74.513,74.513,0,0,1-8.525-9.181.87.87,0,0,1,1.371-1.072,72.669,72.669,0,0,0,8.325,8.966.87.87,0,0,1-.586,1.513Z"/>
      </g>
      <g id="Group_211" data-name="Group 211">
        <path id="Path_204" data-name="Path 204" d="M74.239,271.951a.87.87,0,0,1-.037-1.74l11.249-.484a.87.87,0,1,1,.074,1.739l-11.248.484Z"/>
      </g>
      <g id="Group_212" data-name="Group 212">
        <path id="Path_205" data-name="Path 205" d="M91.29,314.932a.87.87,0,0,1-.483-1.594l9.367-6.248a.87.87,0,0,1,.965,1.447l-9.367,6.248A.858.858,0,0,1,91.29,314.932Z"/>
      </g>
    </g>
    <g id="Group_214" data-name="Group 214">
      <path id="Path_206" data-name="Path 206" d="M117.357,307.683a.368.368,0,0,1-.064-.007l-5.108-1.139a.29.29,0,1,1,.125-.567l5.11,1.14a.29.29,0,0,1-.063.573Z"/>
    </g>
    <g id="Group_215" data-name="Group 215">
      <path id="Path_207" data-name="Path 207" d="M120.316,303.106l-.029,0a68.695,68.695,0,0,1-11.932-2.286.29.29,0,0,1,.159-.557,68.32,68.32,0,0,0,11.831,2.267.29.29,0,0,1-.029.578Z"/>
    </g>
    <g id="Group_216" data-name="Group 216">
      <path id="Path_208" data-name="Path 208" d="M134.151,302a.238.238,0,0,1-.053-.005c-6.928-1.294-13.912-2.8-20.76-4.47a.29.29,0,0,1,.137-.563c6.837,1.669,13.812,3.171,20.729,4.463a.29.29,0,0,1-.053.575Z"/>
    </g>
    <g id="Group_217" data-name="Group 217">
      <path id="Path_209" data-name="Path 209" d="M133.422,306.314h-.034a77.924,77.924,0,0,1-8.533-1.47.29.29,0,0,1,.13-.565,77.259,77.259,0,0,0,8.47,1.458.29.29,0,0,1-.033.578Z"/>
    </g>
    <g id="Group_218" data-name="Group 218">
      <path id="Path_210" data-name="Path 210" d="M132.22,297.48a.308.308,0,0,1-.053-.005,178.082,178.082,0,0,1-18.835-4.568.29.29,0,1,1,.168-.555,177.688,177.688,0,0,0,18.772,4.553.29.29,0,0,1-.052.575Z"/>
    </g>
    <g id="Group_219" data-name="Group 219">
      <path id="Path_211" data-name="Path 211" d="M131.572,293.28a.341.341,0,0,1-.07-.008l-20.585-5.118a.29.29,0,0,1,.14-.563l20.585,5.118a.29.29,0,0,1-.07.571Z"/>
    </g>
    <g id="Group_220" data-name="Group 220">
      <path id="Path_212" data-name="Path 212" d="M125.373,287.156a.293.293,0,0,1-.051,0,152.337,152.337,0,0,1-15.059-3.444.29.29,0,0,1,.158-.558,152.035,152.035,0,0,0,15,3.431.29.29,0,0,1-.05.575Z"/>
    </g>
    <g id="Group_221" data-name="Group 221">
      <path id="Path_213" data-name="Path 213" d="M121.215,282.03a.287.287,0,0,1-.064-.008c-7.443-1.687-14.932-3.634-22.26-5.787a.29.29,0,1,1,.163-.556c7.317,2.149,14.795,4.093,22.225,5.778a.29.29,0,0,1-.064.573Z"/>
    </g>
    <g id="Group_222" data-name="Group 222">
      <path id="Path_214" data-name="Path 214" d="M120.093,276.7a.265.265,0,0,1-.073-.009c-6.726-1.741-13.507-3.63-20.153-5.615a.29.29,0,0,1,.165-.556c6.64,1.983,13.413,3.87,20.133,5.609a.29.29,0,0,1-.072.571Z"/>
    </g>
    <g id="Group_223" data-name="Group 223">
      <path id="Path_215" data-name="Path 215" d="M119.745,272.2a.278.278,0,0,1-.049,0,57.04,57.04,0,0,1-10.756-2.962.29.29,0,0,1,.209-.542,56.36,56.36,0,0,0,10.645,2.932.29.29,0,0,1-.049.576Z"/>
    </g>
    <g id="Group_224" data-name="Group 224">
      <path id="Path_216" data-name="Path 216" d="M121.894,267.7a.292.292,0,0,1-.091-.014c-3.785-1.253-7.569-2.654-11.249-4.166a.29.29,0,0,1,.221-.537c3.667,1.507,7.439,2.9,11.211,4.152a.29.29,0,0,1-.092.565Z"/>
    </g>
    <g id="Group_225" data-name="Group 225">
      <path id="Path_217" data-name="Path 217" d="M123.618,261.93a.3.3,0,0,1-.084-.012,61.709,61.709,0,0,1-10.979-4.531.29.29,0,1,1,.272-.512,61,61,0,0,0,10.875,4.487.29.29,0,0,1-.084.568Z"/>
    </g>
    <g id="Group_226" data-name="Group 226">
      <path id="Path_218" data-name="Path 218" d="M132.219,260.1a.29.29,0,0,1-.121-.026c-8.6-3.957-17.162-8.346-25.46-13.047a.289.289,0,1,1,.285-.5c8.284,4.692,16.835,9.074,25.418,13.024a.29.29,0,0,1-.122.553Z"/>
    </g>
    <g id="Group_227" data-name="Group 227">
      <path id="Path_219" data-name="Path 219" d="M135.819,256.113a.287.287,0,0,1-.124-.028L109.983,243.9a.29.29,0,1,1,.249-.524l25.711,12.18a.29.29,0,0,1-.124.552Z"/>
    </g>
    <g id="Group_228" data-name="Group 228">
      <path id="Path_220" data-name="Path 220" d="M133.725,250.023a.289.289,0,0,1-.12-.026c-6.866-3.124-13.773-6.448-20.529-9.882a.29.29,0,1,1,.263-.517c6.749,3.43,13.648,6.751,20.507,9.871a.29.29,0,0,1-.121.554Z"/>
    </g>
    <g id="Group_229" data-name="Group 229">
      <path id="Path_221" data-name="Path 221" d="M134.038,243.767a.283.283,0,0,1-.113-.024l-5.414-2.292a.29.29,0,0,1,.227-.534l5.413,2.293a.29.29,0,0,1-.113.557Z"/>
    </g>
    <g id="Group_230" data-name="Group 230">
      <path id="Path_222" data-name="Path 222" d="M137.912,241.389a.3.3,0,0,1-.115-.023l-4.186-1.809a.29.29,0,1,1,.229-.532l4.187,1.808a.29.29,0,0,1-.115.556Z"/>
    </g>
    <g id="Group_231" data-name="Group 231" opacity="0.129">
      <path id="Path_223" data-name="Path 223" d="M178.479,282.288c-1.014,1.079-2.072,2.117-3.067,3.216-1.133,1.092-4.406,5.454-5.418,6.855-1.223,1.523-3.72,4.45-3.878,4.735a99.639,99.639,0,0,0-9.539,14.341,9.668,9.668,0,0,1-2.97,1.783,13.507,13.507,0,0,1-4.986.222c-.963-.067-1.857-.724-2.82-.593a1.733,1.733,0,0,0-1.19.61c-.012,1.59-.051,3.18-.136,4.767-.008.137-.015.275-.022.413a2.359,2.359,0,0,0,.228.161,8.063,8.063,0,0,0,5.031,1.308,12.442,12.442,0,0,0,3.412-.264,1.612,1.612,0,0,0,.351-.172c1.823.425,3.73.693,4.818-1.024,1.082-2.226,1.573-3.569,2.407-5.439.183-.206.359-.42.535-.633a63.161,63.161,0,0,1,3.921-7.255c3.48-5.588,7.716-10.651,11.433-16.076a51.984,51.984,0,0,0,2.843-4.646,27.3,27.3,0,0,0,1.653-3.775C180.068,280.536,179.208,281.37,178.479,282.288Z"/>
    </g>
    <g id="Group_232" data-name="Group 232" opacity="0.129">
      <path id="Path_224" data-name="Path 224" d="M136.34,306.406c-1.257-.594-2.823-.166-4.18-.228-1.158.009-2.32-.045-3.476-.119a32.324,32.324,0,0,1-4.134-1.092c-.087-.042-.174-.081-.257-.128a1.784,1.784,0,0,0-1.8,3.08c3.572,1.829,6.6,1.84,8.443,2.161,1.076.148,2.166.182,3.249.257a3.35,3.35,0,0,0,2.369-.465A2.1,2.1,0,0,0,136.34,306.406Z"/>
    </g>
  </g>
</svg>
