<svg width="24" height="24" viewBox="0 0 24 24" fill="none" xmlns="http://www.w3.org/2000/svg">
<g clip-path="url(#clip0_1077_300)">
<path d="M18 0H6C2.68629 0 0 2.68629 0 6V18C0 21.3137 2.68629 24 6 24H18C21.3137 24 24 21.3137 24 18V6C24 2.68629 21.3137 0 18 0Z" fill="url(#paint0_linear_1077_300)"/>
<g opacity="0.9">
<path d="M8.39953 15.2995C8.28132 15.2996 8.16426 15.2763 8.05503 15.2311C7.9458 15.1859 7.84654 15.1197 7.76293 15.0361L5.36293 12.6361C5.2793 12.5525 5.21295 12.4533 5.16768 12.3441C5.12242 12.2348 5.09912 12.1177 5.09912 11.9995C5.09912 11.8813 5.12242 11.7642 5.16768 11.655C5.21295 11.5457 5.2793 11.4465 5.36293 11.3629L7.76293 8.96291C7.93177 8.79407 8.16076 8.69922 8.39953 8.69922C8.6383 8.69922 8.86729 8.79407 9.03613 8.96291C9.20497 9.13174 9.29982 9.36074 9.29982 9.59951C9.29982 9.83828 9.20497 10.0673 9.03613 10.2361L7.27213 11.9995L9.03613 13.7629C9.16208 13.8888 9.24786 14.0492 9.28262 14.2238C9.31738 14.3985 9.29956 14.5795 9.23141 14.744C9.16325 14.9085 9.04784 15.0491 8.89976 15.148C8.75168 15.2468 8.57759 15.2996 8.39953 15.2995Z" fill="white"/>
</g>
<g opacity="0.9">
<path d="M15.5991 15.2995C15.4211 15.2996 15.247 15.2468 15.0989 15.148C14.9508 15.0491 14.8354 14.9085 14.7673 14.744C14.6991 14.5795 14.6813 14.3985 14.716 14.2238C14.7508 14.0492 14.8366 13.8888 14.9625 13.7629L16.7265 11.9995L14.9625 10.2361C14.8789 10.1525 14.8126 10.0533 14.7674 9.94403C14.7221 9.8348 14.6989 9.71773 14.6989 9.59951C14.6989 9.48128 14.7221 9.36421 14.7674 9.25498C14.8126 9.14575 14.8789 9.04651 14.9625 8.96291C15.1314 8.79407 15.3604 8.69922 15.5991 8.69922C15.7174 8.69922 15.8344 8.72251 15.9437 8.76775C16.0529 8.81299 16.1521 8.87931 16.2357 8.96291L18.6357 11.3629C18.7194 11.4465 18.7857 11.5457 18.831 11.655C18.8762 11.7642 18.8995 11.8813 18.8995 11.9995C18.8995 12.1177 18.8762 12.2348 18.831 12.3441C18.7857 12.4533 18.7194 12.5525 18.6357 12.6361L16.2357 15.0361C16.1521 15.1197 16.0529 15.1859 15.9436 15.2311C15.8344 15.2763 15.7173 15.2996 15.5991 15.2995Z" fill="white"/>
</g>
<g opacity="0.5">
<path d="M10.8003 17.0996C10.7165 17.0994 10.6331 17.0877 10.5525 17.0648C10.323 16.9992 10.1291 16.8451 10.0132 16.6365C9.89727 16.4279 9.86897 16.1818 9.93448 15.9524L12.3345 7.55235C12.3651 7.43663 12.4184 7.32817 12.4914 7.23332C12.5645 7.13847 12.6557 7.05914 12.7597 6.99997C12.8638 6.9408 12.9786 6.90298 13.0974 6.88873C13.2163 6.87447 13.3368 6.88407 13.4519 6.91695C13.5669 6.94984 13.6743 7.00535 13.7677 7.08024C13.8611 7.15513 13.9386 7.24789 13.9957 7.3531C14.0527 7.45831 14.0883 7.57385 14.1002 7.69295C14.112 7.81206 14.1001 7.93234 14.0649 8.04676L11.6649 16.4468C11.6112 16.6347 11.4978 16.8 11.3418 16.9178C11.1858 17.0356 10.9957 17.0994 10.8003 17.0996Z" fill="white"/>
</g>
</g>
<defs>
<linearGradient id="paint0_linear_1077_300" x1="2.7654" y1="2.7654" x2="21.9714" y2="21.9714" gradientUnits="userSpaceOnUse">
<stop stop-color="#9B8DFF"/>
<stop offset="0.252" stop-color="#7D79FD"/>
<stop offset="0.555" stop-color="#5F65FB"/>
<stop offset="0.815" stop-color="#4D58F9"/>
<stop offset="1" stop-color="#4654F9"/>
</linearGradient>
<clipPath id="clip0_1077_300">
<rect width="24" height="24" fill="white"/>
</clipPath>
</defs>
</svg>
