<svg viewBox="0 0 20 20" width="25" height="25" xmlns="http://www.w3.org/2000/svg"> <g id="Group_4941" data-name="Group 4941" transform="translate(-2814 -549)"> <rect id="Rectangle_3369" data-name="Rectangle 3369" width="20" height="20" transform="translate(2814 549)" fill="#fff" opacity="0"></rect> <g id="Group_4940" data-name="Group 4940" transform="translate(46.067 0.293)"> <path id="Path_4284" data-name="Path 4284" d="M-526.508,181.427a.416.416,0,0,0,.483.111.409.409,0,0,0,.258-.422c0-.428,0-.856,0-1.284v-.237h.006v-2.449h-.006c0-.034,0-.107,0-.18,0-.421,0-.843,0-1.264a.419.419,0,0,0-.268-.437.421.421,0,0,0-.481.122q-1.339,1.342-2.681,2.682a.422.422,0,0,0-.007.661Q-527.858,180.081-526.508,181.427Z" transform="translate(3308.156 375.767)" fill="#99b5f1"></path> <path id="Path_4285" data-name="Path 4285" d="M-658.023,390.015a.4.4,0,0,0-.467-.1.4.4,0,0,0-.259.4q0,.652,0,1.3v.187a.017.017,0,0,1,.005.011h0a.02.02,0,0,1,0,.041h0v2.656a.019.019,0,0,1-.007.015c0,.415,0,.83,0,1.245a.409.409,0,0,0,.268.417.407.407,0,0,0,.466-.109q1.356-1.354,2.71-2.71a.408.408,0,0,0,.008-.631Q-656.658,391.374-658.023,390.015Z" transform="translate(3432.263 169.888)" fill="#99b5f1"></path> <path id="Path_4286" data-name="Path 4286" d="M-777.725,222.548c-.483-.14-.99-.2-1.516-.3V224.7c.153.016.281.027.408.046a3.183,3.183,0,0,1,2.688,3.263,3.2,3.2,0,0,1-2.928,3.055,3.178,3.178,0,0,1-3.374-2.57c-.067-.372-.054-.758-.09-1.136a5.59,5.59,0,0,0-6.425-4.985,5.6,5.6,0,0,0-4.7,5.009,5.566,5.566,0,0,0,3.975,5.847c.474.138.972.194,1.486.291v-2.446c-.143-.016-.262-.026-.379-.044a3.182,3.182,0,0,1-2.7-3.271,3.2,3.2,0,0,1,2.934-3.049,3.176,3.176,0,0,1,3.37,2.577c.066.372.052.758.089,1.136a5.6,5.6,0,0,0,6.571,4.957,5.6,5.6,0,0,0,4.565-5.217A5.564,5.564,0,0,0-777.725,222.548Z" transform="translate(3561.677 330.669)" fill="#5088ff"></path> </g> </g> </svg>