<svg xmlns="http://www.w3.org/2000/svg" xmlns:xlink="http://www.w3.org/1999/xlink" width="50" height="50" viewBox="0 0 50 50"><defs><style>.a{fill:#fff;}.b{fill:#005d6d;}.c{clip-path:url(#a);}.d{fill:#14559a;}.e{fill:#3092c4;}.f{fill:#1969bc;}.g{fill:#2b74b1;}.h{fill:#125a9e;}.i{fill:#0d82ca;}.j{fill:#127bca;}.k{fill:#05a1e6;}.l{fill:#079ae1;}.m{fill:#1e5cb3;}.n{fill:#1d60b5;}.o{fill:#175fab;}.p{fill:#7dcbec;}.q{fill:#5ec5ed;}</style><clipPath id="a"><rect class="a" width="33.574" height="32"/></clipPath></defs><g transform="translate(774 -319)"><path class="b" d="M25,0A25,25,0,1,1,0,25,25,25,0,0,1,25,0Z" transform="translate(-774 319)"/><g class="c" transform="translate(-766 328)"><path class="a" d="M20.36,12.157a.15.15,0,0,0-.047-.123.294.294,0,0,0-.181-.043h-.122v.335h.147C20.293,12.325,20.36,12.269,20.36,12.157Zm.19.7h-.167l-.107-.235c-.054-.118-.112-.177-.175-.177h-.09v.413h-.138v-.982h.276a.41.41,0,0,1,.278.082.236.236,0,0,1,.08.185.241.241,0,0,1-.066.172.33.33,0,0,1-.183.1v0c.055.013.109.073.163.181l.129.261Zm.306-.481a.655.655,0,0,0-.2-.485.684.684,0,1,0,0,.973A.655.655,0,0,0,20.856,12.374Zm.093,0a.732.732,0,0,1-.224.545.807.807,0,0,1-1.1.006.785.785,0,0,1,0-1.09.8.8,0,0,1,1.1-.01A.727.727,0,0,1,20.949,12.369Z" transform="translate(7.74 4.631)"/><path class="a" d="M6.692,15.265H6.216V12.543c0-.215.014-.477.039-.786H6.245a2.578,2.578,0,0,1-.121.393L4.741,15.265H4.509L3.124,12.172A2.26,2.26,0,0,1,3,11.757h-.01c.015.163.023.426.023.791v2.717H2.556V11.211h.628l1.244,2.827a3.667,3.667,0,0,1,.184.485h.02c.081-.221.145-.388.194-.5L6.1,11.211h.6v4.054Z" transform="translate(1.02 4.472)"/><path class="a" d="M6.709,15.316H6.246v-2.9h.462Zm.08-3.933a.289.289,0,0,1-.09.215.294.294,0,0,1-.216.088A.3.3,0,0,1,6.27,11.6a.308.308,0,0,1,0-.431.311.311,0,0,1,.429,0A.286.286,0,0,1,6.789,11.383Z" transform="translate(2.466 4.421)"/><path class="a" d="M9.243,14.821a1.488,1.488,0,0,1-.793.2,1.305,1.305,0,0,1-1-.413,1.461,1.461,0,0,1-.373-1.035,1.614,1.614,0,0,1,.409-1.15,1.427,1.427,0,0,1,1.1-.438,1.477,1.477,0,0,1,.67.147v.476a1.175,1.175,0,0,0-.69-.227.927.927,0,0,0-.721.308,1.2,1.2,0,0,0-.292.842,1.148,1.148,0,0,0,.268.8.921.921,0,0,0,.716.294,1.169,1.169,0,0,0,.712-.249Z" transform="translate(2.821 4.782)"/><path class="a" d="M10.635,12.523a.62.62,0,0,0-.829.161,1.27,1.27,0,0,0-.218.789v1.476H9.125v-2.9h.463v.6H9.6a1.017,1.017,0,0,1,.314-.489A.694.694,0,0,1,10.357,12a.752.752,0,0,1,.278.039v.481Z" transform="translate(3.64 4.788)"/><path class="a" d="M12.728,13.512a1.266,1.266,0,0,0-.251-.848.856.856,0,0,0-.682-.28.893.893,0,0,0-.692.283,1.229,1.229,0,0,0-.274.856,1.17,1.17,0,0,0,.262.813.9.9,0,0,0,.7.293.847.847,0,0,0,.7-.3A1.27,1.27,0,0,0,12.728,13.512ZM13.2,13.5a1.561,1.561,0,0,1-.39,1.11,1.371,1.371,0,0,1-1.052.418,1.33,1.33,0,0,1-1.034-.418,1.507,1.507,0,0,1-.373-1.065,1.552,1.552,0,0,1,.424-1.168,1.439,1.439,0,0,1,1.051-.385,1.3,1.3,0,0,1,1.012.4A1.6,1.6,0,0,1,13.2,13.5Z" transform="translate(4.13 4.782)"/><path class="a" d="M14.54,14.18a.753.753,0,0,1-.266.59,1.166,1.166,0,0,1-.794.254,1.42,1.42,0,0,1-.718-.174v-.5a1.165,1.165,0,0,0,.752.277q.55,0,.551-.4a.358.358,0,0,0-.122-.28,1.928,1.928,0,0,0-.475-.266,1.528,1.528,0,0,1-.517-.328.8.8,0,0,1,.1-1.122,1.1,1.1,0,0,1,.735-.24,1.373,1.373,0,0,1,.619.136v.467a1.092,1.092,0,0,0-.657-.206.569.569,0,0,0-.368.113.361.361,0,0,0-.139.292.387.387,0,0,0,.116.3,1.611,1.611,0,0,0,.434.24,1.672,1.672,0,0,1,.535.321A.714.714,0,0,1,14.54,14.18Z" transform="translate(5.091 4.782)"/><path class="a" d="M16.735,13.512a1.263,1.263,0,0,0-.252-.848.854.854,0,0,0-.681-.28.9.9,0,0,0-.693.283,1.231,1.231,0,0,0-.273.856,1.178,1.178,0,0,0,.261.813.9.9,0,0,0,.705.293.846.846,0,0,0,.7-.3A1.27,1.27,0,0,0,16.735,13.512Zm.476-.016a1.56,1.56,0,0,1-.392,1.11,1.367,1.367,0,0,1-1.051.418,1.33,1.33,0,0,1-1.035-.418,1.508,1.508,0,0,1-.373-1.065,1.559,1.559,0,0,1,.424-1.168,1.441,1.441,0,0,1,1.052-.385,1.3,1.3,0,0,1,1.011.4A1.6,1.6,0,0,1,17.211,13.5Z" transform="translate(5.728 4.782)"/><path class="a" d="M18.357,11.47a.621.621,0,0,0-.308-.076c-.325,0-.485.2-.485.614v.446h.678v.393h-.678v2.5H17.1v-2.5h-.492v-.393H17.1v-.469a.96.96,0,0,1,.3-.749A.888.888,0,0,1,18.021,11a.905.905,0,0,1,.336.05Z" transform="translate(6.625 4.388)"/><path class="a" d="M19.647,15.149a.874.874,0,0,1-.436.094q-.758,0-.758-.854V12.676h-.5v-.393h.5v-.706c.148-.047.3-.1.464-.15v.856h.729v.393h-.729V14.31a.661.661,0,0,0,.1.414.4.4,0,0,0,.331.124.491.491,0,0,0,.3-.093Z" transform="translate(7.163 4.558)"/><path class="a" d="M1.729,22.425a.81.81,0,0,1-.245.589.8.8,0,0,1-.593.248.772.772,0,0,1-.578-.248.855.855,0,0,1,0-1.182.774.774,0,0,1,.578-.245.8.8,0,0,1,.593.248A.811.811,0,0,1,1.729,22.425Z" transform="translate(0.03 8.611)"/><path class="a" d="M11.116,25.694H9.6L4.119,17.222a3.884,3.884,0,0,1-.333-.667H3.741a11.041,11.041,0,0,1,.059,1.46v7.68H2.554V15.064H4.171L9.493,23.4c.212.331.357.568.43.711h.03a11.194,11.194,0,0,1-.075-1.563V15.064h1.238v10.63Z" transform="translate(1.019 6.009)"/><path class="a" d="M15.991,25.694H10.357V15.064h5.389v1.126H11.6v3.536h3.84v1.127H11.6v3.714h4.389Z" transform="translate(4.132 6.009)"/><path class="a" d="M22.6,16.191H19.534v9.5H18.289v-9.5H15.221V15.064H22.6Z" transform="translate(6.072 6.009)"/><path class="a" d="M8.373,2.063C9.575,5.739,10.03,12.3,13.545,12.3a4.328,4.328,0,0,0,.809-.078c-3.195-.745-3.574-7.23-5.523-10.589C8.678,1.768,8.526,1.913,8.373,2.063Z" transform="translate(3.34 0.65)"/><path class="a" d="M8.7,1.729c1.95,3.359,2.328,9.844,5.523,10.589a5.085,5.085,0,0,0,.755-.2C12.11,10.709,11.318,4.411,9.1,1.379Q8.9,1.546,8.7,1.729Z" transform="translate(3.471 0.55)"/><path class="d" d="M11.556.2a4.342,4.342,0,0,0-.81.078,6.2,6.2,0,0,0-2.162.9,5.365,5.365,0,0,1,.566.666A7.766,7.766,0,0,1,11.36.507a4.927,4.927,0,0,1,.824-.229A2.539,2.539,0,0,0,11.556.2Z" transform="translate(3.424 0.08)"/><path class="a" d="M16.237,11.287q.44-.35.882-.773C15.9,6.856,15.46.205,11.921.205a4.189,4.189,0,0,0-.763.071C14.381,1.078,14.794,8.092,16.237,11.287Z" transform="translate(4.451 0.082)"/><path class="e" d="M11.337.278A2.542,2.542,0,0,0,10.708.2L12.1.206a4.141,4.141,0,0,0-.763.071" transform="translate(4.272 0.08)"/><path class="f" d="M15.365,8.805a5.237,5.237,0,0,1-.4-.431,7.325,7.325,0,0,1-1.778.949,2.739,2.739,0,0,0,.663.226,2.81,2.81,0,0,0,.565.056,3.7,3.7,0,0,0,1.629-.292A3.1,3.1,0,0,1,15.365,8.805Z" transform="translate(5.261 3.34)"/><path class="a" d="M10.568.485c2.888,1.51,3.139,8.35,5.443,11.127.154-.109.307-.224.46-.346C15.029,8.072,14.616,1.057,11.393.255A4.992,4.992,0,0,0,10.568.485Z" transform="translate(4.216 0.102)"/><path class="a" d="M8.989,1.761C11.2,4.793,12,11.091,14.863,12.5a7.323,7.323,0,0,0,1.778-.949C14.337,8.77,14.086,1.93,11.2.42A7.75,7.75,0,0,0,8.989,1.761Z" transform="translate(3.586 0.168)"/><path class="a" d="M7.682,2.131a33.01,33.01,0,0,0-1.13,3.162A23.52,23.52,0,0,1,9.1,2.219a9.234,9.234,0,0,0-.376-.982A12.692,12.692,0,0,0,7.682,2.131Z" transform="translate(2.614 0.494)"/><path class="g" d="M8.412,1.076c-.1.073-.2.148-.307.226a9.248,9.248,0,0,1,.375.982c.153-.15.306-.3.458-.434A6.081,6.081,0,0,0,8.412,1.076Z" transform="translate(3.233 0.429)"/><path class="h" d="M8.688.9c-.121.077-.242.158-.364.242a6.11,6.11,0,0,1,.527.774c.135-.122.269-.239.4-.35A5.366,5.366,0,0,0,8.688.9Z" transform="translate(3.32 0.36)"/><path class="a" d="M25.117,0c-1.633,6.3-5.044,11.357-7.9,12.633h-.005c-.052.024-.1.045-.154.066a.142.142,0,0,1-.019.007l-.044.017a.114.114,0,0,1-.02.008c-.024.009-.048.016-.071.025l-.03.01-.035.012-.034.012c-.01,0-.021.006-.031.01l-.061.018a.118.118,0,0,0-.026.007l-.041.011a.128.128,0,0,1-.028.008l-.045.012-.055.012a1.165,1.165,0,0,0,.409.072c2.712,0,5.446-4.86,9.97-12.941H25.117Z" transform="translate(6.587)"/><path class="a" d="M8.54.458s0,0,0,0a.006.006,0,0,0,.006,0h0L8.6.432a.008.008,0,0,0,.009,0s.008,0,.011,0L8.666.407h0C8.7.4,8.738.382,8.773.37c0,0,.01,0,.016,0s.03-.01.045-.013a.088.088,0,0,1,.02-.006L8.9.333c.006,0,.012,0,.017,0L9.065.289c.007,0,.013,0,.02,0A.285.285,0,0,1,9.128.276.075.075,0,0,1,9.15.27c.014,0,.028,0,.044-.008H9.2L9.295.245h.018A.381.381,0,0,1,9.355.237c.008,0,.016,0,.024,0a.308.308,0,0,0,.04-.006.043.043,0,0,0,.022,0c.032,0,.064-.006.1-.009C9.444.205,9.348.2,9.25.2,6.2.2,1.988,5.866.093,13.2H.458c.607-1.082,1.152-2.105,1.65-3.066C3.435,4.941,6.139,1.4,8.541.457" transform="translate(0.037 0.079)"/><path class="i" d="M7.36,2.267A12.685,12.685,0,0,1,8.4,1.374,4.914,4.914,0,0,0,8.153.9,5.868,5.868,0,0,0,7.36,2.267Z" transform="translate(2.936 0.357)"/><path class="i" d="M7.551.42a2.605,2.605,0,0,1,.542.673c.051-.063.1-.122.158-.176A3.062,3.062,0,0,0,7.512.4l.033.015s0,0,.006,0" transform="translate(2.997 0.16)"/><path class="a" d="M1.533,10.065C4.318,4.7,5.637,1.3,7.966.384,5.565,1.324,2.86,4.868,1.533,10.065Z" transform="translate(0.612 0.153)"/><path class="j" d="M8.084.77c-.054.055-.106.113-.158.176a4.983,4.983,0,0,1,.248.479c.1-.079.205-.153.307-.226A4.182,4.182,0,0,0,8.084.77Z" transform="translate(3.162 0.307)"/><path class="a" d="M2.5,11.61a.374.374,0,0,1-.05.006H2.44c-.015,0-.03,0-.043,0H2.39c-.035,0-.069,0-.1.007H2.277A4.579,4.579,0,0,0,7.023,8.091c.486-1.552.885-2.859,1.235-3.956A56.04,56.04,0,0,0,4.7,10a2.919,2.919,0,0,1-2.2,1.612" transform="translate(0.908 1.65)"/><path class="a" d="M2.437,12.511a2.918,2.918,0,0,0,2.2-1.612A56.285,56.285,0,0,1,8.194,5.038,32.934,32.934,0,0,1,9.324,1.875C6.973,4.113,4.614,7.834,2.437,12.51" transform="translate(0.972 0.748)"/><path class="k" d="M2,7.3C1.505,8.265.96,9.289.354,10.37H1.416A25.971,25.971,0,0,1,2,7.305" transform="translate(0.141 2.914)"/><path class="a" d="M9.033.219c-.009,0-.015,0-.023,0a.184.184,0,0,1-.04.006.047.047,0,0,0-.024,0A.409.409,0,0,1,8.9.241a.027.027,0,0,0-.018,0L8.8.261h-.01a.357.357,0,0,1-.044.009A.075.075,0,0,1,8.72.275a.409.409,0,0,1-.043.009.041.041,0,0,1-.02,0L8.507.327c-.005,0-.011,0-.017.005L8.445.346a.062.062,0,0,1-.02.006L8.38.365c-.006,0-.011,0-.016,0-.034.013-.068.026-.1.036L8.213.422a.1.1,0,0,1-.02.008L8.15.446a.074.074,0,0,1-.014.007C5.806,1.373,4.487,4.769,1.7,10.135A25.856,25.856,0,0,0,1.115,13.2h.149c.42,0,.538,0,1.022,0h.468c.033,0,.068,0,.1-.007h.006c.015,0,.029,0,.043,0h.01c.016,0,.033,0,.05-.006C5.143,8.5,7.5,4.782,9.854,2.544a5.888,5.888,0,0,1,.792-1.371A2.6,2.6,0,0,0,10.105.5S10.1.5,10.1.5L10.066.479,10.033.462,10,.447A.3.3,0,0,1,9.964.431L9.934.418,9.872.393,9.846.383,9.8.364A.157.157,0,0,0,9.775.356L9.712.334H9.706C9.682.326,9.657.32,9.632.313A.031.031,0,0,0,9.616.308L9.553.29c-.005,0-.01,0-.014,0-.05-.013-.1-.024-.155-.034-.005,0-.011,0-.016,0C9.345.244,9.323.24,9.3.237a.018.018,0,0,0-.013,0L9.208.223H9.194c-.021,0-.041,0-.061-.007s-.066.006-.1.009" transform="translate(0.445 0.086)"/><path class="a" d="M18.488,3.408c-.536,1.716-.97,3.132-1.347,4.3A46.657,46.657,0,0,0,21.438.2,4.417,4.417,0,0,0,18.488,3.408Z" transform="translate(6.837 0.08)"/><path class="a" d="M17.238,12.526c-.075.038-.15.075-.224.107C19.873,11.358,23.285,6.3,24.918,0h-.331C20.835,6.7,19.628,11.191,17.238,12.526Z" transform="translate(6.787 0)"/><path class="l" d="M16.007,9.744a13.8,13.8,0,0,0,1.821-4.178,20.915,20.915,0,0,1-2.406,2.807s0,0,0,.007a7.33,7.33,0,0,0,.587,1.364" transform="translate(6.15 2.22)"/><path class="f" d="M16.082,8.552a2.548,2.548,0,0,1-.685.6c-.055.032-.11.062-.166.089a2.41,2.41,0,0,0,.873.275l.143.012h.009a.382.382,0,0,1,.069,0h.233a.057.057,0,0,0,.026,0,.213.213,0,0,0,.051,0h.025c.018,0,.037,0,.056-.006h0c.006,0,.012,0,.017,0s.04-.006.06-.009h.017L16.88,9.5h.011c.045-.009.089-.017.134-.028a1.943,1.943,0,0,1-.944-.907" transform="translate(6.075 3.412)"/><path class="m" d="M12.07,9.334a4.285,4.285,0,0,0,.809-.078,5.012,5.012,0,0,0,.755-.2,2.742,2.742,0,0,0,.662.226,2.814,2.814,0,0,0,.565.056Z" transform="translate(4.815 3.611)"/><path class="m" d="M14.066,9.337A3.7,3.7,0,0,0,15.7,9.045a2.41,2.41,0,0,0,.873.275l.143.012h.009a.384.384,0,0,1,.069,0H14.066Z" transform="translate(5.61 3.608)"/><path class="n" d="M16.07,9.275h.153a.056.056,0,0,0,.026,0,.22.22,0,0,0,.052,0h.025c.018,0,.037,0,.055-.006h0c.006,0,.011,0,.017,0s.04-.006.06-.009a.03.03,0,0,0,.018,0l.067-.011h.011c.045-.009.089-.017.133-.028a1.165,1.165,0,0,0,.409.072l-1.031,0Z" transform="translate(6.41 3.671)"/><path class="o" d="M15.8,7.578v0q-.442.422-.882.773c-.153.122-.306.237-.461.346a5.24,5.24,0,0,0,.4.431,3.091,3.091,0,0,0,.68.508c.056-.027.111-.057.166-.089a2.541,2.541,0,0,0,.686-.6A7.331,7.331,0,0,1,15.8,7.578" transform="translate(5.768 3.021)"/><path class="a" d="M24.008,0H22.342c-.09,0-.178.007-.264.013C22.037.1,22,.189,21.956.277a46.656,46.656,0,0,1-4.3,7.505,13.789,13.789,0,0,1-1.821,4.178,1.947,1.947,0,0,0,.943.908.169.169,0,0,1,.029-.006h.006c.006,0,.013,0,.02,0l.046-.012a.232.232,0,0,1,.027-.008l.041-.011a.1.1,0,0,1,.026-.007l.061-.018a.178.178,0,0,1,.031-.01c.012,0,.024-.007.034-.012s.025-.006.035-.011l.029-.011.072-.025c.006,0,.013-.006.02-.007l.044-.017a.055.055,0,0,1,.019-.007c.051-.021.1-.042.155-.066h.005c.074-.033.149-.069.224-.107C20.1,11.191,21.3,6.7,25.055,0H24.008Z" transform="translate(6.318 0)"/><path class="p" d="M6.845.212a.026.026,0,0,1,.017,0,.138.138,0,0,1,.043,0H6.92L7,.232a.016.016,0,0,1,.013,0L7.08.247s.011,0,.017,0c.051.01.1.021.154.034,0,0,.01,0,.014,0l.062.018c.006,0,.011,0,.017.005.025.006.049.013.073.021,0,0,0,0,.005,0L7.487.36a.122.122,0,0,0,.025.008l.046.019A.094.094,0,0,1,7.584.4l.061.026.03.013A.265.265,0,0,0,7.713.45l.033.015.033.017A3.077,3.077,0,0,1,8.516,1,2.4,2.4,0,0,1,8.778.761,2.881,2.881,0,0,0,7.071.209c-.075,0-.15,0-.226.01" transform="translate(2.73 0.083)"/><path class="q" d="M8.039.837a4.182,4.182,0,0,1,.4.429c.122-.085.242-.166.364-.242A3.837,3.837,0,0,0,8.3.6,2.342,2.342,0,0,0,8.039.837Z" transform="translate(3.207 0.239)"/><path class="a" d="M6.927.216C7,.209,7.078.207,7.153.207A2.885,2.885,0,0,1,8.86.759,3.089,3.089,0,0,1,10.9.2H6.638C6.736.2,6.832.207,6.927.216Z" transform="translate(2.648 0.08)"/><path class="a" d="M10.262.2A3.089,3.089,0,0,0,8.226.758a3.867,3.867,0,0,1,.5.424,6.206,6.206,0,0,1,2.163-.9A4.389,4.389,0,0,1,11.7.2Z" transform="translate(3.282 0.08)"/><path class="a" d="M17.826,7.782c.378-1.166.811-2.581,1.348-4.3A4.415,4.415,0,0,1,22.123.276c.043-.086.083-.175.124-.263a4.482,4.482,0,0,0-4.465,3.466C16.7,6.928,16.05,9.163,15.421,10.588A20.976,20.976,0,0,0,17.826,7.782Z" transform="translate(6.152 0.005)"/><path class="a" d="M20.095,8.629h-.3v.924h-.121V8.629h-.3v-.11h.717Z" transform="translate(7.73 1.999)"/><path class="a" d="M21.06,9.552H20.94V8.858c0-.055,0-.122.01-.2a.714.714,0,0,1-.032.1l-.352.794h-.059l-.353-.788a.571.571,0,0,1-.032-.107h0c0,.042.006.109.006.2v.692h-.116V8.519h.16l.317.721a.941.941,0,0,1,.047.124h0c.021-.057.038-.1.05-.127l.323-.718h.152V9.552Z" transform="translate(7.981 3.398)"/></g></g></svg>