<svg width="24" height="23" viewBox="0 0 24 23" fill="none" xmlns="http://www.w3.org/2000/svg">
<g clip-path="url(#clip0_1078_649)">
<path d="M20.0876 12.0007C20.0876 11.9604 20.0765 11.9316 20.0538 11.9128C20.0287 11.8926 19.9852 11.8818 19.9246 11.8818H19.8376V12.1211H19.9426C20.0396 12.1211 20.0876 12.0808 20.0876 12.0007ZM20.2233 12.4995H20.1037L20.0274 12.3312C19.9886 12.2468 19.9472 12.2046 19.902 12.2046H19.8376V12.4995H19.739V11.7978H19.9365C20.0243 11.7978 20.0902 11.8168 20.1355 11.8565C20.1738 11.8906 20.193 11.9343 20.193 11.9888C20.193 12.0371 20.1774 12.0777 20.1458 12.1115C20.1152 12.1456 20.0711 12.1686 20.0147 12.1805V12.1835C20.0538 12.1927 20.0929 12.2357 20.1309 12.3131L20.2233 12.4999V12.4995ZM20.4418 12.1556C20.4418 12.0175 20.3947 11.901 20.3007 11.8086C20.2064 11.7162 20.0914 11.6698 19.9557 11.6698C19.8157 11.6698 19.6992 11.7162 19.6068 11.8094C19.5144 11.9029 19.4684 12.0187 19.4684 12.1556C19.4684 12.2955 19.5163 12.4124 19.6114 12.5056C19.7053 12.5988 19.8203 12.6448 19.9557 12.6448C20.0902 12.6448 20.2052 12.5984 20.3 12.5041C20.3947 12.4113 20.4418 12.2947 20.4418 12.1556ZM20.5081 12.1525C20.5081 12.3074 20.4549 12.4374 20.3479 12.5421C20.2409 12.6475 20.1098 12.7 19.953 12.7C19.795 12.7 19.6639 12.6483 19.5596 12.5467C19.4553 12.4435 19.4036 12.3139 19.4036 12.1568C19.4036 12.003 19.4565 11.8738 19.5623 11.7676C19.6681 11.6618 19.8 11.6089 19.9576 11.6089C20.1121 11.6089 20.2417 11.6595 20.3467 11.7603C20.4545 11.8638 20.5081 11.9942 20.5081 12.1525Z" fill="black"/>
<path d="M5.51228 14.1091H5.17222V12.1629C5.17222 12.0092 5.18234 11.8221 5.20044 11.6012H5.19277C5.16093 11.7304 5.13179 11.824 5.10612 11.8819L4.11771 14.1091H3.95208L2.96173 11.898C2.93382 11.8363 2.90462 11.7369 2.87508 11.6012H2.86772C2.87815 11.7174 2.88398 11.9057 2.88398 12.1667V14.1091H2.55615V11.2109H3.00473L3.89386 13.2318C3.96094 13.3841 4.00428 13.4999 4.02535 13.5788H4.03946C4.09734 13.4205 4.14335 13.3016 4.17826 13.2234L5.08652 11.2109H5.5121V14.1091H5.51228Z" fill="black"/>
<path d="M6.55839 14.109H6.22793V12.0394H6.55839V14.109ZM6.61553 11.2975C6.61553 11.3585 6.59406 11.4095 6.55148 11.4513C6.50971 11.4931 6.45797 11.5142 6.39736 11.5142C6.33832 11.5142 6.28694 11.4939 6.24479 11.4536C6.20262 11.4129 6.18188 11.3612 6.18188 11.2975C6.18188 11.2377 6.20274 11.1867 6.24479 11.1453C6.28694 11.1039 6.33832 11.084 6.39736 11.084C6.45794 11.084 6.50971 11.1039 6.55148 11.1453C6.59406 11.1867 6.61553 11.2377 6.61553 11.2975Z" fill="black"/>
<path d="M8.62364 14.0131C8.46491 14.1105 8.27551 14.1588 8.05657 14.1588C7.75985 14.1588 7.52097 14.0603 7.33847 13.8636C7.16134 13.6727 7.07202 13.4262 7.07202 13.124C7.07202 12.7851 7.16901 12.5106 7.36454 12.302C7.55894 12.0931 7.82043 11.9888 8.14939 11.9888C8.32919 11.9888 8.48868 12.024 8.62824 12.0938V12.4339C8.47374 12.3254 8.31041 12.2717 8.13518 12.2717C7.92431 12.2717 7.75295 12.3453 7.61989 12.4922C7.48146 12.6425 7.41132 12.8434 7.41132 13.0941C7.41132 13.3349 7.47536 13.5255 7.60265 13.6662C7.73031 13.8061 7.90017 13.8763 8.11448 13.8763C8.29544 13.8763 8.46491 13.8168 8.62364 13.6984V14.0131Z" fill="black"/>
<path d="M10.2045 12.3748C10.1462 12.33 10.0623 12.3081 9.95147 12.3081C9.81691 12.3081 9.70379 12.3683 9.61217 12.4898C9.50825 12.6256 9.4565 12.8134 9.4565 13.0535V14.1086H9.12524V12.039H9.4565V12.4657H9.46448C9.51319 12.3146 9.58834 12.1985 9.68879 12.116C9.78271 12.0409 9.88892 12.0029 10.0058 12.0029C10.094 12.0029 10.1596 12.0124 10.2044 12.0311V12.3747L10.2045 12.3748Z" fill="black"/>
<path d="M12.0508 13.0777C12.0508 12.8128 11.991 12.6103 11.8714 12.4715C11.7552 12.3381 11.593 12.2714 11.3841 12.2714C11.1782 12.2714 11.013 12.3389 10.8895 12.4738C10.7588 12.618 10.6936 12.8216 10.6936 13.0857C10.6936 13.3334 10.7557 13.5278 10.8811 13.6666C11.0057 13.8061 11.1736 13.8759 11.3841 13.8759C11.6019 13.8759 11.7686 13.805 11.8829 13.6639C11.9948 13.5259 12.0508 13.3307 12.0508 13.0777ZM12.3905 13.066C12.3905 13.3957 12.2974 13.6607 12.1118 13.8593C11.9255 14.0587 11.6747 14.1584 11.3596 14.1584C11.049 14.1584 10.8017 14.0587 10.6204 13.8593C10.4428 13.6672 10.3535 13.4134 10.3535 13.0979C10.3535 12.7378 10.4543 12.4602 10.6568 12.2632C10.8439 12.0803 11.0942 11.9883 11.4079 11.9883C11.7165 11.9883 11.9577 12.0845 12.1313 12.2751C12.3035 12.4668 12.3905 12.7306 12.3905 13.066Z" fill="black"/>
<path d="M14.0333 13.5554C14.0333 13.7248 13.9701 13.8651 13.8432 13.9771C13.7048 14.0983 13.5146 14.1588 13.2754 14.1588C13.0794 14.1588 12.9077 14.1178 12.762 14.0342V13.678C12.9242 13.8099 13.1032 13.8763 13.2999 13.8763C13.5621 13.8763 13.6936 13.7797 13.6936 13.5872C13.6936 13.5063 13.6648 13.4392 13.6066 13.3874C13.5483 13.3345 13.4352 13.2713 13.2669 13.1973C13.0936 13.1213 12.9702 13.0435 12.8973 12.9626C12.8099 12.8668 12.7658 12.7422 12.7658 12.5888C12.7658 12.417 12.8344 12.274 12.9702 12.1602C13.1063 12.0459 13.2811 11.9888 13.4958 11.9888C13.6603 11.9888 13.8075 12.021 13.9382 12.0858V12.4193C13.8018 12.3208 13.6457 12.2717 13.4686 12.2717C13.3589 12.2717 13.2708 12.299 13.2052 12.3522C13.1389 12.4067 13.1055 12.4761 13.1055 12.5608C13.1055 12.6525 13.1334 12.7238 13.1887 12.7747C13.2378 12.8219 13.3421 12.8794 13.4993 12.9465C13.676 13.0205 13.8037 13.0972 13.8815 13.1758C13.9823 13.2751 14.0333 13.4016 14.0333 13.5554Z" fill="black"/>
<path d="M16.0577 13.0777C16.0577 12.8128 15.9979 12.6103 15.8779 12.4715C15.7621 12.3381 15.5995 12.2714 15.3909 12.2714C15.185 12.2714 15.0198 12.3389 14.8956 12.4738C14.7652 12.618 14.7004 12.8216 14.7004 13.0857C14.7004 13.3334 14.7625 13.5278 14.8867 13.6666C15.0129 13.8061 15.1808 13.8759 15.3909 13.8759C15.6091 13.8759 15.7755 13.805 15.8897 13.6639C16.0017 13.5259 16.0577 13.3307 16.0577 13.0777ZM16.3981 13.066C16.3981 13.3957 16.3042 13.6607 16.1182 13.8593C15.9327 14.0587 15.6819 14.1584 15.3668 14.1584C15.0558 14.1584 14.8085 14.0587 14.6272 13.8593C14.4497 13.6672 14.3604 13.4134 14.3604 13.0979C14.3604 12.7378 14.4619 12.4602 14.6632 12.2632C14.8503 12.0803 15.1011 11.9883 15.4151 11.9883C15.7237 11.9883 15.9645 12.0845 16.1378 12.2751C16.3103 12.4668 16.3981 12.7306 16.3981 13.066Z" fill="black"/>
<path d="M17.8581 11.3361C17.7929 11.3 17.7205 11.2816 17.638 11.2816C17.406 11.2816 17.291 11.4277 17.291 11.7202V12.0392H17.776V12.3199H17.291V14.1088H16.9594V12.3199H16.6074V12.0392H16.9594V11.7038C16.9594 11.476 17.0292 11.2973 17.171 11.1685C17.2926 11.0566 17.4413 11.001 17.6181 11.001C17.7205 11.001 17.8002 11.0132 17.8581 11.037V11.3361Z" fill="black"/>
<path d="M19.1654 14.0879C19.0872 14.1328 18.9829 14.1551 18.854 14.1551C18.4929 14.1551 18.3123 13.9515 18.3123 13.5443V12.3201H17.9573V12.039H18.3123V11.5341C18.4181 11.5007 18.5281 11.4643 18.6443 11.4268V12.039H19.1654V12.3201H18.6443V13.4879C18.6443 13.6267 18.667 13.726 18.7145 13.7835C18.7624 13.843 18.8406 13.8721 18.9511 13.8721C19.0335 13.8721 19.1048 13.85 19.1654 13.8054V14.0879Z" fill="black"/>
<path d="M1.25758 22.1863C1.25758 22.3484 1.1997 22.4888 1.08275 22.6073C0.96619 22.7253 0.8247 22.7848 0.658701 22.7848C0.496506 22.7848 0.358481 22.7253 0.245392 22.6073C0.132273 22.4888 0.0759277 22.3484 0.0759277 22.1863C0.0759277 22.0195 0.132273 21.8788 0.245392 21.7622C0.358481 21.6453 0.496506 21.5874 0.658701 21.5874C0.8247 21.5874 0.96619 21.6461 1.08275 21.7645C1.1997 21.883 1.25758 22.0237 1.25758 22.1863Z" fill="black"/>
<path d="M8.67485 22.6631H7.59442L3.6726 16.6065C3.58095 16.4608 3.50197 16.3025 3.43489 16.1295H3.40266C3.43057 16.2917 3.44486 16.6398 3.44486 17.1732V22.6631H2.5542V15.0645H3.71018L7.51468 21.0256C7.66614 21.2622 7.76962 21.4316 7.82217 21.5336H7.84333C7.80805 21.3151 7.78968 20.9424 7.78968 20.4164V15.0645H8.67495V22.6631H8.67485Z" fill="black"/>
<path d="M14.3847 22.6631H10.3574V15.0645H14.2099V15.8696H11.2473V18.3974H13.9925V19.2029H11.2473V21.8576H14.3847V22.6631Z" fill="black"/>
<path d="M20.4933 15.8695H18.3045V22.663H17.4143V15.8695H15.2212V15.064H20.4933V15.8695Z" fill="black"/>
<path d="M8.3728 1.93949C9.232 4.56694 9.55751 9.25406 12.07 9.25406C12.2613 9.25406 12.4545 9.23535 12.6485 9.19845C10.3646 8.66592 10.0939 4.02978 8.70023 1.62891C8.59095 1.72822 8.48245 1.83174 8.3728 1.93949Z" fill="url(#paint0_linear_1078_649)"/>
<path d="M8.7002 1.62889C10.0939 4.02976 10.3645 8.6659 12.6485 9.19843C12.8279 9.16546 13.0077 9.11562 13.1879 9.05274C11.1379 8.04823 10.5712 3.5463 8.98851 1.37891C8.89266 1.45868 8.79643 1.54227 8.7002 1.62889Z" fill="url(#paint1_linear_1078_649)"/>
<path d="M10.7082 0.201172C10.5172 0.201172 10.3236 0.219878 10.1292 0.256782C9.62083 0.35263 9.1044 0.571539 8.58374 0.9028C8.72597 1.04312 8.8613 1.20376 8.98859 1.37899C9.51808 0.939605 10.0441 0.614876 10.5682 0.419709C10.7649 0.346866 10.9608 0.292053 11.1575 0.256015C11.0157 0.219939 10.8661 0.201172 10.7082 0.201172Z" fill="#14559A"/>
<path d="M14.7883 8.12695C14.998 7.96019 15.2081 7.77576 15.4186 7.57449C14.5456 4.95928 14.2331 0.205078 11.7031 0.205078C11.5221 0.205078 11.3396 0.221946 11.1575 0.255683C13.4621 0.828888 13.7573 5.84304 14.7883 8.12695Z" fill="url(#paint2_linear_1078_649)"/>
<path d="M11.1576 0.255977C11.0157 0.219939 10.8662 0.201172 10.7083 0.201172L11.7032 0.204817C11.5222 0.204817 11.3397 0.221686 11.1576 0.255825" fill="#3092C4"/>
<path d="M14.7442 8.68228C14.6453 8.58796 14.5514 8.48445 14.459 8.37402C14.0334 8.67538 13.6093 8.90388 13.188 9.05265C13.3379 9.12589 13.4951 9.18034 13.6619 9.21408C13.7911 9.24045 13.9249 9.25395 14.0656 9.25395C14.5383 9.25395 14.9121 9.19797 15.2304 9.04538C15.0552 8.95066 14.8945 8.82797 14.7442 8.68228Z" fill="#1969BC"/>
<path d="M10.5681 0.41987C12.6324 1.49953 12.8118 6.38869 14.4589 8.37396C14.5693 8.29614 14.6786 8.2137 14.7879 8.12664C13.7569 5.84272 13.462 0.828174 11.1578 0.255371C10.9611 0.292176 10.7648 0.346655 10.5681 0.41987Z" fill="url(#paint3_linear_1078_649)"/>
<path d="M8.98853 1.3788C10.5712 3.54619 11.1379 8.04812 13.1879 9.05263C13.6093 8.90387 14.0333 8.67536 14.4589 8.37401C12.8118 6.38874 12.6324 1.49958 10.5681 0.419922C10.044 0.614686 9.51801 0.939416 8.98853 1.3788Z" fill="url(#paint4_linear_1078_649)"/>
<path d="M7.36008 1.87617C7.11202 2.43711 6.85859 3.17437 6.55225 4.13672C7.16147 3.27826 7.76879 2.53869 8.37265 1.93945C8.28945 1.68371 8.20012 1.44792 8.10388 1.23779C7.85697 1.42682 7.60814 1.63963 7.36008 1.87617Z" fill="url(#paint5_linear_1078_649)"/>
<path d="M8.32392 1.07617C8.25107 1.12831 8.17786 1.18162 8.10425 1.23797C8.20047 1.44807 8.28941 1.68388 8.37263 1.93959C8.48226 1.83224 8.59114 1.72835 8.70003 1.62904C8.5831 1.42813 8.45888 1.24256 8.32392 1.07617Z" fill="#2B74B1"/>
<path d="M8.58392 0.902832C8.49727 0.957675 8.41102 1.01555 8.32397 1.07613C8.45893 1.24252 8.58315 1.42809 8.70048 1.62939C8.79672 1.54235 8.89294 1.45839 8.9888 1.37902C8.86151 1.20382 8.72618 1.04316 8.58392 0.902832Z" fill="#125A9E"/>
<path d="M22.6637 0.0010557C21.4962 4.50335 19.0577 8.11961 17.0134 9.03134H17.0096C16.9724 9.04821 16.9356 9.06355 16.8992 9.07849C16.8941 9.08152 16.8896 9.0819 16.8857 9.08373C16.875 9.08806 16.865 9.0914 16.8543 9.09569C16.8493 9.09873 16.8447 9.09971 16.8401 9.10154C16.8229 9.10769 16.806 9.11289 16.7891 9.11963C16.7818 9.12267 16.7749 9.12457 16.768 9.127C16.7603 9.13004 16.7515 9.13285 16.7427 9.13529C16.735 9.13833 16.727 9.14053 16.7182 9.14387C16.7109 9.14691 16.7032 9.1482 16.6963 9.15124C16.6814 9.15557 16.6676 9.15921 16.6526 9.16442C16.6465 9.16442 16.6407 9.16776 16.6342 9.16936C16.625 9.1724 16.6146 9.1746 16.6047 9.17733C16.5978 9.18037 16.592 9.18136 16.5847 9.18288C16.5744 9.18592 16.5629 9.18873 16.5525 9.19116C16.5387 9.1942 16.5265 9.19701 16.5134 9.19975C16.6058 9.23389 16.7021 9.25113 16.806 9.25113C18.7445 9.25113 20.699 5.77713 23.933 0H22.6632L22.6637 0.0010557Z" fill="url(#paint6_linear_1078_649)"/>
<path d="M6.13138 0.383852C6.1326 0.383852 6.13412 0.380814 6.13488 0.380814C6.1364 0.380814 6.13875 0.380814 6.13951 0.377776H6.14194C6.15267 0.37413 6.16264 0.369801 6.17338 0.365814C6.17611 0.365814 6.17755 0.365814 6.17953 0.362776C6.18226 0.362776 6.18492 0.359738 6.18759 0.359358C6.1991 0.355712 6.2106 0.351383 6.22134 0.347396H6.22316C6.24886 0.339733 6.27262 0.330224 6.29754 0.32133C6.30103 0.32133 6.30445 0.318292 6.30864 0.318292C6.31901 0.31495 6.32975 0.311229 6.34046 0.308783C6.34548 0.305745 6.35044 0.305745 6.35503 0.30415C6.36613 0.300809 6.3769 0.297087 6.38724 0.294642C6.39187 0.294642 6.39607 0.291604 6.39951 0.2913C6.43517 0.281487 6.47044 0.272282 6.50609 0.263692C6.51111 0.263692 6.5153 0.260654 6.52066 0.26035C6.531 0.257312 6.54061 0.255717 6.55172 0.254198C6.55635 0.251161 6.56169 0.251161 6.56706 0.249566C6.5774 0.246528 6.58736 0.246224 6.59849 0.243717H6.60579C6.62726 0.239388 6.64911 0.235743 6.67059 0.231755H6.68362C6.69395 0.228717 6.70316 0.228414 6.71353 0.226515C6.71922 0.226515 6.72503 0.223477 6.7304 0.223477C6.73997 0.223477 6.74957 0.220439 6.75913 0.219148C6.76415 0.219148 6.7691 0.219148 6.77487 0.21611C6.79747 0.213072 6.82087 0.211857 6.84465 0.209958C6.77755 0.203502 6.70854 0.199219 6.63838 0.199219C4.45528 0.199219 1.44748 4.24986 0.0925293 9.49559H0.353627C0.787256 8.72228 1.17679 7.99074 1.53298 7.30405C2.4819 3.5885 4.41464 1.05458 6.13152 0.383252" fill="url(#paint7_linear_1078_649)"/>
<path d="M7.36011 1.87625C7.60818 1.63971 7.857 1.4269 8.10391 1.2379C8.04756 1.11445 7.98929 1.00019 7.92677 0.895508C7.72703 1.13782 7.54454 1.45758 7.36011 1.87625Z" fill="#0D82CA"/>
<path d="M7.53957 0.414563C7.6822 0.534183 7.80985 0.698674 7.92681 0.895748C7.96361 0.850505 8.00082 0.808702 8.03953 0.769596C7.87736 0.61816 7.70213 0.493937 7.51196 0.400391C7.51963 0.404644 7.5273 0.408062 7.53527 0.411434C7.53527 0.411434 7.53831 0.414472 7.5396 0.414472" fill="#0D82CA"/>
<path d="M1.53296 7.30462C3.52359 3.46865 4.46676 1.04094 6.1315 0.383789C4.415 1.05554 2.48188 3.58944 1.53296 7.30462Z" fill="url(#paint8_linear_1078_649)"/>
<path d="M8.03947 0.769531C8.00077 0.80904 7.96397 0.850448 7.92676 0.895691C7.98926 1.00034 8.04752 1.11423 8.10429 1.23806C8.1779 1.18171 8.25111 1.1284 8.32397 1.07626C8.23388 0.96507 8.13879 0.861946 8.03947 0.769531Z" fill="#127BCA"/>
<path d="M2.43661 9.47873C2.42434 9.48177 2.41207 9.48177 2.40057 9.48306H2.39367C2.3833 9.48306 2.37257 9.4861 2.363 9.4861H2.358C2.33309 9.48914 2.30854 9.48914 2.28477 9.49104H2.2771C4.29189 9.43466 5.21282 8.42591 5.66984 6.96284C6.0172 5.85367 6.30246 4.9193 6.55244 4.13525C5.70856 5.32304 4.86085 6.73893 4.00855 8.32508C3.59754 9.08959 2.97259 9.40895 2.4366 9.47723" fill="url(#paint9_linear_1078_649)"/>
<path d="M2.43652 9.47801C2.97252 9.40973 3.59747 9.09075 4.00848 8.32587C4.86078 6.74011 5.70887 5.32383 6.55198 4.13604C6.8587 3.1733 7.11175 2.43643 7.36019 1.87549C5.67974 3.47505 3.99276 6.13474 2.43652 9.47724" fill="url(#paint10_linear_1078_649)"/>
<path d="M1.53286 7.30469C1.1767 7.99138 0.787161 8.72291 0.353516 9.49622H1.11305C1.21351 8.72824 1.35613 7.99595 1.53286 7.30505" fill="#05A1E6"/>
<path d="M6.77479 0.218182C6.76863 0.218182 6.76405 0.22122 6.75868 0.22122C6.74948 0.224258 6.73988 0.224258 6.73031 0.225246C6.72461 0.225246 6.71921 0.225246 6.71344 0.228284C6.70307 0.231322 6.6935 0.231625 6.68353 0.233524C6.6789 0.233524 6.67434 0.233524 6.6705 0.236562C6.64863 0.240208 6.62717 0.244233 6.6057 0.247909H6.59841C6.5873 0.250947 6.57731 0.252542 6.56697 0.254061C6.56158 0.257099 6.55623 0.257099 6.55124 0.258314C6.5409 0.261352 6.53053 0.262643 6.52057 0.264466C6.51518 0.267504 6.511 0.267504 6.50599 0.267808C6.47034 0.276398 6.43506 0.285603 6.39941 0.295415C6.39561 0.295415 6.39174 0.298453 6.38714 0.299061C6.37641 0.302099 6.36604 0.305213 6.35494 0.30857C6.3503 0.311608 6.34496 0.311608 6.34036 0.312823C6.32963 0.315861 6.31889 0.318975 6.30854 0.322332C6.30436 0.322332 6.30088 0.32537 6.29704 0.32537C6.2725 0.334567 6.24835 0.343772 6.22304 0.351443C6.21231 0.354785 6.20081 0.359106 6.18931 0.363094C6.18467 0.366132 6.18047 0.366815 6.17513 0.368942C6.1644 0.372284 6.15366 0.376613 6.14369 0.3806C6.13989 0.383638 6.13603 0.383942 6.13336 0.385537C4.46862 1.04269 3.52545 3.4704 1.53482 7.30637C1.35807 7.99727 1.21506 8.72956 1.11499 9.49751H1.22158C1.52178 9.49751 1.60651 9.49447 1.95196 9.49447H1.9696H2.02097H2.03861H2.04361H2.06124H2.07121H2.07811H2.09192H2.13486H2.1778H2.21384H2.22341H2.28667C2.31044 9.49143 2.33498 9.49143 2.3599 9.48953H2.3645C2.37487 9.48953 2.38521 9.4865 2.39518 9.4865H2.40244C2.41355 9.4865 2.42622 9.48346 2.43848 9.48217C3.99472 6.13966 5.68169 3.47997 7.36215 1.88041C7.54695 1.46174 7.72907 1.14198 7.92844 0.900063C7.81188 0.702998 7.68421 0.538134 7.54159 0.418484C7.54159 0.418484 7.53771 0.418484 7.53741 0.415446C7.52934 0.412104 7.52171 0.408079 7.51364 0.404099C7.50557 0.39977 7.49867 0.396428 7.49027 0.392137C7.48298 0.389099 7.47454 0.385073 7.46726 0.381094C7.4573 0.378056 7.44923 0.373727 7.44043 0.369739C7.43314 0.366701 7.42662 0.363587 7.41932 0.360542C7.40435 0.354694 7.38942 0.34858 7.37523 0.342139C7.3687 0.339101 7.3626 0.337506 7.35643 0.335076C7.34609 0.331354 7.33419 0.326486 7.32346 0.321884C7.31807 0.318846 7.31195 0.318238 7.30582 0.316035C7.29012 0.310795 7.27477 0.305304 7.26019 0.30039H7.2564C7.23875 0.294542 7.2215 0.290273 7.20348 0.28536C7.1993 0.282322 7.19581 0.282322 7.19161 0.281714C7.17587 0.277385 7.16207 0.273124 7.14714 0.269137C7.14334 0.269137 7.13984 0.266099 7.1368 0.266099C7.10076 0.25659 7.06357 0.248927 7.026 0.241871C7.02212 0.241871 7.01833 0.238833 7.0145 0.238833C6.9984 0.235795 6.98267 0.232985 6.96657 0.231162C6.9627 0.228124 6.96042 0.228124 6.957 0.228124C6.93783 0.225086 6.91904 0.222884 6.90025 0.220757H6.89029C6.87496 0.217719 6.86078 0.217415 6.84658 0.21582C6.82241 0.218858 6.79942 0.220149 6.7768 0.222276" fill="url(#paint11_linear_1078_649)"/>
<path d="M18.1035 2.49331C17.7205 3.72021 17.4103 4.73239 17.1404 5.56515C18.1913 4.11895 19.2265 2.29968 20.2122 0.200195C19.0624 0.561327 18.4489 1.38798 18.1035 2.49331Z" fill="url(#paint12_linear_1078_649)"/>
<path d="M17.1739 8.95459C17.1203 8.98188 17.0666 9.00787 17.0137 9.03127C19.058 8.11953 21.4964 4.50327 22.6639 0.000976562H22.4273C19.745 4.79236 18.8824 7.99991 17.1739 8.95459Z" fill="url(#paint13_linear_1078_649)"/>
<path d="M15.8389 8.55214C16.2837 8.00924 16.646 7.08641 17.1406 5.56543C16.5701 6.34911 15.9957 7.02276 15.421 7.57216C15.421 7.5752 15.421 7.5752 15.418 7.5771C15.5434 7.95284 15.681 8.28446 15.8378 8.55208" fill="#079AE1"/>
<path d="M15.8388 8.55225C15.6874 8.73705 15.5271 8.87777 15.3488 8.98206C15.3097 9.00476 15.2703 9.02614 15.23 9.0457C15.4183 9.14729 15.6237 9.21517 15.8538 9.24237C15.8875 9.24572 15.9208 9.24883 15.9558 9.25127H15.9619C15.9776 9.25127 15.9941 9.25127 16.011 9.25431H16.0177H16.068H16.1221H16.1389H16.1773C16.1834 9.25431 16.1898 9.25431 16.196 9.25127C16.2079 9.25127 16.2205 9.25127 16.2328 9.24823H16.2371H16.2509C16.2635 9.24823 16.2773 9.24519 16.2908 9.2439H16.2938C16.2979 9.2439 16.3021 9.24086 16.3061 9.24086C16.3202 9.23783 16.3349 9.23653 16.3487 9.23441H16.3612C16.3769 9.23137 16.3931 9.22947 16.4092 9.22643H16.4122H16.4168C16.449 9.22028 16.4805 9.21417 16.5123 9.20619C16.2485 9.10957 16.0277 8.88183 15.8375 8.55747" fill="#1969BC"/>
<path d="M12.0701 9.25404C12.2614 9.25404 12.4546 9.23533 12.6486 9.19806C12.8281 9.16549 13.0079 9.11561 13.1881 9.05273C13.338 9.12598 13.4952 9.18043 13.6616 9.21416C13.7908 9.24054 13.925 9.25404 14.0657 9.25404H12.0701Z" fill="#1E5CB3"/>
<path d="M14.0656 9.25398C14.5379 9.25398 14.9121 9.19801 15.23 9.04541C15.4182 9.147 15.6237 9.21488 15.8538 9.24211C15.8875 9.24545 15.9209 9.24857 15.9557 9.25101H15.9619C15.9775 9.25101 15.9941 9.25101 16.011 9.25404H16.018H16.0683H14.0642L14.0656 9.25398Z" fill="#1E5CB3"/>
<path d="M16.0696 9.25439H16.124H16.1409H16.1789C16.1853 9.25439 16.1914 9.25439 16.1976 9.25135C16.2095 9.25135 16.2221 9.25135 16.2348 9.24831H16.2388H16.2529C16.2655 9.24831 16.2793 9.24527 16.2924 9.24406H16.2958C16.2998 9.24406 16.3037 9.24102 16.3077 9.24102C16.3218 9.23798 16.3366 9.23677 16.3503 9.23456C16.3549 9.23456 16.3586 9.23456 16.3635 9.23152C16.3791 9.22849 16.3953 9.22689 16.4114 9.22386H16.4144H16.4191C16.4513 9.21771 16.4827 9.21159 16.5145 9.20361C16.6069 9.23772 16.7032 9.25499 16.807 9.25499L16.0701 9.25803L16.0696 9.25439Z" fill="#1D60B5"/>
<path d="M15.4191 7.57726V7.57422C15.2086 7.77549 14.9985 7.95993 14.7888 8.12669C14.6791 8.21373 14.5699 8.29616 14.4595 8.374C14.5519 8.48442 14.6458 8.58794 14.7447 8.68226C14.895 8.82792 15.0556 8.95064 15.2309 9.04533C15.2707 9.02569 15.3106 9.00428 15.3493 8.98168C15.528 8.8774 15.6883 8.7367 15.8397 8.5519C15.6829 8.28428 15.5453 7.95262 15.4199 7.57689" fill="#175FAB"/>
<path d="M21.678 0.000976562H20.6834H20.5845H20.491H20.4873C20.4229 0.00401454 20.3604 0.00621707 20.2987 0.0101816C20.2695 0.0726955 20.2396 0.135202 20.2109 0.19808C19.2252 2.29756 18.19 4.11683 17.1391 5.56303C16.6449 7.08398 16.2822 8.00684 15.8374 8.54975C16.0276 8.8741 16.2488 9.10221 16.5118 9.19883C16.5195 9.19579 16.5256 9.19579 16.5325 9.1942H16.5368C16.5414 9.1942 16.5463 9.19116 16.5513 9.19116C16.5621 9.18812 16.5736 9.18622 16.5843 9.18288C16.5912 9.17984 16.5969 9.17954 16.6039 9.17734C16.6138 9.1743 16.6242 9.1721 16.6334 9.16967C16.6395 9.16663 16.6457 9.16564 16.6518 9.16443C16.6671 9.15949 16.6809 9.15584 16.6955 9.15123C16.7024 9.1482 16.7097 9.14569 16.7174 9.14387C16.7258 9.14083 16.7342 9.13863 16.7419 9.13497C16.7507 9.13194 16.7595 9.13034 16.7672 9.127C16.7741 9.12396 16.7814 9.12206 16.7879 9.11933C16.8051 9.11318 16.822 9.10798 16.8393 9.10123C16.8439 9.10123 16.8485 9.09698 16.8535 9.09599C16.8638 9.09166 16.8746 9.08832 16.8849 9.08372C16.8887 9.08068 16.8934 9.08037 16.8983 9.07878C16.9344 9.06375 16.9716 9.04841 17.0088 9.03164H17.0126C17.0655 9.00833 17.1192 8.98216 17.1725 8.95496C18.8813 8.00028 19.744 4.79273 22.4263 0.00134871H21.6771L21.678 0.000976562Z" fill="url(#paint14_linear_1078_649)"/>
<path d="M6.84473 0.211392C6.84898 0.211392 6.85279 0.211392 6.85699 0.21443C6.86733 0.21443 6.8777 0.21443 6.88805 0.217772H6.89842C6.91719 0.22081 6.93599 0.222405 6.95516 0.225139C6.95865 0.225139 6.96169 0.225139 6.96473 0.228177C6.98043 0.231215 6.99655 0.233721 7.01265 0.236151C7.01614 0.236151 7.02072 0.239189 7.02455 0.239189C7.06136 0.246557 7.09894 0.25422 7.13498 0.263729C7.13839 0.263729 7.14189 0.266767 7.14495 0.266767C7.16028 0.270412 7.17408 0.275045 7.18942 0.279336C7.19405 0.279336 7.19745 0.282374 7.20169 0.283058C7.21972 0.287691 7.23658 0.292263 7.25422 0.298088C7.25497 0.298088 7.25604 0.298088 7.25809 0.301126C7.27302 0.305683 7.28836 0.311554 7.30409 0.316764C7.31024 0.319802 7.31596 0.321093 7.32173 0.322612C7.33247 0.327245 7.34437 0.33181 7.3547 0.336108C7.36086 0.336108 7.36697 0.340362 7.37347 0.342564C7.38764 0.34902 7.40261 0.35483 7.41718 0.360967C7.42485 0.364005 7.43135 0.367422 7.43865 0.370164C7.44709 0.374493 7.45589 0.37845 7.4651 0.381519C7.47276 0.385164 7.4812 0.389182 7.48847 0.392554C7.49653 0.396883 7.50417 0.400225 7.51187 0.404516C7.70204 0.49807 7.87725 0.622688 8.03943 0.773751C8.09924 0.710873 8.16173 0.654496 8.22653 0.603891C7.87188 0.352377 7.47008 0.208984 7.00654 0.208984C6.95286 0.208984 6.89919 0.212022 6.84475 0.216048" fill="#7DCBEC"/>
<path d="M8.03931 0.76947C8.13861 0.861855 8.23369 0.965009 8.32379 1.0762C8.41082 1.01562 8.49709 0.957339 8.58374 0.902898C8.47025 0.789407 8.35063 0.687422 8.22602 0.599609C8.16123 0.64985 8.09912 0.706592 8.03931 0.76947Z" fill="#5EC5ED"/>
<path d="M6.84445 0.211605C6.8989 0.207004 6.95257 0.205087 7.00625 0.205087C7.46979 0.205087 7.87159 0.34848 8.22624 0.599609C8.60044 0.304389 9.05286 0.201253 9.68126 0.201253H6.63818C6.70835 0.201253 6.77698 0.205471 6.84445 0.211605Z" fill="url(#paint15_linear_1078_649)"/>
<path d="M9.68133 0.201204C9.05294 0.201204 8.60052 0.304339 8.22632 0.59956C8.35054 0.687359 8.47016 0.789345 8.58365 0.902832C9.1047 0.571571 9.62076 0.352265 10.1295 0.256414C10.3235 0.21999 10.5172 0.201204 10.7081 0.201204H9.68133Z" fill="url(#paint16_linear_1078_649)"/>
<path d="M17.1406 5.56631C17.4109 4.73279 17.7203 3.72101 18.1041 2.49371C18.4499 1.38798 19.0622 0.561361 20.212 0.200594C20.2424 0.138847 20.2711 0.0752016 20.3006 0.0126953C18.4261 0.125047 17.55 1.07855 17.1091 2.49065C16.3381 4.95593 15.8711 6.55396 15.4214 7.57228C15.9957 7.02324 16.5701 6.34922 17.1406 5.56631Z" fill="url(#paint17_linear_1078_649)"/>
<path d="M19.8904 8.59762H19.678V9.25784H19.5913V8.59762H19.3782V8.51904H19.8904V8.59762Z" fill="black"/>
<path d="M20.7602 9.25735H20.674V8.76123C20.674 8.72212 20.677 8.67421 20.6811 8.61784C20.6722 8.65158 20.6648 8.67498 20.6581 8.68992L20.4065 9.25735H20.3644L20.1121 8.69415C20.1047 8.6785 20.0974 8.65311 20.0894 8.61784H20.0864C20.0894 8.64759 20.0904 8.69568 20.0904 8.7624V9.25735H20.0076V8.51855H20.1218L20.3484 9.03421C20.3656 9.07295 20.3763 9.10286 20.3818 9.12279H20.3851C20.4001 9.08215 20.4124 9.05185 20.4208 9.03191L20.652 8.51855H20.7608V9.25735H20.7602Z" fill="black"/>
</g>
<defs>
<linearGradient id="paint0_linear_1078_649" x1="10.5105" y1="0.140777" x2="10.5105" y2="11.513" gradientUnits="userSpaceOnUse">
<stop stop-color="#0994DC"/>
<stop offset="0.350006" stop-color="#66CEF5"/>
<stop offset="0.846161" stop-color="#127BCA"/>
<stop offset="1" stop-color="#127BCA"/>
</linearGradient>
<linearGradient id="paint1_linear_1078_649" x1="10.9441" y1="-0.147167" x2="10.9441" y2="11.5149" gradientUnits="userSpaceOnUse">
<stop stop-color="#0E76BC"/>
<stop offset="0.360001" stop-color="#36AEE8"/>
<stop offset="0.846161" stop-color="#00ADEF"/>
<stop offset="1" stop-color="#00ADEF"/>
</linearGradient>
<linearGradient id="paint2_linear_1078_649" x1="13.288" y1="8.99216" x2="13.288" y2="-0.287184" gradientUnits="userSpaceOnUse">
<stop stop-color="#1C63B7"/>
<stop offset="0.5" stop-color="#33BDF2"/>
<stop offset="1" stop-color="#33BDF2" stop-opacity="0.419608"/>
</linearGradient>
<linearGradient id="paint3_linear_1078_649" x1="12.678" y1="-1.32897" x2="12.678" y2="10.7793" gradientUnits="userSpaceOnUse">
<stop stop-color="#166AB8"/>
<stop offset="0.399994" stop-color="#36AEE8"/>
<stop offset="0.846161" stop-color="#0798DD"/>
<stop offset="1" stop-color="#0798DD"/>
</linearGradient>
<linearGradient id="paint4_linear_1078_649" x1="11.7236" y1="-1.26528" x2="11.7236" y2="11.6102" gradientUnits="userSpaceOnUse">
<stop stop-color="#124379"/>
<stop offset="0.389999" stop-color="#1487CB"/>
<stop offset="0.780228" stop-color="#165197"/>
<stop offset="1" stop-color="#165197"/>
</linearGradient>
<linearGradient id="paint5_linear_1078_649" x1="6.55225" y1="2.68727" x2="8.37265" y2="2.68727" gradientUnits="userSpaceOnUse">
<stop stop-color="#33BDF2" stop-opacity="0.698039"/>
<stop offset="1" stop-color="#1DACD8"/>
</linearGradient>
<linearGradient id="paint6_linear_1078_649" x1="20.2239" y1="8.75956" x2="20.2239" y2="-0.279808" gradientUnits="userSpaceOnUse">
<stop stop-color="#136AB4"/>
<stop offset="0.6" stop-color="#59CAF5" stop-opacity="0.54902"/>
<stop offset="1" stop-color="#59CAF5" stop-opacity="0.235294"/>
</linearGradient>
<linearGradient id="paint7_linear_1078_649" x1="0.0924779" y1="4.84738" x2="6.84459" y2="4.84738" gradientUnits="userSpaceOnUse">
<stop stop-color="#05A1E6" stop-opacity="0.247059"/>
<stop offset="1" stop-color="#05A1E6"/>
</linearGradient>
<linearGradient id="paint8_linear_1078_649" x1="3.83215" y1="8.98733" x2="3.83215" y2="-0.268249" gradientUnits="userSpaceOnUse">
<stop stop-color="#318ED5"/>
<stop offset="1" stop-color="#38A7E4"/>
</linearGradient>
<linearGradient id="paint9_linear_1078_649" x1="4.41471" y1="9.01973" x2="4.41471" y2="0.0227949" gradientUnits="userSpaceOnUse">
<stop stop-color="#05A1E6"/>
<stop offset="1" stop-color="#05A1E6" stop-opacity="0.54902"/>
</linearGradient>
<linearGradient id="paint10_linear_1078_649" x1="4.89836" y1="9.47881" x2="4.89836" y2="1.87626" gradientUnits="userSpaceOnUse">
<stop stop-color="#1959A6"/>
<stop offset="0.5" stop-color="#05A1E6"/>
<stop offset="0.917587" stop-color="#7EC5EA"/>
<stop offset="1" stop-color="#7EC5EA"/>
</linearGradient>
<linearGradient id="paint11_linear_1078_649" x1="5.18971" y1="8.9933" x2="2.61265" y2="1.11764" gradientUnits="userSpaceOnUse">
<stop stop-color="#165096"/>
<stop offset="1" stop-color="#0D82CA"/>
</linearGradient>
<linearGradient id="paint12_linear_1078_649" x1="18.6761" y1="4.3311" x2="18.6761" y2="0.023209" gradientUnits="userSpaceOnUse">
<stop stop-color="#05A1E6"/>
<stop offset="0.873627" stop-color="#0495D6"/>
<stop offset="1" stop-color="#0495D6"/>
</linearGradient>
<linearGradient id="paint13_linear_1078_649" x1="20.7012" y1="-0.374813" x2="16.6862" y2="8.53956" gradientUnits="userSpaceOnUse">
<stop stop-color="#38A7E4" stop-opacity="0.329412"/>
<stop offset="0.961533" stop-color="#0E88D3"/>
<stop offset="1" stop-color="#0E88D3"/>
</linearGradient>
<linearGradient id="paint14_linear_1078_649" x1="19.133" y1="-0.0262285" x2="19.133" y2="9.37193" gradientUnits="userSpaceOnUse">
<stop stop-color="#168CD4"/>
<stop offset="0.5" stop-color="#1C87CC"/>
<stop offset="1" stop-color="#154B8D"/>
</linearGradient>
<linearGradient id="paint15_linear_1078_649" x1="7.14558" y1="-0.219271" x2="7.1863" y2="0.766385" gradientUnits="userSpaceOnUse">
<stop stop-color="#97D6EE"/>
<stop offset="0.703293" stop-color="#55C1EA"/>
<stop offset="1" stop-color="#55C1EA"/>
</linearGradient>
<linearGradient id="paint16_linear_1078_649" x1="8.39732" y1="0.858627" x2="8.5814" y2="-0.185454" gradientUnits="userSpaceOnUse">
<stop stop-color="#7ACCEC"/>
<stop offset="1" stop-color="#3FB7ED"/>
</linearGradient>
<linearGradient id="paint17_linear_1078_649" x1="17.8608" y1="0.493698" x2="17.8608" y2="9.68604" gradientUnits="userSpaceOnUse">
<stop stop-color="#1DA7E7"/>
<stop offset="1" stop-color="#37ABE7" stop-opacity="0"/>
</linearGradient>
<clipPath id="clip0_1078_649">
<rect width="24" height="22.875" fill="white"/>
</clipPath>
</defs>
</svg>
