<svg xmlns="http://www.w3.org/2000/svg" xmlns:xlink="http://www.w3.org/1999/xlink" viewBox="0,0,256,256" width="50px" height="50px" fill-rule="nonzero"><g fill="#ffffff" fill-rule="nonzero" stroke="none" stroke-width="1" stroke-linecap="butt" stroke-linejoin="miter" stroke-miterlimit="10" stroke-dasharray="" stroke-dashoffset="0" font-family="none" font-weight="none" font-size="none" text-anchor="none" style="mix-blend-mode: normal"><g transform="scale(5.12,5.12)"><path d="M9,4c-2.76,0 -5,2.24 -5,5v32c0,2.76 2.24,5 5,5h32c2.76,0 5,-2.24 5,-5v-32c0,-2.76 -2.24,-5 -5,-5zM26.16992,11c1.97,0 3.83008,1.77 3.83008,10.5c0,3.12 -0.53086,7.65086 -2.38086,11.38086c0.8,1.04 1.60086,1.36914 2.13086,1.11914c1.5,-0.72 2.45938,-3.24977 3.35938,-6.00977c0.25,-0.75 1.08156,-1.15969 1.85156,-0.92969c0.78,0.24 1.21875,1.0393 0.96875,1.7793c-0.76,2.34 -2.88938,8.14063 -6.10938,8.14063c-1.02,0 -2.39117,-0.04031 -3.70117,-1.32031c-1.47,2 -3.29875,3.33984 -5.46875,3.33984c-4.59,0 -6.65039,-3.48922 -6.65039,-6.94922c0,-3.67 1.88086,-8 6.13086,-8c0.72,0 1.37922,0.13008 1.94922,0.33008c-0.08,-1 -0.08008,-1.8 -0.08008,-3c0,-0.11 0.03992,-10.38086 4.16992,-10.38086zM26.28906,14.05078c-0.61,1.04 -1.32812,4.07836 -1.32812,7.31836c0,3.52 0.4093,6.2207 1.0293,8.2207c0.93,-2.57 1.04883,-5.55984 1.04883,-8.08984c0,-4.76 -0.28,-6.78922 -0.75,-7.44922zM20.11914,27c-3.18,0 -3.11914,4.92914 -3.11914,5.11914c0,1.24 0.28914,3.88086 3.61914,3.88086c1.28,0 2.58164,-1.02031 3.68164,-2.82031c-0.67,-1.25 -1.3007,-3.20969 -1.7207,-5.17969c-0.08,-0.06 -0.16047,-0.11945 -0.23047,-0.18945c0,0 -0.97047,-0.81055 -2.23047,-0.81055z"></path></g></g></svg>