<svg xmlns="http://www.w3.org/2000/svg" width="33.023" height="30" viewBox="0 0 33.023 30"><defs><style>.a{fill:#fff;}</style></defs><g transform="translate(-8.007 -10.01)"><g transform="translate(8.007 10.01)"><path class="a" d="M21.853,40.01a2.852,2.852,0,1,1,2.9-2.851,2.881,2.881,0,0,1-2.9,2.851Zm0-4.11a1.26,1.26,0,1,0,1.282,1.259A1.273,1.273,0,0,0,21.853,35.9Zm10.188,4.11a2.852,2.852,0,1,1,2.9-2.851,2.881,2.881,0,0,1-2.9,2.851Zm0-4.11a1.26,1.26,0,1,0,1.283,1.259A1.274,1.274,0,0,0,32.041,35.9Zm.715-15.012H21.136a.8.8,0,1,1,0-1.592h11.62a.8.8,0,1,1,0,1.592Zm-.632,4.133H21.769a.8.8,0,1,1,0-1.592H32.124a.8.8,0,1,1,0,1.592ZM41,17.075,38.729,27.883a1.623,1.623,0,0,1-1.588,1.27H17.089l.476,2.274H36.99a.8.8,0,1,1,0,1.591H17.566a1.619,1.619,0,0,1-1.588-1.27l-3.924-18.7L8.5,11.536a.791.791,0,0,1-.422-1.047.817.817,0,0,1,1.066-.413l3.56,1.516a1.6,1.6,0,0,1,.942,1.141l.509,2.431H39.407a1.629,1.629,0,0,1,1.259.587A1.567,1.567,0,0,1,41,17.075Zm-26.511-.321,2.268,10.807H37.14l2.267-10.807Z" transform="translate(-8.007 -10.01)"/></g></g></svg>