<svg width="24" height="24" viewBox="0 0 24 24" fill="none" xmlns="http://www.w3.org/2000/svg">
<g clip-path="url(#clip0_1078_945)">
<path d="M19.7812 20.4375H6.42188C5.25872 20.4375 4.3125 19.4913 4.3125 18.3281C4.3125 17.165 5.25872 16.2188 6.42188 16.2188H8.53125L7.2637 17.625H6.42188C6.03394 17.625 5.71875 17.9402 5.71875 18.3281C5.71875 18.7161 6.03394 19.0312 6.42188 19.0312H19.7812V20.4375Z" fill="#66CCFF"/>
<path d="M13.4531 19.0312H19.7812V20.4375H13.4531V19.0312Z" fill="#59ABFF"/>
<path d="M5.08027 7.78153L4.45191 4.96875H0V3.5625H5.57934L6.79748 9.0172L5.08027 7.78153Z" fill="#66CCFF"/>
<path d="M16.4723 8.02228L16.2622 7.78125H5.08154L7.26372 17.625H19.6226L22.1007 8.03531C21.6194 8.15559 18.7718 10.664 16.4723 8.02228ZM20.0099 10.5052L19.6237 12H16.3263L16.5051 9.85491C17.5363 10.4834 18.8036 10.7333 20.0099 10.5052ZM11.9904 12L11.756 9.1875H15.1502L14.9158 12H11.9904ZM14.7987 13.4062L14.5643 16.2188H12.3419L12.1075 13.4062H14.7987ZM10.3456 9.1875L10.58 12H7.45736L6.83387 9.1875H10.3456ZM7.76907 13.4062H10.6971L10.9315 16.2188H8.39261L7.76907 13.4062ZM15.9748 16.2188L16.2092 13.4062H19.2604L18.5336 16.2188H15.9748Z" fill="#66CCFF"/>
<path d="M16.4723 8.02228L16.2622 7.78125H13.4531V9.1875H15.1502L14.9158 12H13.4531V13.4062H14.7987L14.5643 16.2188H13.4531V17.625H19.6226L22.1007 8.03531C21.6194 8.15555 18.7718 10.664 16.4723 8.02228ZM18.5336 16.2188H15.9748L16.2092 13.4062H19.2604L18.5336 16.2188ZM20.0099 10.5052L19.6237 12H16.3263L16.5051 9.85491C17.5363 10.4834 18.8036 10.7333 20.0099 10.5052Z" fill="#59ABFF"/>
<path d="M9.23438 23.25C8.07122 23.25 7.125 22.3038 7.125 21.1406C7.125 19.9775 8.07122 19.0312 9.23438 19.0312C10.3975 19.0312 11.3438 19.9775 11.3438 21.1406C11.3438 22.3038 10.3975 23.25 9.23438 23.25Z" fill="#665151"/>
<path d="M16.2656 23.25C15.1025 23.25 14.1562 22.3038 14.1562 21.1406C14.1562 19.9775 15.1025 19.0312 16.2656 19.0312C17.4288 19.0312 18.375 19.9775 18.375 21.1406C18.375 22.3038 17.4288 23.25 16.2656 23.25Z" fill="#4D3535"/>
<path d="M19.0781 10.5938C16.2891 10.5938 14.1562 8.31506 14.1562 5.67188C14.1562 2.95823 16.3645 0.75 19.0781 0.75C21.7918 0.75 24 2.95823 24 5.67188C24 8.45152 21.7421 10.5938 19.0781 10.5938Z" fill="#A0E65C"/>
<path d="M9.23438 21.8438C9.6227 21.8438 9.9375 21.529 9.9375 21.1406C9.9375 20.7523 9.6227 20.4375 9.23438 20.4375C8.84605 20.4375 8.53125 20.7523 8.53125 21.1406C8.53125 21.529 8.84605 21.8438 9.23438 21.8438Z" fill="#FFF7E6"/>
<path d="M16.2656 21.8438C16.654 21.8438 16.9688 21.529 16.9688 21.1406C16.9688 20.7523 16.654 20.4375 16.2656 20.4375C15.8773 20.4375 15.5625 20.7523 15.5625 21.1406C15.5625 21.529 15.8773 21.8438 16.2656 21.8438Z" fill="#FFEACC"/>
<path d="M24 5.67188C24 2.95823 21.7918 0.75 19.0781 0.75V10.5938C21.7421 10.5938 24 8.45152 24 5.67188Z" fill="#79CC52"/>
<path d="M21.1875 4.96875H19.7812V3.5625H18.375V4.96875H16.9688V6.375H18.375V7.78125H19.7812V6.375H21.1875V4.96875Z" fill="#FFF7E6"/>
<path d="M19.0781 3.5625V7.78125H19.7812V6.375H21.1875V4.96875H19.7812V3.5625H19.0781Z" fill="#FFEACC"/>
</g>
<defs>
<clipPath id="clip0_1078_945">
<rect width="24" height="24" fill="white"/>
</clipPath>
</defs>
</svg>
