<svg xmlns="http://www.w3.org/2000/svg" width="31.872" height="30" viewBox="0 0 31.872 30"><defs><style>.a{fill:#fff;}</style></defs><g transform="translate(-4.088 -6.002)"><g transform="translate(4.088 6.002)"><path class="a" d="M26.913,33.455,26.382,35.6a.533.533,0,0,1-.515.4.608.608,0,0,1-.129-.014.536.536,0,0,1-.386-.651l.531-2.143a.529.529,0,0,1,.643-.389.536.536,0,0,1,.387.651ZM26.07,19.594l-5.844,2.438a.511.511,0,0,1-.2.041.506.506,0,0,1-.2-.041L4.417,15.6a.535.535,0,0,1-.329-.495v-.536a.531.531,0,1,1,1.062,0v.178l14.873,6.207,5.64-2.355a.529.529,0,0,1,.693.291.537.537,0,0,1-.286.7Zm.031,8.685a13.553,13.553,0,0,1-6.079,1.294c-8.232,0-10.494-5.461-10.586-5.694a.556.556,0,0,1-.038-.2V19.93a.531.531,0,1,1,1.062,0v3.64c.307.671,2.435,4.7,9.031,4.912v-4.8a.532.532,0,1,1,1.064,0v4.805a12.293,12.293,0,0,0,5.076-1.167.529.529,0,0,1,.712.244.538.538,0,0,1-.242.717ZM27.992,36a.533.533,0,0,1-.532-.534V33.86a.532.532,0,1,1,1.064,0v1.607a.534.534,0,0,1-.532.535Zm7.436-21.965a.534.534,0,0,1,.532.536v.536a.535.535,0,0,1-.329.495l-7.109,2.951V25.2a5.456,5.456,0,0,0,1.063-1.619V19.931a.532.532,0,1,1,1.063,0v3.75a.521.521,0,0,1-.029.174,6.486,6.486,0,0,1-2.1,2.775v3.042a1.594,1.594,0,1,1-1.064,0V18.192h0V16.475L21.4,14.192a2.554,2.554,0,0,1-1.375.381c-1.19,0-2.125-.706-2.125-1.607s.934-1.607,2.125-1.607,2.124.706,2.124,1.607a1.3,1.3,0,0,1-.048.346l5.842,2.2,6.1-2.545L20.024,7.117,6.008,12.966l14.015,5.849,5.367-2.238a.528.528,0,0,1,.694.289.538.538,0,0,1-.288.7l-5.57,2.324a.521.521,0,0,1-.2.04.516.516,0,0,1-.2-.04l-15.4-6.429a.537.537,0,0,1,0-.99l15.4-6.429a.536.536,0,0,1,.406,0l15.405,6.429a.538.538,0,0,1,0,.99l-7.11,2.967V17.4L34.9,14.75v-.177a.535.535,0,0,1,.531-.536Zm-15.4-1.606c-.648,0-1.062.316-1.062.535s.414.536,1.062.536,1.062-.317,1.062-.536-.413-.535-1.062-.535Zm7.968,18.215a.535.535,0,1,0,.532.534.534.534,0,0,0-.532-.534Zm2.252,5.339a.5.5,0,0,1-.128.015.531.531,0,0,1-.514-.4l-.532-2.143a.536.536,0,0,1,.386-.649.53.53,0,0,1,.644.389l.531,2.143a.534.534,0,0,1-.387.649Z" transform="translate(-4.088 -6.002)"/></g></g></svg>