<svg xmlns="http://www.w3.org/2000/svg" width="26.245" height="30" viewBox="0 0 26.245 30"><defs><style>.a{fill:#fff;}</style></defs><g transform="translate(-12.59 -9.902)"><g transform="translate(12.59 9.902)"><path class="a" d="M38.33,25.9H37.319v-1H38.33a.5.5,0,0,0,.5-.427.5.5,0,0,0-.354-.55L28.741,21.03V16.074L34.892,17.9H29.751a.5.5,0,1,0,0,1h6.561v1H35.3a.5.5,0,1,0,0,1H38.33a.5.5,0,1,0,0-1H37.319v-1H38.33a.5.5,0,0,0,.5-.427.5.5,0,0,0-.354-.55l-9.882-2.939-2.385-4.8a.5.5,0,0,0-.451-.279h0a.505.505,0,0,0-.449.273l-2.566,5c0,.006,0,.012,0,.016a.534.534,0,0,0-.028.1.49.49,0,0,0-.019.1c0,.007,0,.012,0,.017v2.5H16.6l5.218-1.521a.5.5,0,0,0,.342-.62.506.506,0,0,0-.627-.34l-8.579,2.5a.5.5,0,0,0,.142.979h1.01v1H13.1a.5.5,0,1,0,0,1h3.028a.5.5,0,1,0,0-1h-1.01v-1h7.571v5H16.6l5.218-1.521a.5.5,0,0,0,.342-.62.506.506,0,0,0-.627-.34l-8.579,2.5a.5.5,0,0,0,.142.98h1.01v1H13.1a.5.5,0,1,0,0,1h3.028a.5.5,0,1,0,0-1h-1.01v-1h7.406l-3.749,13H17.132a.5.5,0,0,0-.5.5v1a.5.5,0,0,0,1.009,0v-.5H33.787v.5a.505.505,0,0,0,1.011,0v-1a.5.5,0,0,0-.5-.5H32.654l-3.915-13.57V22.072L34.89,23.9H29.75a.5.5,0,1,0,0,1h6.561v1H35.3a.5.5,0,1,0,0,1h3.028a.5.5,0,1,0,0-1Zm-18.508,12,1.648-5.718,3.3,2.082-3.52,2.219a.5.5,0,0,0-.155.691.509.509,0,0,0,.427.232.5.5,0,0,0,.269-.078l3.918-2.471L30.54,37.9Zm11.6-.63L21.759,31.18l1.15-3.985L24.8,28.431l-1.886,1.234a.5.5,0,0,0-.143.692.5.5,0,0,0,.421.224.509.509,0,0,0,.278-.082l2.245-1.468,3.614,2.363-2.382,1.5a.5.5,0,0,0-.154.69.508.508,0,0,0,.426.233.5.5,0,0,0,.27-.078l2.466-1.556,1.47,5.086Zm-2.029-7.033-3.4-2.225,0,0L23.2,26.185l.37-1.285h3.152a.5.5,0,1,0,0-1H23.695v-2h3.029a.5.5,0,1,0,0-1H23.695v-2h3.029a.5.5,0,1,0,0-1H23.695v-2h2.523a.5.5,0,1,0,0-1h-2.2l1.734-3.383,1.984,4V24.4a.51.51,0,0,0,.019.138l.475,1.647-1.26.824a.5.5,0,0,0-.142.694.51.51,0,0,0,.7.142l.993-.651.877,3.044Z" transform="translate(-12.59 -9.902)"/></g></g></svg>