<svg xmlns="http://www.w3.org/2000/svg" width="575.82" height="491.164" viewBox="0 0 575.82 491.164">
  <g id="Object" transform="translate(-300.09 -315.418)">
    <g id="Group_1" data-name="Group 1">
      <path id="Path_1" data-name="Path 1" d="M542.161,341.946a218.91,218.91,0,0,1,186,97.9l10.942-6.6c-42.273-63.794-115.122-105.487-197.158-104.168-127.861,2.046-230.232,107.751-228.193,235.637C315.808,692.584,421.519,794.961,549.369,792.9c127.874-2.034,230.251-107.739,228.2-235.613A230.472,230.472,0,0,0,750.3,452.015l-10.967,6.614a218,218,0,0,1,25.376,98.861c1.931,120.974-94.569,220.622-215.543,222.558S328.56,685.479,326.623,564.5,421.169,343.882,542.161,341.946Z" fill="none"/>
      <path id="Path_2" data-name="Path 2" d="M541.949,329.085c82.036-1.319,154.885,40.374,197.158,104.168l11.675-7.062c-44.713-67.8-122-112.133-209.044-110.741-135.4,2.161-243.777,114.081-241.616,249.484C302.294,700.319,414.2,808.711,549.593,806.55S793.382,692.457,791.215,557.072A244.1,244.1,0,0,0,762,444.952L750.3,452.015a230.472,230.472,0,0,1,27.27,105.275c2.046,127.874-100.331,233.579-228.2,235.613-127.85,2.058-233.561-100.319-235.613-228.181C311.717,436.836,414.088,331.131,541.949,329.085Z" fill="#00f6ff"/>
      <path id="Path_3" data-name="Path 3" d="M543.027,396.711a164.086,164.086,0,0,1,138.18,71.5l46.958-28.36a218.91,218.91,0,0,0-186-97.9C421.169,343.882,324.675,443.523,326.623,564.5S428.2,781.991,549.17,780.048,766.644,678.464,764.713,557.49a218,218,0,0,0-25.376-98.861L692.228,487.08a164.2,164.2,0,1,1-149.2-90.369Z" fill="#00f6ff"/>
      <path id="Path_4" data-name="Path 4" d="M543.9,451.47a109.353,109.353,0,0,1,90.285,45.136l47.018-28.4a168.3,168.3,0,1,0,11.021,18.87l-46.976,28.378A109.516,109.516,0,1,1,543.9,451.47Z" fill="#fff"/>
      <path id="Path_5" data-name="Path 5" d="M544.788,506.235A54.584,54.584,0,0,1,587,525.1l47.188-28.493a109.183,109.183,0,1,0,11.063,18.852l-47.473,28.675a54.774,54.774,0,1,1-52.991-37.9Z" fill="#00f6ff"/>
      <path id="Path_6" data-name="Path 6" d="M552.921,545.682,587,525.1a54.441,54.441,0,1,0,10.778,19.034l-34.908,21.079a9.646,9.646,0,0,1-13.03-2.977l-.52-.8A11.254,11.254,0,0,1,552.921,545.682Z" fill="#fff"/>
      <path id="Path_7" data-name="Path 7" d="M860.088,422.716a7.029,7.029,0,0,0,6.911-.2l7.214-4.352a3.546,3.546,0,0,0-.181-6.154l-33.377-17.594,3.752-2.257a3.537,3.537,0,0,0,1.156-4.89l-4.7-7.541a3.557,3.557,0,0,0-4.841-1.156l-3.867,2.336-.811-37.347a3.529,3.529,0,0,0-5.35-2.941l-7.172,4.333a7.013,7.013,0,0,0-3.4,6.154l.865,39.387-1.9,1.169-.835-37.348a3.539,3.539,0,0,0-1.828-3.026,3.589,3.589,0,0,0-3.54.079L801.02,355.7a7.04,7.04,0,0,0-3.4,6.161l.877,39.393-1.924,1.162-.835-37.347a3.528,3.528,0,0,0-5.357-2.948l-7.159,4.327a7.017,7.017,0,0,0-3.389,6.155l.75,33.547a3.543,3.543,0,0,1-1.682,3.062l-28.124,16.983-11.675,7.062-10.942,6.6-46.958,28.36-47.018,28.4L587,525.1l-34.08,20.583a11.254,11.254,0,0,0-3.6,15.754l.52.8a9.646,9.646,0,0,0,13.03,2.977l34.908-21.079,47.473-28.675,46.976-28.378,47.109-28.451,10.967-6.614L762,444.952l28.1-16.97a3.446,3.446,0,0,1,3.419-.1l30.993,16.335a7,7,0,0,0,6.905-.206l7.214-4.352a3.527,3.527,0,0,0-.175-6.143l-33.389-17.587,1.84-1.107,35.4,18.646a6.994,6.994,0,0,0,6.9-.2l7.208-4.352a3.6,3.6,0,0,0,1.719-3.141,3.533,3.533,0,0,0-1.888-3.014l-33.383-17.582,1.822-1.113Z" fill="#00f6ff"/>
    </g>
  </g>
</svg>
