<svg width="24" height="24" viewBox="0 0 24 24" fill="none" xmlns="http://www.w3.org/2000/svg">
<path fill-rule="evenodd" clip-rule="evenodd" d="M2.98301 10.0582L0.581012 11.1662C0.225012 11.3302 -0.00198689 11.6872 1.31088e-05 12.0792C0.00201311 12.4712 0.233012 12.8262 0.591012 12.9862L2.98301 14.0582L0.581012 15.1662C0.225012 15.3302 -0.00198689 15.6872 1.31088e-05 16.0792C0.00201311 16.4712 0.233012 16.8262 0.591012 16.9862L11.591 21.9132C11.851 22.0292 12.149 22.0292 12.409 21.9132L23.409 16.9862C23.767 16.8262 23.998 16.4712 24 16.0792C24.002 15.6872 23.775 15.3302 23.419 15.1662L21.017 14.0582L23.409 12.9862C23.767 12.8262 23.998 12.4712 24 12.0792C24.002 11.6872 23.775 11.3302 23.419 11.1662L21.017 10.0582L23.409 8.98624C23.767 8.82624 23.998 8.47124 24 8.07924C24.002 7.68724 23.775 7.33025 23.419 7.16625L12.419 2.09225C12.153 1.96925 11.847 1.96925 11.581 2.09225L0.581012 7.16625C0.225012 7.33025 -0.00198689 7.68724 1.31088e-05 8.07924C0.00201311 8.47124 0.233012 8.82624 0.591012 8.98624L2.98301 10.0582Z" fill="#9DD785"/>
<path fill-rule="evenodd" clip-rule="evenodd" d="M2.98301 10.0582L0.581012 11.1662C0.225012 11.3302 -0.00198689 11.6872 1.31088e-05 12.0792C0.00201311 12.4712 0.233012 12.8262 0.591012 12.9862L11.591 17.9132C11.851 18.0292 12.149 18.0292 12.409 17.9132L23.409 12.9862C23.767 12.8262 23.998 12.4712 24 12.0792C24.002 11.6872 23.775 11.3302 23.419 11.1662L21.017 10.0582L23.409 8.98624C23.767 8.82624 23.998 8.47124 24 8.07924C24.002 7.68724 23.775 7.33025 23.419 7.16624L12.419 2.09225C12.153 1.96925 11.847 1.96925 11.581 2.09225L0.581012 7.16624C0.225012 7.33025 -0.00198689 7.68724 1.31088e-05 8.07924C0.00201311 8.47124 0.233012 8.82624 0.591012 8.98624L2.98301 10.0582Z" fill="#EBDB90"/>
<path fill-rule="evenodd" clip-rule="evenodd" d="M23.409 8.98624C23.767 8.82624 23.998 8.47124 24 8.07924C24.002 7.68724 23.775 7.33025 23.419 7.16624L12.419 2.09225C12.153 1.96925 11.847 1.96925 11.581 2.09225L0.581012 7.16624C0.225012 7.33025 -0.00198689 7.68724 1.31088e-05 8.07924C0.00201311 8.47124 0.233012 8.82624 0.591012 8.98624L11.591 13.9132C11.851 14.0292 12.149 14.0292 12.409 13.9132L23.409 8.98624Z" fill="#F37079"/>
</svg>
