<svg xmlns="http://www.w3.org/2000/svg" width="41.265" height="30" viewBox="0 0 41.265 30"><defs><style>.a{fill:#fff;}</style></defs><g transform="translate(-2 -9.785)"><g transform="translate(2 9.785)"><path class="a" d="M42.558,24.161h-3.49a10.9,10.9,0,0,0,.744-7.713,9.324,9.324,0,0,0-8.825-6.662,11.1,11.1,0,0,0-3.8.7,19.765,19.765,0,0,0-4.393,2.182A18.848,18.848,0,0,0,18.4,10.486a11.251,11.251,0,0,0-3.8-.7,9.328,9.328,0,0,0-8.827,6.662,11.248,11.248,0,0,0,1.1,8.415H2.628a.624.624,0,1,0,0,1.248H7.609a8.21,8.21,0,0,0,.706,1.052c4.08,5.844,12.944,12.194,14.552,12.584v.04a.117.117,0,0,0,.078-.04h.118v-.039c1.373-.663,9.884-6.117,14.356-12.584a14.557,14.557,0,0,0,1.1-1.752h4.118a.618.618,0,0,0,.628-.624.658.658,0,0,0-.707-.584Zm-6.276,2.3C32.125,32.5,24.476,37.369,22.829,38.421c-1.688-1.052-9.3-5.961-13.494-11.96L9.1,26.11h5.767a.647.647,0,0,0,.588-.351l2.628-5.143L22.2,31.1a.64.64,0,0,0,.587.39h.041a.623.623,0,0,0,.587-.468l3.61-12.272,1.923,6.194a.638.638,0,0,0,.51.429.676.676,0,0,0,.627-.274l1.531-2.22,1.295,2.182a.624.624,0,0,0,.548.312h3.53c-.236.389-.47.74-.707,1.092Zm1.413-2.3H33.851l-1.609-2.728a.625.625,0,0,0-.548-.311.6.6,0,0,0-.549.272l-1.333,1.947-2.157-6.974a.727.727,0,0,0-.629-.467.672.672,0,0,0-.627.467L22.752,28.874l-3.963-10.05a.59.59,0,0,0-.549-.389.608.608,0,0,0-.588.35l-3.1,6.039H8.316A10.451,10.451,0,0,1,7.022,16.8a8,8,0,0,1,7.61-5.727,10.464,10.464,0,0,1,3.374.623,19.074,19.074,0,0,1,4.431,2.26.6.6,0,0,0,.785,0,17.147,17.147,0,0,1,4.433-2.26,9.53,9.53,0,0,1,3.373-.623,8.043,8.043,0,0,1,7.61,5.727,10.173,10.173,0,0,1-.942,7.363Z" transform="translate(-2 -9.785)"/></g></g></svg>