<svg xmlns="http://www.w3.org/2000/svg" width="18" height="18" viewBox="0 0 18 18"><defs><style>.a{fill:#005d6d;}.b{fill:#fff;}</style></defs><g transform="translate(773 -318)"><circle class="a" cx="9" cy="9" r="9" transform="translate(-773 318)"/><path class="b" d="M7.536,10A2.536,2.536,0,0,0,5,12.536a2.757,2.757,0,0,0,.1.692H6.982l.585-1.554a.462.462,0,0,1,.857,0l.954,2.476.272-.655a.444.444,0,0,1,.42-.267h4.048a2.757,2.757,0,0,0,.1-.692,2.535,2.535,0,0,0-4.61-1.457A2.541,2.541,0,0,0,7.536,10ZM5.461,13.919a.461.461,0,1,0,0,.922H6.586l2.563,2.536c.461.415.461.415.922,0l2.563-2.536h1.125a.461.461,0,1,0,0-.922h-3.5l-.429,1.06a.466.466,0,0,1-.885.014L8,12.536,7.554,13.61a.465.465,0,0,1-.433.309Z" transform="translate(-774 313)"/></g></svg>