<svg xmlns="http://www.w3.org/2000/svg" width="36" height="30" viewBox="0 0 36 30"><defs><style>.a{fill:#fff;}</style></defs><g transform="translate(-6.655 -9.374)"><path class="a" d="M42.559,11.433a5.235,5.235,0,0,1-.744,1.6,8.05,8.05,0,0,1-1.535,1.747c-.842.7-1.635,1.4-2.476,2.1l-1.041.9a.713.713,0,0,0-.3.748c.1.7.2,1.447.3,2.145l1.189,8.731a4.152,4.152,0,0,1-.05,1.547,2.629,2.629,0,0,1-1.484,1.7,1,1,0,0,1-.4.2,1.3,1.3,0,0,1-.595.149,1.25,1.25,0,0,1-1.14-.847c-.148-.3-.247-.649-.4-1l-2.279-5.887a7.742,7.742,0,0,0-.842-1.7l-.149-.25-.643.5c-1.288,1.048-2.626,2.045-3.964,3.094q.148.6.3,1.2l.1.45a2.342,2.342,0,0,1-.05,1.646,1.862,1.862,0,0,1-1.237,1.2,1.4,1.4,0,0,1-1.091-.2,1.419,1.419,0,0,1-.495-.45c-1.14-1.4-2.279-2.843-3.368-4.291l-.942-1.2a2.265,2.265,0,0,1-.3-.349,1.046,1.046,0,0,1,.1-1.5,9.489,9.489,0,0,1,.742-.7,1.422,1.422,0,0,1,1.585-.2c.446.2.842.45,1.288.649l.545.25c.049,0,.1.049.148.049.346-.349.694-.648,1.04-1l3.22-3.094c-.1-.149-.2-.249-.3-.4a7.887,7.887,0,0,0-1.685-1.4c-1.684-1.2-3.418-2.344-5.1-3.543a3.669,3.669,0,0,1-.545-.449,1.185,1.185,0,0,1-.247-1.6,4.437,4.437,0,0,1,1.288-1.447,1.548,1.548,0,0,1,1.486-.25c.346.1.643.2.941.3L32.7,14.076c.2.049.4.1.546.149a.859.859,0,0,0,.743-.25c.247-.25.495-.448.742-.7l1.189-1.047q1.264-1.048,2.23-1.8a5.491,5.491,0,0,1,2.476-1.047,2.124,2.124,0,0,1,1.387.3,1.5,1.5,0,0,1,.544,1.748Zm-1.139-.849a.942.942,0,0,0-.644-.1,4.326,4.326,0,0,0-2.031.847c-.644.5-1.337,1.1-2.179,1.8l-1.189,1.047c-.248.25-.5.448-.743.7a1.78,1.78,0,0,1-1.536.449,4.975,4.975,0,0,1-.694-.2l-9.264-3.492a9.28,9.28,0,0,0-.891-.3c-.346-.1-.5-.049-.594.049a4.115,4.115,0,0,0-1.09,1.2c-.1.1-.1.149.049.3a2.731,2.731,0,0,0,.445.349c1.685,1.2,3.418,2.395,5.1,3.543a8.245,8.245,0,0,1,1.882,1.6,5.4,5.4,0,0,1,.4.547c.05.1.1.151.149.25l.247.349-.4.4-3.418,3.244c-.4.4-.793.748-1.189,1.147a.676.676,0,0,1-.792.1l-.3-.149L22.2,24c-.446-.249-.842-.448-1.288-.648a.44.44,0,0,0-.545.05,6.985,6.985,0,0,0-.643.6l-.1.1a.153.153,0,0,0,.049.1,2.072,2.072,0,0,0,.247.349l.942,1.2c1.089,1.447,2.179,2.844,3.318,4.291a.605.605,0,0,0,.248.25.5.5,0,0,0,.247.1,1.049,1.049,0,0,0,.694-.6,1.5,1.5,0,0,0,.048-1.047l-.1-.449c-.1-.449-.247-.9-.347-1.348a.632.632,0,0,1,.247-.748c1.338-1.047,2.725-2.145,4.112-3.192l1.535-1.147.446.648.3.5a12.948,12.948,0,0,1,.941,1.846l2.179,5.887c.148.349.247.7.4,1,.1.248.2.3.5.2a2.548,2.548,0,0,0,.347-.149,1.761,1.761,0,0,0,.941-1.048,2.764,2.764,0,0,0,.048-1.147l-1.188-8.731c-.1-.748-.2-1.447-.3-2.145a1.713,1.713,0,0,1,.694-1.7l.991-.849c.841-.7,1.684-1.4,2.477-2.095a6.055,6.055,0,0,0,1.337-1.5,5.685,5.685,0,0,0,.644-1.348c.1-.3,0-.6-.2-.649Zm-21.7,18.66L7.435,38.674a.7.7,0,0,1-.3.1.446.446,0,0,1-.4-.2.539.539,0,0,1,.1-.7l12.286-9.429a.529.529,0,0,1,.694.1.483.483,0,0,1-.1.7Zm1.634,2.346-7.53,5.787a.71.71,0,0,1-.3.1.448.448,0,0,1-.4-.2.539.539,0,0,1,.1-.7l7.481-5.788a.6.6,0,0,1,.744.1.542.542,0,0,1-.1.7Zm-8.818,6.735-1.237.948a.7.7,0,0,1-.3.1.448.448,0,0,1-.4-.2.539.539,0,0,1,.1-.7l1.239-.949a.529.529,0,0,1,.694.1.539.539,0,0,1-.1.7ZM10.9,32.738l-1.239.948a.709.709,0,0,1-.3.1.451.451,0,0,1-.4-.2.54.54,0,0,1,.1-.7l1.239-.949a.53.53,0,0,1,.694.1.541.541,0,0,1-.1.7ZM18.087,27.3l-5.9,4.49a.709.709,0,0,1-.3.1.609.609,0,0,1-.4-.2.54.54,0,0,1,.1-.7L17.49,26.5a.531.531,0,0,1,.694.1.54.54,0,0,1-.1.7Z"/></g></svg>