<svg xmlns="http://www.w3.org/2000/svg" xmlns:xlink="http://www.w3.org/1999/xlink" width="18" height="18" viewBox="0 0 18 18"><defs><style>.a{fill:#fff;}.b{fill:#005d6d;}.c{clip-path:url(#a);}</style><clipPath id="a"><rect class="a" width="9" height="9" transform="translate(-0.608 -0.608)"/></clipPath></defs><g transform="translate(773 -318)"><circle class="b" cx="9" cy="9" r="9" transform="translate(-773 318)"/><g class="c" transform="translate(-768.392 322.608)"><path class="a" d="M24.726,51.737v.592h.517V51A.777.777,0,0,0,24.726,51.737Z" transform="translate(-21.057 -43.469)"/><path class="a" d="M46.172,29.417h2.035V24.14H46.172Zm.759-4.485h.517v.69h-.517Zm0,1.156h.517v.69h-.517Zm.517,1.145v.69h-.517v-.69Z" transform="translate(-39.347 -20.557)"/><path class="a" d="M31.758,51v1.324h.517v-.592A.777.777,0,0,0,31.758,51Z" transform="translate(-27.054 -43.469)"/><path class="a" d="M46.172,13.592h2.035v1.035H46.172Z" transform="translate(-39.347 -11.562)"/><path class="a" d="M19.688,0h3.035V.863H19.688Z" transform="translate(-16.761 0.029)"/><path class="a" d="M0,13.592H2.035v1.035H0Z" transform="translate(0.03 -11.562)"/><path class="a" d="M0,24.14v5.277H2.035V24.14Zm1.276,3.783H.759v-.69h.517Zm0-1.145H.759v-.69h.517Zm0-1.156H.759v-.69h.517Z" transform="translate(0.03 -20.557)"/><path class="a" d="M17.344,9.376v7.45h.569v-.592a1.294,1.294,0,1,1,2.587,0v.592h.569V9.376Zm1.086,5h-.517v-.69h.517Zm0-1.156h-.517v-.69h.517Zm0-1.145h-.517v-.69h.517Zm0-1.156h-.517v-.69h.517Zm1.035,3.456h-.517v-.69h.517Zm0-1.156h-.517v-.69h.517Zm0-1.145h-.517v-.69h.517Zm0-1.156h-.517v-.69h.517ZM20.5,14.371h-.517v-.69H20.5Zm0-1.156h-.517v-.69H20.5Zm0-1.145h-.517v-.69H20.5Zm-.517-1.156v-.69H20.5v.69Z" transform="translate(-14.761 -7.966)"/></g></g></svg>