<svg xmlns="http://www.w3.org/2000/svg" width="50" height="50" viewBox="0 0 50 50"><defs><style>.a{fill:#005d6d;}.b{fill:#fff;fill-rule:evenodd;}</style></defs><g transform="translate(774 -319)"><circle class="a" cx="25" cy="25" r="25" transform="translate(-774 319)"/><path class="b" d="M18.029,3.232A7.509,7.509,0,0,1,22.891.6a7.041,7.041,0,0,1-1.548,5.194A6.338,6.338,0,0,1,16.437,8.3,6.523,6.523,0,0,1,18.029,3.232ZM23.521,8.09a8.1,8.1,0,0,1,6.114,3.246,7.055,7.055,0,0,0,.926,12.744A23.065,23.065,0,0,1,28.5,27.96c-1.342,2.056-3.232,4.618-5.578,4.636a4.851,4.851,0,0,1-2.279-.6,6.61,6.61,0,0,0-3.165-.752,7,7,0,0,0-3.181.757,5.072,5.072,0,0,1-2.319.595C9.63,32.58,7.838,30.268,6.5,28.212,2.746,22.466,2.35,15.72,4.664,12.132a8.3,8.3,0,0,1,6.68-4.038,9.495,9.495,0,0,1,3.345.733,8.059,8.059,0,0,0,2.755.637,6.692,6.692,0,0,0,2.465-.594A9.336,9.336,0,0,1,23.521,8.09Z" transform="translate(-765.895 327.4)"/></g></svg>