<svg width="25" height="24" viewBox="0 0 25 24" fill="none" xmlns="http://www.w3.org/2000/svg">
<path fill-rule="evenodd" clip-rule="evenodd" d="M13.7738 2.47536C14.6017 1.4622 16.0224 0.684171 17.2379 0.600098C17.4417 1.98517 16.8788 3.34174 16.135 4.30075C15.3399 5.331 13.9676 6.12756 12.6395 6.08623C12.3973 4.75959 13.0186 3.39446 13.7738 2.47536ZM17.6872 5.937C19.2361 5.937 20.8762 6.78628 22.0433 8.24972C18.2172 10.3601 18.8371 15.8576 22.7031 17.3296C22.1715 18.5152 21.9165 19.0439 21.2311 20.0941C20.2749 21.559 18.9283 23.3843 17.2568 23.3972C16.5697 23.4044 16.119 23.1965 15.6329 22.9722C15.0696 22.7124 14.4589 22.4306 13.378 22.4367C12.3031 22.4421 11.6826 22.7203 11.1116 22.9764C10.613 23.2 10.1522 23.4067 9.45938 23.4C7.78931 23.3858 6.51254 21.7385 5.55638 20.2736C2.88456 16.1797 2.60242 11.3733 4.25111 8.81686C5.42386 7.00145 7.27347 5.93985 9.01051 5.93985C9.9363 5.93985 10.6824 6.20737 11.3935 6.46231C12.0406 6.69434 12.6587 6.91595 13.3567 6.91595C14.0025 6.91595 14.5335 6.71364 15.1127 6.49295C15.8076 6.22819 16.5719 5.937 17.6872 5.937Z" fill="black"/>
</svg>
