<svg width="24" height="24" viewBox="0 0 24 24" fill="none" xmlns="http://www.w3.org/2000/svg">
<g clip-path="url(#clip0_1078_591)">
<path d="M23.1585 5.47549C23.167 5.5073 23.1714 5.54008 23.1715 5.57303V10.6932C23.1715 10.7589 23.1542 10.8235 23.1212 10.8804C23.0883 10.9372 23.0409 10.9844 22.9839 11.0171L18.6865 13.4913V18.3954C18.6865 18.5289 18.6155 18.6521 18.4998 18.7193L9.52919 23.8834C9.50866 23.895 9.48626 23.9025 9.46386 23.9104C9.45546 23.9132 9.44753 23.9184 9.43866 23.9207C9.37595 23.9372 9.31004 23.9372 9.24733 23.9207C9.23706 23.9179 9.22773 23.9123 9.21793 23.9086C9.1974 23.9011 9.17593 23.8946 9.15633 23.8834L0.187597 18.7193C0.130621 18.6866 0.0832804 18.6394 0.0503454 18.5825C0.0174103 18.5257 4.51444e-05 18.4611 0 18.3954L0 3.03486C0 3.00126 0.0046666 2.9686 0.0130665 2.93687C0.0158664 2.92613 0.0223997 2.91633 0.0261329 2.9056C0.0331328 2.886 0.0396661 2.86593 0.0499326 2.84773C0.0569325 2.8356 0.067199 2.8258 0.0755989 2.8146C0.086332 2.79967 0.0961319 2.78427 0.108732 2.7712C0.119465 2.76047 0.133465 2.75253 0.145598 2.7432C0.159131 2.732 0.171264 2.71987 0.186664 2.711L4.67173 0.128974C4.72851 0.0962988 4.79288 0.0791016 4.85839 0.0791016C4.92391 0.0791016 4.98827 0.0962988 5.04506 0.128974L9.52966 2.711H9.53059C9.54552 2.72034 9.55812 2.732 9.57166 2.74274C9.58379 2.75207 9.59732 2.76047 9.60806 2.77073C9.62112 2.78427 9.63046 2.79967 9.64165 2.8146C9.64959 2.8258 9.66032 2.8356 9.66685 2.84773C9.67759 2.8664 9.68365 2.886 9.69112 2.9056C9.69485 2.91633 9.70139 2.92613 9.70419 2.93733C9.71278 2.96913 9.71717 3.00192 9.71725 3.03486V12.6289L13.4543 10.4772V5.57256C13.4543 5.53989 13.4589 5.50676 13.4673 5.47549C13.4706 5.46429 13.4767 5.45449 13.4804 5.44376C13.4879 5.42416 13.4944 5.4041 13.5047 5.3859C13.5117 5.37376 13.5219 5.36396 13.5299 5.35276C13.5411 5.33783 13.5504 5.32243 13.5635 5.30936C13.5742 5.29863 13.5877 5.2907 13.5999 5.28136C13.6139 5.27016 13.626 5.25803 13.6409 5.24916L18.1265 2.66714C18.1832 2.63442 18.2476 2.61719 18.3131 2.61719C18.3786 2.61719 18.443 2.63442 18.4998 2.66714L22.9844 5.24916C23.0003 5.2585 23.0124 5.27016 23.0264 5.2809C23.0381 5.29023 23.0516 5.29863 23.0623 5.3089C23.0754 5.32243 23.0847 5.33783 23.0959 5.35276C23.1043 5.36396 23.1146 5.37376 23.1211 5.3859C23.1319 5.4041 23.1379 5.42416 23.1454 5.44376C23.1496 5.45449 23.1557 5.46429 23.1585 5.47549ZM22.4239 10.4772V6.21935L20.8546 7.1228L18.6865 8.37112V12.6289L22.4244 10.4772H22.4239ZM17.9393 18.1794V13.9188L15.8067 15.1367L9.71679 18.6124V22.9132L17.9393 18.1794ZM0.747589 3.68119V18.1794L8.9692 22.9127V18.6129L4.67406 16.1821L4.67266 16.1811L4.6708 16.1802C4.65633 16.1718 4.6442 16.1597 4.63066 16.1494C4.619 16.1401 4.60546 16.1326 4.5952 16.1223L4.59426 16.1209C4.58213 16.1093 4.57373 16.0948 4.56347 16.0817C4.55413 16.0691 4.54293 16.0584 4.53547 16.0453L4.535 16.0439C4.5266 16.0299 4.52147 16.0131 4.5154 15.9973C4.50933 15.9833 4.5014 15.9702 4.49767 15.9553C4.493 15.9375 4.49207 15.9184 4.4902 15.9002C4.48833 15.8862 4.4846 15.8722 4.4846 15.8582V5.83296L2.31697 4.58417L0.747589 3.68119ZM4.85886 0.884029L1.12232 3.03486L4.85793 5.1857L8.594 3.0344L4.85793 0.884029H4.85886ZM6.80203 14.307L8.96967 13.0592V3.68119L7.40029 4.58464L5.23219 5.83296V15.2109L6.80203 14.307ZM18.3131 3.42219L14.577 5.57303L18.3131 7.72386L22.0487 5.57256L18.3131 3.42219ZM17.9393 8.37112L15.7712 7.1228L14.2019 6.21935V10.4772L16.3695 11.725L17.9393 12.6289V8.37112ZM9.34253 17.9661L14.8225 14.8376L17.5618 13.2743L13.8285 11.1249L9.53012 13.5996L5.61252 15.8549L9.34253 17.9661Z" fill="#FF2D20"/>
</g>
<defs>
<clipPath id="clip0_1078_591">
<rect width="23.2128" height="24" fill="white"/>
</clipPath>
</defs>
</svg>
