<svg xmlns="http://www.w3.org/2000/svg" width="29.251" height="30" viewBox="0 0 29.251 30"><defs><style>.a{fill:#fff;}</style></defs><g transform="translate(-10 -10)"><g transform="translate(10 10)"><path class="a" d="M10,40V24.652h4.549L22.6,18.025a2.89,2.89,0,0,1-.808-2.007h.941a1.907,1.907,0,0,0,.6,1.4l1.283-1.057,1.291,1.063A1.921,1.921,0,0,0,24.628,14.1h-.47v-1.92H21.075l-1.087-1.653L20.772,10l.807,1.223h6.1L28.48,10l.785.531-1.087,1.653H25.094v1a2.888,2.888,0,0,1,1.552,4.842l8.052,6.62h4.553V40ZM24.622,17.594l-.371.3a1.959,1.959,0,0,0,.371.035A2.039,2.039,0,0,0,25,17.9l-.373-.3Zm1.232,1.016a2.764,2.764,0,0,1-2.463,0l-7.343,6.047H33.2l-7.343-6.047Zm12.448,7H10.941v13.43H38.3V25.612ZM24.152,36.644V28.016h.941v8.628Zm-4.718,0V28.016h.941v8.628Zm-4.717,0V28.016h.941v8.628Zm14.151,0V28.016h.941v8.628Zm4.718,0V28.016h.941v8.628Z" transform="translate(-10 -10)"/></g></g></svg>