<svg xmlns="http://www.w3.org/2000/svg" width="1471" height="311.718" viewBox="0 0 1471 311.718"><defs><style>.a,.d{fill:#82dee4;}.a,.b{fill-rule:evenodd;}.b,.c{fill:#fff;}.c{font-size:128px;font-family:Helvetica-Bold, Helvetica;font-weight:700;}.d{font-size:80px;font-family:Helvetica;}</style></defs><g transform="translate(0 -228.001)"><g transform="translate(-560.006 -254.198)"><path class="a" d="M813.643,520.011c29.048-1.851,24.657,7.409-3.884,6.735C778.008,525.9,744.147,533.4,720.082,552A156.445,156.445,0,0,0,709.1,571.869c25.416,11.954,54.633-9.176,87.228-24.582a109.121,109.121,0,0,1,17.647-8.333c48.217-17.427,93.393,1.851,123.623,39.06l36.31-35.525c-42.727-51.436-111.969-74.67-177.242-51.015a155.183,155.183,0,0,0-56.83,36.2c25.924-2.779,46.781-5.978,73.8-7.662Z" transform="translate(-89.567)"/><path class="b" d="M649.245,906.458c-1.013-4.041.591-11.87-5.066-14.9-16.212,1.009-23.475-8.84-17.732-23.067a54.536,54.536,0,0,0-4.729,23.319c2.955,14.815,15.96,18.6,27.527,14.648Z" transform="translate(-37.055 -232.054)"/><path class="b" d="M646.117,938.932c-11.991,2.189-23.054-2.442-24.826-12.037-2.534,17.425,10.64,28.705,29.132,26.937C653.717,947.6,651.943,942.72,646.117,938.932Z" transform="translate(-36.628 -267.138)"/><path class="b" d="M1192.135,861.284c14.354-13.469,18.915-7.829,26.852,3.62,15.2,22.056,37.578,68.188,136.2,38.219,11.823-3.536,10.049-17.341-2.789-13.89-2.616.674-19.336,4.125-29.639,4.462-12.748.421-8.442-5.388-.5-8.588,3.291-1.262,12.411-4.713,17.732-8.753,9.291-7.072,3.631-12.8-5.909-10.692-9.12,1.936-7.1-1.683-1.1-6.987,8.442-7.492,24.995-17.93,28.964-21.3,14.862-12.711,2.449-19.95-8.021-11.7-19.339,15.154-36.9,24.75-53.2,28.2-.591.084-1.18.253-1.774.336h-.083c-20.943,3.957-37.829-1.262-49.652-10.944-25.249-20.709-44.838-13.3-57.082,18.016Z" transform="translate(-379.733 -204.222)"/><path class="b" d="M1146.925,842.849Zm-106.734,7.072c21.364-21.046,34.285-33.674,57.422-15.323,11.99,9.514,28.369,12.208,49.312,8.251-25.078,4.631-47.2-5.724-68.4-33.167-11.822-14.9-27.7-.254-36.9,7.071-66.2,52.445-69.327,83.509-70,2.441-6.249-6.061-24.995-11.617-32.426,5.388,13.426-9.681,20.689-2.1,19.338,16.08-5.742,77.7,9.12,78.544,81.15,9.764.167-.168.335-.336.505-.5Z" transform="translate(-227.789 -192.858)"/><path class="b" d="M1011.1,795.983c2.787,83.173,17.986,56.655,78.87-1.094,8.529-8.166,24.234-20.961,31.75-11.533a201.34,201.34,0,0,1-12.16-17.679c-5.405-8.082-11.652-8.334-18.577-.757q-21.406,25.381-45.092,54.045c-5.066,6.061-10.3,9.176-13.847,8-7.685-2.442-11.485-21.635-20.943-30.98Z" transform="translate(-270.983 -166.533)"/><path class="b" d="M881.647,802.213c9.457,9.345,13.258,28.538,20.943,30.98-2.957-1.011-4.729-5.136-4.391-13.049.591-11.87.843-22.731.675-32.664-2.7-16.752-20.772-21.8-33.1-14.31-21.617,13.217-45.092,33.251-70.171,47.9.675,4.883-1.52,11.533,5.995,16.668,19.76-11.785,36.9-22.814,51.341-33.252,13.849-10.1,22.461-8.334,28.71-2.273Z" transform="translate(-141.527 -172.763)"/><path class="b" d="M864.127,756.092c12.329-7.492,26.176-5.388,31.5,8.418,0-4.293-.169-8.5-.338-12.459-.929-18.351-15.368-27.107-30.821-14.731A739.093,739.093,0,0,1,794.3,787.576c-6.334,4.63-4.814,8.839,1.012,12.8,25-14.564,47.2-31.063,68.821-44.28Z" transform="translate(-138.277 -149.792)"/><path class="a" d="M727.58,801.27a107.528,107.528,0,0,1-1.012-12.8v-3.536a103.6,103.6,0,0,1,13.426-48.826c-23.137-4.293-46.781-7.07-58.181,13.048-1.943,3.284-5.066,4.546-4.221,15.237,1.013,76.186,55.394,129.22,128.689,117.184a62.989,62.989,0,0,1-40.955-13.807,103.777,103.777,0,0,1-34.706-52.11,99.011,99.011,0,0,1-3.04-14.4Z" transform="translate(-70.551 -150.691)"/><path class="a" d="M803.909,928.749c-67.892,1.935-122.357-51.017-128.689-117.184a165.015,165.015,0,0,0-1.69,19.446,151.338,151.338,0,0,0,1.774,26.35c.591,4.125,1.436,8.249,2.365,12.29a150.029,150.029,0,0,0,4.306,14.9,154.2,154.2,0,0,0,49.23,69.7,168.143,168.143,0,0,0,193.37,12.965c9.461-5.809,2.111-14.479-4.39-10.017a101.813,101.813,0,0,1-30.821,14.308c19.169-7.069,36.9-18.182,50.327-33.587,6.163-7.156.424-16.414-5.575-9.933a110.734,110.734,0,0,1-44.585,29.3,118.825,118.825,0,0,0,51.68-40.829c10.556-14.731-3.885-29.8-14.018-12.963a106.618,106.618,0,0,1-47.457,42.175,99.586,99.586,0,0,0,45.092-43.1c4.476-8.418-5.151-15.993-11.906-8.165q-25.837,29.549-54.717,38.977c15.116-11.617,38.251-36.451,11.147-49.332-10.81,27.189-38,44.2-65.443,44.7Z" transform="translate(-68.179 -197.857)"/><g transform="translate(560.006 513.918)"><path class="b" d="M724.076,561.674c-87.651,2.948-144.987,43.691-164.07,110.954,24.741-59.349,93.055-95.043,161.284-93.275C749.831,580.11,753.125,560.748,724.076,561.674Z" transform="translate(-560.006 -561.641)"/><path class="b" d="M1038.406,567.609a6.573,6.573,0,1,0,6.594,6.573,6.573,6.573,0,0,0-6.594-6.573Z" transform="translate(-843.43 -565.226)"/></g><path class="b" d="M1646.356,795.4c4.306-2.442,8.95-2.357,10.3.168,1.434,2.525-.845,6.483-5.151,8.922s-8.949,2.358-10.386-.167.929-6.482,5.234-8.923Z" transform="translate(-649.195 -187.075)"/><path class="b" d="M1610.164,904.573c5.91-2.525,11.819-1.851,13.343,1.6s-2.031,8.25-7.857,10.859c-5.91,2.527-11.819,1.768-13.34-1.6-1.52-3.453,2.028-8.336,7.854-10.861Z" transform="translate(-625.922 -252.815)"/><path class="b" d="M1674.285,886.8c3.124-1.936,6.5-2.1,7.684-.337,1.182,1.852-.421,4.883-3.461,6.818-3.04,2.022-6.5,2.189-7.686.337-1.1-1.768.424-4.8,3.464-6.819Z" transform="translate(-667.076 -242.113)"/><g transform="translate(560.405 547.22)"><path class="b" d="M752.8,648.228a253.146,253.146,0,0,0-45.43-3.115c-34.452.927-63.669,9.934-87.228,24.582a143.235,143.235,0,0,0-41.884,39.818c-37.069,53.2-9.457,85.7,36.141,75.006-17.986.926-28.372-10.607-29.132-26.937A54.537,54.537,0,0,1,590,734.263c2.7-6.82,8.444-14.648,17.649-22.729a105.34,105.34,0,0,1,8.444-6.818c13.764-10.1,32.678-17.931,53.958-21.468a150.857,150.857,0,0,1,27.19-2.1c6.08.084,12.583-.421,10.134-8.672-2.028-6.818-3.125-8.839,6.247-10.859,11.823-2.525,33.1-1.263,38.506-1.178C761.746,660.688,763.689,650,752.8,648.228Z" transform="translate(-561.005 -645.047)"/><path class="b" d="M947.523,713.736a4.673,4.673,0,1,0,4.645,4.714A4.673,4.673,0,0,0,947.523,713.736Z" transform="translate(-790.355 -686.31)"/><path class="b" d="M1095.835,659.883c-7.262-1.516-13.933.674-14.862,4.883-.845,4.208,4.39,8.839,11.653,10.438,7.346,1.516,13.933-.673,14.862-4.883C1108.329,666.113,1103.178,661.4,1095.835,659.883Z" transform="translate(-873.306 -653.671)"/><path class="b" d="M1171.925,691.322c-4.476-.927-8.528.42-9.036,3.03-.591,2.525,2.616,5.388,7.092,6.314,4.476,1.011,8.532-.336,9.12-2.946C1179.608,695.108,1176.4,692.248,1171.925,691.322Z" transform="translate(-922.526 -672.669)"/></g></g><g transform="translate(-25 -50)"><text class="c" transform="translate(500 425)"><tspan x="0" y="0">Commencement</tspan></text><text class="d" transform="translate(650 550)"><tspan x="0" y="0">Inspiring Innovations</tspan></text></g></g></svg>