<svg xmlns="http://www.w3.org/2000/svg" width="30.748" height="30" viewBox="0 0 30.748 30"><defs><style>.a{fill:#fff;}</style></defs><g transform="translate(-8.677 -10.426)"><g transform="translate(8.677 10.426)"><path class="a" d="M38.912,40.426H9.189a.509.509,0,0,1-.509-.564L9.7,30.711a.512.512,0,0,1,.509-.453h.55L11.753,17a.51.51,0,0,1,.511-.47h3.074a.511.511,0,0,1,.511.47l.99,13.257h2.086V26.382a1.213,1.213,0,0,1,1.218-1.208h1.664a1.214,1.214,0,0,1,1.218,1.208v3.876h1.433l7.076-3.011a.513.513,0,0,1,.714.467v2.28l6.458-2.747a.514.514,0,0,1,.716.467v12.2a.509.509,0,0,1-.512.509ZM12.777,39.411h2.05V36.362h-2.05v3.049Zm2.086-21.863H12.739L11.79,30.26h4.022l-.95-12.712Zm2.473,17.345-.4-3.618H10.673l-.91,8.136h1.99V35.853a.51.51,0,0,1,.513-.509h3.074a.51.51,0,0,1,.512.509v3.559h1.99l-.506-4.518ZM22,26.384a.191.191,0,0,0-.193-.192H20.145a.191.191,0,0,0-.193.192V30.26H22V26.384Zm2.05,4.891h-6.09l.912,8.136h5.178V31.275Zm3.586,8.136h1.026V36.869H27.638v2.542Zm3.588-8.644V28.489L25.076,31.1v8.308h1.538V36.362a.512.512,0,0,1,.513-.51h2.05a.512.512,0,0,1,.513.51v3.049h1.538V30.767Zm3.587,8.644h1.025V36.869H34.813v2.542ZM38.4,28.489,32.251,31.1v8.308h1.538V36.362a.511.511,0,0,1,.513-.51h2.049a.513.513,0,0,1,.514.51v3.049H38.4V28.489Zm-3.687-8.911-.429.008a3.594,3.594,0,0,1-2.5-.81,7.519,7.519,0,0,1-.765.7,4.7,4.7,0,0,1-2.864,1.13,2.957,2.957,0,0,1-1.229-.2A6.127,6.127,0,0,1,24.7,18.914a3.04,3.04,0,0,1-1.6.589,9.589,9.589,0,0,1-1.61.079,3.255,3.255,0,0,1-3-2.067,6.378,6.378,0,0,1-.469-1.328,5.366,5.366,0,0,1-.109-.578c-.092-.482-.576-.672-1.484-.591a7.024,7.024,0,0,0-1.171.222c-.2.052-.383.109-.551.167-.1.034-.169.058-.2.072a.51.51,0,0,1-.672-.633,3.769,3.769,0,0,1,1.031-1.482,5.764,5.764,0,0,1,4.069-1.409h.837a4.089,4.089,0,0,1,.819-.464,7.323,7.323,0,0,1,2.955-.552,3.517,3.517,0,0,1,1.2.2,2.134,2.134,0,0,1,1.026.726c.092-.1.192-.193.3-.29a4.549,4.549,0,0,1,3.077-1.148,2.784,2.784,0,0,1,1.663.6,6.132,6.132,0,0,1,1.746,1.825c.828,1.283,1.811,2.157,2.772,2.157l.089.007a1.023,1.023,0,0,0,.651-.172c.483-.316.8-1.046.8-2.376a.513.513,0,0,1,.855-.378c.029.027.076.071.138.134a4.358,4.358,0,0,1-3.143,7.356Zm3.043-5.734a2.784,2.784,0,0,1-1.122,1.843,2.045,2.045,0,0,1-1.344.335c-1.41-.017-2.606-1.083-3.6-2.626a5.106,5.106,0,0,0-1.452-1.526,2.935,2.935,0,0,0-.786-.391c-.117-.032-.187-.04-.183-.042l-.094.01a3.536,3.536,0,0,0-2.97,1.5,2.38,2.38,0,0,0-.155.249.513.513,0,0,1-.974-.221.871.871,0,0,0-.687-.874,2.536,2.536,0,0,0-.849-.142A6.286,6.286,0,0,0,21,12.422a2.534,2.534,0,0,0-.687.4.51.51,0,0,1-.359.146H18.926a4.759,4.759,0,0,0-3.391,1.155,7.038,7.038,0,0,1,.8-.12c1.368-.124,2.366.267,2.591,1.452a4.561,4.561,0,0,0,.094.495,5.419,5.419,0,0,0,.392,1.118,2.275,2.275,0,0,0,2.1,1.494l.073,0a8.51,8.51,0,0,0,1.367-.071,2.369,2.369,0,0,0,1.014-.313l-.79-.784a.505.505,0,0,1,0-.719.514.514,0,0,1,.724,0L24.925,17.7l.513.51a5.132,5.132,0,0,0,1.834,1.242,1.993,1.993,0,0,0,.792.141l.087-.007a3.681,3.681,0,0,0,2.231-.906,6.273,6.273,0,0,0,.7-.648,3.459,3.459,0,0,0,.244-.28.516.516,0,0,1,.77-.051,3.243,3.243,0,0,0,.247.224,2.9,2.9,0,0,0,1.179.591,2.236,2.236,0,0,0,.7.059l.076-.006c.133,0,.265,0,.389,0a3.379,3.379,0,0,0,3.066-4.719Zm-17.8,24.041a.512.512,0,0,1-.513-.508V33.308a.513.513,0,0,1,1.026,0v4.069a.512.512,0,0,1-.513.508Zm2.563,0A.512.512,0,0,1,22,37.378V33.308a.513.513,0,0,1,1.026,0v4.069a.511.511,0,0,1-.512.508Zm6.662-3.558h-2.05a.512.512,0,0,1-.513-.511V31.784a.512.512,0,0,1,.513-.51h2.05a.512.512,0,0,1,.513.51v2.033a.514.514,0,0,1-.513.511Zm-.512-2.035H27.638v1.016h1.026V32.293Zm7.686,2.035H34.3a.511.511,0,0,1-.513-.511V31.784a.511.511,0,0,1,.513-.51h2.049a.513.513,0,0,1,.514.51v2.033a.514.514,0,0,1-.514.511Zm-.513-2.035H34.813v1.016h1.025V32.293Z" transform="translate(-8.677 -10.426)"/></g></g></svg>