<svg xmlns="http://www.w3.org/2000/svg" width="30.002" height="30" viewBox="0 0 30.002 30"><defs><style>.a{fill:#fff;}</style></defs><g transform="translate(-9.999 -10)"><g transform="translate(9.999 10)"><path class="a" d="M17,14a1,1,0,1,1,1-1,1,1,0,0,1-1,1Zm.016,2.5a.5.5,0,1,1-.005-1h.005a.5.5,0,1,1,0,1ZM17,20a1,1,0,1,1,1-1,1,1,0,0,1-1,1Zm-3-3a1,1,0,1,1,1-1,1,1,0,0,1-1,1ZM31.5,39h-8a.5.5,0,0,1,0-1h8A1.5,1.5,0,0,0,33,36.5v-13A1.5,1.5,0,0,0,31.5,22h-18A1.5,1.5,0,0,0,12,23.5v5a.5.5,0,0,1-.5.5H11v2h.5a.5.5,0,0,1,.5.5v5A1.5,1.5,0,0,0,13.5,38h8a.5.5,0,0,1,.5.5v1a.5.5,0,0,1-1,0V39H13.5A2.5,2.5,0,0,1,11,36.5V32h-.5a.5.5,0,0,1-.5-.5v-3a.5.5,0,0,1,.5-.5H11V23.5A2.5,2.5,0,0,1,13.5,21h18A2.5,2.5,0,0,1,34,23.5v13A2.5,2.5,0,0,1,31.5,39ZM25,32H20a2,2,0,1,1,2-2,.5.5,0,1,1-1,0,1,1,0,1,0-1,1h5a1,1,0,1,0-1-1,.5.5,0,1,1-1,0,2,2,0,1,1,2,2ZM20,17a1,1,0,1,1,1-1,1,1,0,0,1-1,1Zm12.628,2.819a.5.5,0,0,1-.385.181.5.5,0,0,1-.386-.818,5,5,0,1,0-7.715,0,.5.5,0,1,1-.77.637,6,6,0,0,1-.872-1.433,5.948,5.948,0,0,1-.872,1.433.5.5,0,0,1-.77-.638,5,5,0,1,0-7.714,0,.5.5,0,1,1-.771.637A6,6,0,1,1,22.5,13.609a6,6,0,1,1,10.129,6.209ZM31,17a1,1,0,1,1,1-1,1,1,0,0,1-1,1Zm8.492,19.252a1,1,0,0,1-.487.13.937.937,0,0,1-.485-.136l-3.268-1.869a.5.5,0,0,1,.5-.868L39,35.369V25.532l-3.252,1.846a.5.5,0,0,1-.495-.868l3.283-1.869a.983.983,0,0,1,1-.013.966.966,0,0,1,.47.815v10a.965.965,0,0,1-.509.808ZM28.015,16.5a.5.5,0,1,1-.006-1h.006a.5.5,0,0,1,0,1ZM28,14a1,1,0,1,1,1-1,1,1,0,0,1-1,1Zm0,6a1,1,0,1,1,1-1,1,1,0,0,1-1,1Zm-3-3a1,1,0,1,1,1-1,1,1,0,0,1-1,1Z" transform="translate(-9.999 -10)"/></g></g></svg>