<svg width="29" height="24" viewBox="0 0 29 24" fill="none" xmlns="http://www.w3.org/2000/svg">
<path fill-rule="evenodd" clip-rule="evenodd" d="M17.5199 0.000168649C15.6571 -0.00653362 14.3195 0.185977 12.8174 0.676621C12.3118 0.841774 11.5033 1.15925 11.0208 1.38217C10.5383 1.60509 9.6436 2.11958 9.03148 2.52777C8.41935 2.93597 7.48838 3.64617 6.96211 4.10253C6.43584 4.55888 5.63277 5.36195 5.17642 5.88822C4.72007 6.41449 4.07775 7.24969 3.75078 7.74301C3.42381 8.23633 3.13762 8.62096 3.11433 8.59767C3.01799 8.50133 3.91281 6.77551 4.53634 5.85549L5.20552 4.86626L4.48542 5.56454C4.08985 5.94859 3.38596 6.7687 2.91794 7.3866C2.44993 8.0045 1.82684 8.94717 1.53594 9.48142C1.24504 10.0157 0.833664 10.95 0.623094 11.5581L0.241225 12.6637V12.8823C0.0700844 13.4393 -0.000854126 13.8489 7.75326e-06 14.499C0.00362166 15.212 0.0712064 15.7685 0.241225 16.3926V16.6205L0.55763 17.5516C0.730698 18.0636 1.06879 18.8221 1.31046 19.2354C1.55213 19.6488 2.11279 20.3675 2.55426 20.8356C2.99573 21.3038 3.70273 21.9188 4.12537 22.1995C5.38633 23.0368 6.66315 23.5385 8.26774 23.8251C8.77981 23.9166 9.84707 23.994 10.639 23.9997C11.4309 24.0054 12.6286 23.9286 13.3011 23.8288C13.9737 23.7289 15.1374 23.4699 15.8869 23.2541C16.6364 23.0384 17.7896 22.625 18.4509 22.334L19.6547 21.8067L20.4184 22.0358C21.2868 22.2986 25.2405 23.1953 25.2954 23.1414C25.3152 23.122 24.8654 22.1714 24.2953 21.0284L23.2588 18.9481L24.1789 17.8425C24.6867 17.2344 25.395 16.2962 25.75 15.7586C26.1051 15.221 26.646 14.2522 26.9538 13.6056C27.2617 12.959 27.6214 12.0381 27.7539 11.5581C27.8865 11.078 28.0496 10.2246 28.114 9.65962C28.1948 8.95055 28.193 8.31965 28.1067 7.62299C28.0379 7.06787 27.8579 6.25478 27.7067 5.81912C27.5554 5.38346 27.2019 4.62405 26.9247 4.13162C26.29 3.00401 24.9394 1.62947 23.9607 1.11304C23.5677 0.905653 23.2127 0.734811 23.1679 0.734811C23.1231 0.734811 23.3506 0.945959 23.677 1.20396C24.332 1.72168 25.1399 2.69564 25.5391 3.4479L25.801 3.93523L25.5391 3.5861C25.3959 3.39407 24.8827 2.83843 24.3971 2.35321C23.7239 1.68039 23.2786 1.35515 22.5242 0.982116C21.8809 0.664021 21.128 0.409815 20.3712 0.251111C19.5113 0.0707979 18.7667 0.00465389 17.5199 0.000168649ZM17.4617 1.28761C18.7369 1.28962 19.2865 1.34558 19.9966 1.53492C20.4956 1.66797 21.2549 1.94212 21.6841 2.14591C22.2366 2.40829 22.7238 2.77464 23.3497 3.40062C24.0284 4.0794 24.3442 4.51397 24.7172 5.27359C24.9843 5.81766 25.2817 6.62941 25.3755 7.07747C25.4692 7.52552 25.5453 8.29271 25.5464 8.78314C25.5499 10.3255 25.1197 12.0637 24.3244 13.7111C24.1081 14.1591 23.7072 14.8661 23.4334 15.2822C23.1595 15.6982 22.5268 16.4617 22.0296 16.9806C21.5323 17.4995 21.1276 17.9576 21.1276 17.9953C21.1276 18.033 21.5466 18.7034 22.0586 19.4864C22.5707 20.2693 22.9897 20.9539 22.9897 21.0066C22.9897 21.0592 22.9625 21.1011 22.9279 21.1011C22.8932 21.1011 22.1148 20.8131 21.2004 20.461C20.2859 20.109 19.4032 19.821 19.2401 19.821C19.077 19.821 18.664 19.9455 18.32 20.0974C17.1844 20.5987 15.0669 21.2238 13.9267 21.3957C13.3094 21.4888 12.3876 21.5595 11.8755 21.5521C10.0269 21.5253 8.63709 21.2052 7.04576 20.4392C6.11353 19.9905 5.78356 19.7501 4.94003 18.9045C4.17718 18.1398 3.83731 17.6934 3.51438 17.0279C3.28147 16.5478 3.01128 15.8419 2.9143 15.4604C2.66436 14.4771 2.68806 12.8397 2.96886 11.7217C3.09603 11.2154 3.46458 10.2667 3.78715 9.61235C4.10971 8.95797 4.68382 8.01073 5.06368 7.50661C5.44355 7.00249 6.22675 6.14114 6.80209 5.59363C7.9196 4.53018 9.27458 3.57243 10.5953 2.91328C11.7384 2.34279 13.2577 1.82618 14.6468 1.53492C15.5377 1.34811 16.2374 1.28569 17.4617 1.28761ZM12.612 16.093L12.6596 13.8778L10.7708 15.0523C9.73193 15.6983 8.8667 16.2107 8.84805 16.191C8.75087 16.0884 7.27834 13.5838 7.27819 13.5209C7.27809 13.4803 8.14185 12.9566 9.19765 12.3571C10.2534 11.7577 11.1173 11.2411 11.1173 11.2091C11.1173 11.1771 10.2534 10.6605 9.19765 10.0611C8.14185 9.46163 7.27809 8.93793 7.27819 8.89726C7.27834 8.83487 8.75027 6.33056 8.84686 6.22836C8.86486 6.20932 9.65393 6.69874 10.6003 7.31597C11.5468 7.93319 12.3974 8.46747 12.4907 8.50326C12.6365 8.55923 12.6535 8.25677 12.6123 6.33915L12.5643 4.10997H14.1863H15.8083L15.7256 6.38318L15.643 8.65638L16.4357 8.14665L18.2176 7.00055C18.7617 6.65055 19.2689 6.32734 19.3448 6.2823C19.4348 6.22885 19.7668 6.67418 20.3008 7.56449C20.7507 8.31474 21.1076 8.93719 21.0939 8.9477C21.0802 8.95821 20.3096 9.39853 19.3814 9.92618C18.4533 10.4538 17.5696 10.9638 17.4177 11.0594L17.1416 11.2332L18.9889 12.2774C20.0049 12.8517 20.9004 13.3583 20.979 13.4032C21.0795 13.4606 20.8795 13.8886 20.3032 14.8496C19.6104 16.0047 19.4537 16.198 19.2835 16.1069C19.1728 16.0476 18.3771 15.5605 17.5153 15.0243C16.6534 14.4881 15.879 14.0071 15.7944 13.9556C15.6679 13.8784 15.6554 14.2562 15.7241 16.085L15.8076 18.3082H14.186H12.5643L12.612 16.093Z" fill="#F68F1E"/>
</svg>
