<svg xmlns="http://www.w3.org/2000/svg" xmlns:xlink="http://www.w3.org/1999/xlink" width="50" height="50" viewBox="0 0 50 50"><defs><style>.a{fill:#fff;}.b{fill:#005d6d;}.c{clip-path:url(#a);}.d{fill:#5a69e6;}.e{fill:#7984eb;}.f{fill:#b5baf3;}.g{fill:#979fef;}.h{fill:#a8ebfa;}.i{fill:#76e2f8;}</style><clipPath id="a"><rect class="a" width="32" height="32"/></clipPath></defs><g transform="translate(774 -319)"><circle class="b" cx="25" cy="25" r="25" transform="translate(-774 319)"/><g class="c" transform="translate(-765 328)"><path class="d" d="M26.594,13.931v8.35a.945.945,0,0,1-.469.806L18.544,27.4a.942.942,0,0,1-.45.113L16.219,22.5l1.875-4.428,4.281-4.218,4.087-.395A.847.847,0,0,1,26.594,13.931Z" transform="translate(5.406 4.487)"/><path class="e" d="M19.734,18.075v9.437a.943.943,0,0,1-.45-.113l-7.519-4.312a.946.946,0,0,1-.469-.806v-8.35a.847.847,0,0,1,.131-.469l4.251.486Z" transform="translate(3.766 4.487)"/><path class="f" d="M28.07,14.653,19.7,19.266,11.4,14.653a1.021,1.021,0,0,1,.356-.337s7.538-4.331,7.556-4.331a.874.874,0,0,1,.787,0c.019,0,7.619,4.331,7.619,4.331A1.022,1.022,0,0,1,28.07,14.653Z" transform="translate(3.798 3.297)"/><path class="g" d="M25.994,14.653l-8.369,4.613V9.891a1.009,1.009,0,0,1,.394.094c.019,0,7.619,4.331,7.619,4.331A1.022,1.022,0,0,1,25.994,14.653Z" transform="translate(5.875 3.297)"/><path class="h" d="M16.922,19.266a.928.928,0,0,1-.938.937H6.609a.928.928,0,0,1-.937-.937V13.641a.937.937,0,0,1,1.875,0v4.688h8.437A.928.928,0,0,1,16.922,19.266Z" transform="translate(1.891 4.234)"/><path class="i" d="M16.688,19.266a.928.928,0,0,1-.938.937H6.375V12.7a.928.928,0,0,1,.937.937v4.688H15.75A.928.928,0,0,1,16.688,19.266Z" transform="translate(2.125 4.234)"/><path class="d" d="M15.281,4.087v8.288a.945.945,0,0,1-.469.806L7.294,17.494a.942.942,0,0,1-.45.113L4.969,12.6,6.844,8.231l4.219-4.218,4.087-.395A.847.847,0,0,1,15.281,4.087Z" transform="translate(1.656 1.206)"/><path class="e" d="M8.5,8.231v9.375a.943.943,0,0,1-.45-.113L.469,13.181A.945.945,0,0,1,0,12.375V4.087a.847.847,0,0,1,.131-.469L4.445,4.1Z" transform="translate(0 1.206)"/><path class="f" d="M16.773,4.825,8.467,9.437.1,4.825a1.021,1.021,0,0,1,.356-.337S8.055.094,8.073.094a.874.874,0,0,1,.788,0c.019,0,7.556,4.394,7.556,4.394A1.021,1.021,0,0,1,16.773,4.825Z" transform="translate(0.033)"/><path class="g" d="M14.681,4.825,6.375,9.437V0a1.01,1.01,0,0,1,.394.094c.019,0,7.556,4.394,7.556,4.394A1.021,1.021,0,0,1,14.681,4.825Z" transform="translate(2.125)"/><path class="h" d="M21.141,8.016v7.5a.937.937,0,1,1-1.875,0V8.953H10.828a.938.938,0,1,1,0-1.875H20.2A.928.928,0,0,1,21.141,8.016Z" transform="translate(3.297 2.359)"/><path class="i" d="M18.562,8.016v7.5a.928.928,0,0,1-.937.938V7.078A.928.928,0,0,1,18.562,8.016Z" transform="translate(5.875 2.359)"/></g></g></svg>