<svg width="24" height="24" viewBox="0 0 24 24" fill="none" xmlns="http://www.w3.org/2000/svg">
<g clip-path="url(#clip0_2266_5122)">
<path d="M8.01699 9.03531L7.45041 7.26512C7.18604 7.25542 6.9197 7.31935 6.68616 7.45496L0.719868 10.9084C0.496978 11.0372 0.317493 11.2203 0.192993 11.4363L7.42726 18.2987L7.45041 18.3209L8.01699 17.7821V9.03531Z" fill="#80BFFF"/>
<path d="M14.6615 11.4635L7.45038 18.321V11.7186L8.70138 9.58479L7.45038 7.26514C7.68293 7.27095 7.91355 7.3339 8.122 7.45498L14.1346 10.9355C14.3575 11.0644 14.537 11.2475 14.6615 11.4635Z" fill="#8095FF"/>
<path d="M7.45041 15.6383L9.90675 19.4889L7.45041 24.0002C7.20244 24.0002 6.95442 23.9363 6.73247 23.8075L0.719859 20.3269C0.274031 20.0692 0 19.5926 0 19.0763V12.1597C0 11.901 0.0685313 11.6531 0.192984 11.437L7.45041 15.6383Z" fill="#8095FF"/>
<path d="M14.8545 12.1865V19.1021C14.8545 19.6185 14.5804 20.0951 14.1346 20.3527L8.16832 23.8071C7.94636 23.9359 7.69839 23.9999 7.45038 23.9999V15.638L14.6615 11.4639C14.7859 11.6799 14.8545 11.9279 14.8545 12.1865Z" fill="#8066FF"/>
<path d="M15.7252 0L17.0775 6.48942L15.7252 12.4219H8.15344C7.76532 12.4219 7.45032 12.1069 7.45032 11.7188V0.703125C7.45032 0.315 7.76532 0 8.15344 0H15.7252Z" fill="#E6F2F2"/>
<path d="M12.754 3.34237C12.7515 3.33591 12.749 3.32953 12.7464 3.32311C12.6187 3.01284 12.3196 2.8125 11.9842 2.8125C11.9839 2.8125 11.9836 2.8125 11.9834 2.8125C11.6476 2.81283 11.3484 3.01383 11.2213 3.32456C11.2191 3.32991 11.217 3.33525 11.2149 3.34059L9.20846 8.60878C9.07027 8.97169 9.25238 9.37791 9.61528 9.51609C9.69764 9.54745 9.78225 9.56231 9.86541 9.56231C10.1487 9.56231 10.4158 9.38977 10.5226 9.10927L10.8499 8.25005H13.103L13.4265 9.10725C13.5636 9.47053 13.9691 9.65395 14.3325 9.51684C14.6959 9.37973 14.8793 8.97408 14.7421 8.61075L12.754 3.34237ZM11.3855 6.84384L11.9817 5.27864L12.5723 6.84384H11.3855Z" fill="#4D628C"/>
<path d="M24 0.703125V11.7188C24 12.1069 23.685 12.4219 23.2969 12.4219H21.8264L18.1116 15.7575C17.6837 16.1666 16.9197 15.8239 16.9388 15.2344V12.4219H15.7252V0H23.2969C23.685 0 24 0.315 24 0.703125Z" fill="#CFE6E6"/>
<path d="M19.6952 6.89259C20.5633 6.61884 21.1923 5.83125 21.1923 4.9043C21.1923 3.75089 20.2187 2.8125 19.0219 2.8125H17.602C17.6017 2.8125 17.6014 2.81255 17.6011 2.81255C17.6008 2.81255 17.6005 2.8125 17.6002 2.8125C17.2119 2.8125 16.8971 3.12731 16.8971 3.51562V8.85905C16.8971 9.24736 17.2119 9.56217 17.6002 9.56217C17.9885 9.56217 18.3033 9.24736 18.3033 8.85905V7.43972L19.9614 9.32358C20.1004 9.4815 20.2944 9.56217 20.4895 9.56217C20.6545 9.56217 20.8202 9.50442 20.9538 9.38686C21.2453 9.13031 21.2736 8.68603 21.017 8.39452L19.6952 6.89259ZM19.0219 4.2187C19.4361 4.2187 19.7861 4.53267 19.7861 4.90425C19.7861 5.27583 19.4361 5.5898 19.0219 5.5898C18.8555 5.5898 18.577 5.59087 18.311 5.59214C18.3098 5.33297 18.308 4.48983 18.3072 4.21866L19.0219 4.2187Z" fill="#283D66"/>
</g>
<defs>
<clipPath id="clip0_2266_5122">
<rect width="24" height="24" fill="white"/>
</clipPath>
</defs>
</svg>
