<svg width="24" height="24" viewBox="0 0 24 24" fill="none" xmlns="http://www.w3.org/2000/svg">
<g clip-path="url(#clip0_2266_5087)">
<path d="M18.6655 16.4962H19.7328C23.5221 16.4962 25.4317 11.8931 22.7501 9.21157C22.0133 8.47467 21.008 8.00606 19.8937 7.96476C20.983 5.18586 18.9388 2.14209 15.9204 2.14209C13.5716 2.14209 11.6652 4.0401 11.6533 6.38721C9.65795 5.95132 7.65643 6.98232 6.83803 8.82457C4.0547 6.71819 -3.05176e-05 8.69264 -3.05176e-05 12.2289C-3.05176e-05 14.5856 1.91042 16.4962 4.26713 16.4962H5.33444V11.7262C5.33444 11.3122 5.67039 10.9762 6.08441 10.9762H17.9156C18.3296 10.9762 18.6655 11.3122 18.6655 11.7262L18.6655 16.4962Z" fill="#6699FF"/>
<path d="M6.08445 11.4448H17.9156C18.0709 11.4448 18.1969 11.5708 18.1969 11.7261V13.3613H5.8032V11.7261C5.8032 11.5708 5.92915 11.4448 6.08445 11.4448ZM13.0903 15.423C13.216 15.0758 12.6886 14.8848 12.5629 15.2319L10.9097 19.7959C10.7839 20.1431 11.3113 20.3341 11.4371 19.987L13.0903 15.423ZM14.0805 19.593C13.8186 19.8548 14.2164 20.2526 14.4782 19.9908L16.6607 17.8083C16.7704 17.6986 16.7704 17.5204 16.6607 17.4106L14.4782 15.2281C14.2164 14.9663 13.8186 15.3641 14.0805 15.6259L16.064 17.6095L14.0805 19.593ZM9.52186 19.9908C9.78368 20.2526 10.1814 19.8548 9.9196 19.593L7.93601 17.6095L9.9196 15.6259C10.1814 15.3641 9.78368 14.9663 9.52186 15.2281L7.3394 17.4106C7.22961 17.5204 7.22961 17.6986 7.3394 17.8084L9.52186 19.9908ZM7.63283 12.1218C7.26742 12.1218 7.25137 12.6843 7.64357 12.6843C8.00897 12.6843 8.02503 12.1218 7.63283 12.1218ZM8.8478 12.1218C8.48239 12.1218 8.46634 12.6843 8.85854 12.6843C9.22394 12.6843 9.24 12.1218 8.8478 12.1218ZM10.0628 12.1218C9.69736 12.1218 9.68131 12.6843 10.0735 12.6843C10.4389 12.6843 10.455 12.1218 10.0628 12.1218ZM18.1968 13.9238V21.5764C18.1968 21.7317 18.0709 21.8576 17.9156 21.8576H6.08444C5.92915 21.8576 5.80319 21.7317 5.80319 21.5764V13.9238H18.1968Z" fill="#CCCCCC"/>
</g>
<defs>
<clipPath id="clip0_2266_5087">
<rect width="24" height="24" fill="white"/>
</clipPath>
</defs>
</svg>
