<svg xmlns="http://www.w3.org/2000/svg" xmlns:xlink="http://www.w3.org/1999/xlink" width="50" height="50" viewBox="0 0 50 50"><defs><style>.a{fill:#fff;}.b{fill:#005d6d;}.c{clip-path:url(#a);}.d{fill:#f60;}.e{fill:#fc0;}.f{fill:#0089cc;}.g{fill:#009939;}.h{fill:#bf0000;}.i{fill:#fc0007;}.j{fill:#1cd306;}.k{fill:#0f7504;}.l{fill:#0c5e87;}.m{fill:#6b0001;}</style><clipPath id="a"><rect class="a" width="32.9" height="32"/></clipPath></defs><g transform="translate(774 -319)"><circle class="b" cx="25" cy="25" r="25" transform="translate(-774 319)"/><g class="c" transform="translate(-765 328)"><path class="d" d="M17.395,20.268a7.4,7.4,0,1,1-7.4-7.4A7.4,7.4,0,0,1,17.395,20.268Z" transform="translate(0.864 4.289)"/><path class="e" d="M28.373,12.5a7.4,7.4,0,1,1-7.4-7.4A7.4,7.4,0,0,1,28.373,12.5Z" transform="translate(4.524 1.698)"/><path class="f" d="M14.8,12.374a7.4,7.4,0,1,1-7.4-7.4A7.4,7.4,0,0,1,14.8,12.374Z" transform="translate(0.001 1.657)"/><path class="g" d="M25.907,20.268a7.4,7.4,0,1,1-7.4-7.4A7.4,7.4,0,0,1,25.907,20.268Z" transform="translate(3.701 4.289)"/><path class="h" d="M21.589,7.439a7.4,7.4,0,1,1-7.4-7.4A7.4,7.4,0,0,1,21.589,7.439Z" transform="translate(2.262 0.013)"/><path class="i" d="M13.571,12.448c0,.156.013.308.023.462A7.4,7.4,0,0,0,19.327,5.7c0-.156-.014-.309-.023-.462A7.4,7.4,0,0,0,13.571,12.448Z" transform="translate(4.524 1.747)"/><path class="j" d="M14.3,13.571a7.375,7.375,0,0,0,9.56,3.032,7.375,7.375,0,0,0-9.56-3.032Z" transform="translate(4.768 4.289)"/><path class="k" d="M11.1,19.6a7.364,7.364,0,0,0,1.727,4.748,7.393,7.393,0,0,0,0-9.5A7.364,7.364,0,0,0,11.1,19.6Z" transform="translate(3.701 4.952)"/><path class="l" d="M3.355,16.537a7.388,7.388,0,0,0,9.315-3.065,7.39,7.39,0,0,0-9.315,3.065Z" transform="translate(1.118 4.289)"/><path class="m" d="M6.818,5.12c-.017.206-.032.413-.032.624a7.4,7.4,0,0,0,5.726,7.2c.017-.206.031-.413.031-.624A7.4,7.4,0,0,0,6.818,5.12Z" transform="translate(2.262 1.707)"/><path class="a" d="M8.081,21.275H6.923A1.852,1.852,0,0,1,5.07,19.427V8.947A1.853,1.853,0,0,1,6.923,7.1H21.441a1.852,1.852,0,0,1,1.853,1.848v10.48a1.852,1.852,0,0,1-1.853,1.848H16.5L6.572,26.14Z" transform="translate(1.69 2.366)"/></g></g></svg>