<svg width="24" height="24" viewBox="0 0 24 24" fill="none" xmlns="http://www.w3.org/2000/svg">
<g clip-path="url(#clip0_2415_2058)">
<path fill-rule="evenodd" clip-rule="evenodd" d="M17.2157 9.1875C17.2157 8.79917 17.5305 8.48438 17.9188 8.48438H21.0562C21.4445 8.48438 21.7593 8.79917 21.7593 9.1875C21.7593 9.57583 21.4445 9.89062 21.0562 9.89062H17.9188C17.5305 9.89062 17.2157 9.57583 17.2157 9.1875Z" fill="#295FCC"/>
<path fill-rule="evenodd" clip-rule="evenodd" d="M19.4812 8.664C19.8695 8.664 20.1843 8.9788 20.1843 9.36713V14.8125C20.1843 15.2008 19.8695 15.5156 19.4812 15.5156C19.0928 15.5156 18.778 15.2008 18.778 14.8125V9.36713C18.778 8.9788 19.0928 8.664 19.4812 8.664Z" fill="#295FCC"/>
<path fill-rule="evenodd" clip-rule="evenodd" d="M2.9438 8.664C3.33213 8.664 3.64693 8.9788 3.64693 9.36713V14.8125C3.64693 15.2008 3.33213 15.5156 2.9438 15.5156C2.55548 15.5156 2.24068 15.2008 2.24068 14.8125V9.36713C2.24068 8.9788 2.55548 8.664 2.9438 8.664Z" fill="#295FCC"/>
<path fill-rule="evenodd" clip-rule="evenodd" d="M11.2125 9.89062C10.0475 9.89062 9.10309 10.835 9.10309 12C9.10309 13.165 10.0475 14.1094 11.2125 14.1094C12.3774 14.1094 13.3218 13.165 13.3218 12C13.3218 10.835 12.3774 9.89062 11.2125 9.89062ZM7.69684 12C7.69684 10.0584 9.27084 8.48438 11.2125 8.48438C13.1541 8.48438 14.7281 10.0584 14.7281 12C14.7281 13.9416 13.1541 15.5156 11.2125 15.5156C9.27084 15.5156 7.69684 13.9416 7.69684 12Z" fill="#295FCC"/>
<path fill-rule="evenodd" clip-rule="evenodd" d="M14.6928 8.47281C12.7707 6.55069 9.65432 6.55069 7.7322 8.47281C7.45761 8.74739 7.01242 8.74739 6.73783 8.47281C6.46324 8.19822 6.46324 7.75302 6.73783 7.47844C9.20912 5.00715 13.2159 5.00715 15.6872 7.47844C15.9618 7.75302 15.9618 8.19822 15.6872 8.47281C15.4126 8.74739 14.9674 8.74739 14.6928 8.47281Z" fill="#2EE6E6"/>
<path fill-rule="evenodd" clip-rule="evenodd" d="M6.73779 15.5272C7.01237 15.2526 7.45757 15.2526 7.73215 15.5272C9.65427 17.4493 12.7706 17.4493 14.6928 15.5272C14.9673 15.2526 15.4125 15.2526 15.6871 15.5272C15.9617 15.8018 15.9617 16.247 15.6871 16.5215C13.2158 18.9928 9.20908 18.9928 6.73779 16.5215C6.4632 16.247 6.4632 15.8018 6.73779 15.5272Z" fill="#2EE6E6"/>
<path fill-rule="evenodd" clip-rule="evenodd" d="M16.6815 6.48411C13.661 3.46367 8.76389 3.46367 5.74345 6.48411C5.46886 6.7587 5.02366 6.7587 4.74908 6.48411C4.47449 6.20953 4.47449 5.76433 4.74908 5.48974C8.3187 1.92013 14.1062 1.92013 17.6759 5.48974C17.9504 5.76433 17.9504 6.20953 17.6759 6.48411C17.4013 6.7587 16.9561 6.7587 16.6815 6.48411Z" fill="#2EE6E6"/>
<path fill-rule="evenodd" clip-rule="evenodd" d="M4.74912 17.5159C5.02371 17.2413 5.4689 17.2413 5.74349 17.5159C8.76394 20.5363 13.6611 20.5363 16.6815 17.5159C16.9561 17.2413 17.4013 17.2413 17.6759 17.5159C17.9505 17.7905 17.9505 18.2357 17.6759 18.5102C14.1063 22.0799 8.31874 22.0799 4.74912 18.5102C4.47454 18.2357 4.47454 17.7905 4.74912 17.5159Z" fill="#2EE6E6"/>
<path fill-rule="evenodd" clip-rule="evenodd" d="M18.6702 4.49533C14.5514 0.376515 7.87354 0.376515 3.75472 4.49533C3.48013 4.76992 3.03494 4.76992 2.76035 4.49533C2.48577 4.22075 2.48577 3.77555 2.76035 3.50096C7.42835 -1.16703 14.9966 -1.16703 19.6646 3.50096C19.9392 3.77555 19.9392 4.22075 19.6646 4.49533C19.39 4.76992 18.9448 4.76992 18.6702 4.49533Z" fill="#2EE6E6"/>
<path fill-rule="evenodd" clip-rule="evenodd" d="M2.76035 19.5046C3.03494 19.2301 3.48013 19.2301 3.75472 19.5046C7.87354 23.6235 14.5514 23.6235 18.6702 19.5046C18.9448 19.2301 19.39 19.2301 19.6646 19.5046C19.9392 19.7792 19.9392 20.2244 19.6646 20.499C14.9966 25.167 7.42835 25.167 2.76035 20.499C2.48577 20.2244 2.48577 19.7792 2.76035 19.5046Z" fill="#2EE6E6"/>
</g>
<defs>
<clipPath id="clip0_2415_2058">
<rect width="24" height="24" fill="white"/>
</clipPath>
</defs>
</svg>
