<svg width="24" height="24" viewBox="0 0 24 24" fill="none" xmlns="http://www.w3.org/2000/svg">
<path fill-rule="evenodd" clip-rule="evenodd" d="M6.38784 0C6.90561 0 7.32534 0.419733 7.32534 0.9375V2.71927H11.0625V1.875C11.0625 1.35723 11.4822 0.9375 12 0.9375C12.5178 0.9375 12.9375 1.35723 12.9375 1.875V2.71927H16.6747V0.9375C16.6747 0.419733 17.0944 0 17.6122 0C18.1299 0 18.5497 0.419733 18.5497 0.9375V2.85935C19.8016 3.21201 20.788 4.1984 21.1406 5.45034H23.0625C23.5803 5.45034 24 5.87008 24 6.38784C24 6.90561 23.5803 7.32534 23.0625 7.32534H21.2807V11.0625H22.125C22.6428 11.0625 23.0625 11.4822 23.0625 12C23.0625 12.5178 22.6428 12.9375 22.125 12.9375H21.2806C21.2738 13.4493 20.8567 13.8622 20.3432 13.8622C19.8255 13.8622 19.4057 13.4424 19.4057 12.9247V6.46927C19.4057 5.43374 18.5663 4.59427 17.5307 4.59427H6.46927C5.43374 4.59427 4.59427 5.43374 4.59427 6.46927V17.5307C4.59427 18.5662 5.43374 19.4057 6.46927 19.4057H17.5307C18.5479 19.4057 19.3762 18.5954 19.4049 17.5855C19.4193 17.0783 19.8346 16.6746 20.342 16.6746H23.0625C23.5802 16.6746 24 17.0943 24 17.6121C24 18.1299 23.5802 18.5496 23.0625 18.5496H21.1405C20.7878 19.8017 19.8015 20.788 18.5497 21.1406V23.0625C18.5497 23.5803 18.1299 24 17.6122 24C17.0944 24 16.6747 23.5803 16.6747 23.0625V21.2807H12.9375V22.125C12.9375 22.6428 12.5178 23.0625 12 23.0625C11.4822 23.0625 11.0625 22.6428 11.0625 22.125V21.2807H7.32534V23.0625C7.32534 23.5803 6.90561 24 6.38784 24C5.87008 24 5.45034 23.5803 5.45034 23.0625V21.1406C4.19842 20.7879 3.21203 19.8016 2.85936 18.5497H0.9375C0.419733 18.5497 0 18.1299 0 17.6122C0 17.0944 0.419733 16.6747 0.9375 16.6747H2.71927V12.9375H1.875C1.35723 12.9375 0.9375 12.5178 0.9375 12C0.9375 11.4822 1.35723 11.0625 1.875 11.0625H2.71927V7.32534H0.9375C0.419733 7.32534 0 6.90561 0 6.38784C0 5.87008 0.419733 5.45034 0.9375 5.45034H2.85935C3.21201 4.1984 4.1984 3.21201 5.45034 2.85935V0.9375C5.45034 0.419733 5.87008 0 6.38784 0ZM9.5383 8.28644C9.90871 7.38057 11.1908 7.37962 11.5629 8.28433C11.5664 8.29283 11.5698 8.30138 11.5731 8.30997L14.145 15.1251C14.3278 15.6095 14.0833 16.1504 13.5989 16.3332C13.1145 16.516 12.5736 16.2715 12.3908 15.7871L11.9791 14.6963H9.1031L8.68666 15.7898C8.50237 16.2736 7.96073 16.5165 7.47687 16.3322C6.99301 16.1479 6.75015 15.6063 6.93444 15.1224L9.52995 8.30759C9.53265 8.30051 9.53543 8.29346 9.5383 8.28644ZM9.81722 12.8213H11.2715L10.5477 10.9034L9.81722 12.8213ZM16.1895 10.4923C16.7072 10.4923 17.127 10.912 17.127 11.4298V15.4561C17.127 15.9739 16.7072 16.3936 16.1895 16.3936C15.6717 16.3936 15.252 15.9739 15.252 15.4561V11.4298C15.252 10.912 15.6717 10.4923 16.1895 10.4923Z" fill="url(#paint0_linear_2266_5116)"/>
<defs>
<linearGradient id="paint0_linear_2266_5116" x1="0" y1="12" x2="24" y2="12" gradientUnits="userSpaceOnUse">
<stop stop-color="#00F2FE"/>
<stop offset="0.0208" stop-color="#03EFFE"/>
<stop offset="0.2931" stop-color="#24D2FE"/>
<stop offset="0.5538" stop-color="#3CBDFE"/>
<stop offset="0.7956" stop-color="#4AB0FE"/>
<stop offset="1" stop-color="#4FACFE"/>
</linearGradient>
</defs>
</svg>
