<svg width="25" height="24" viewBox="0 0 25 24" fill="none" xmlns="http://www.w3.org/2000/svg">
<g clip-path="url(#clip0_2266_5172)">
<path d="M13.6941 18.4177C13.6941 21.4833 11.2091 23.9688 8.14348 23.9688C5.07742 23.9688 2.59242 21.4833 2.59242 18.4177C2.59242 15.352 5.07742 12.8666 8.14348 12.8666C11.2091 12.8666 13.6941 15.352 13.6941 18.4177Z" fill="#FF6600"/>
<path d="M24.6727 10.6462C24.6727 13.7115 22.1877 16.1973 19.1221 16.1973C16.056 16.1973 13.571 13.7115 13.571 10.6462C13.571 7.58056 16.056 5.09475 19.1221 5.09475C22.1877 5.09475 24.6727 7.58056 24.6727 10.6462Z" fill="#FFCC00"/>
<path d="M11.1037 10.5232C11.1037 13.5884 8.61867 16.0742 5.55261 16.0742C2.48736 16.0742 0.00196075 13.5884 0.00196075 10.5232C0.00196075 7.45751 2.48736 4.9717 5.55261 4.9717C8.61867 4.9717 11.1037 7.45751 11.1037 10.5232Z" fill="#0089CC"/>
<path d="M22.2059 18.4177C22.2059 21.4833 19.7209 23.9688 16.6544 23.9688C13.5891 23.9688 11.1037 21.4833 11.1037 18.4177C11.1037 15.352 13.5891 12.8666 16.6544 12.8666C19.7209 12.8666 22.2059 15.352 22.2059 18.4177Z" fill="#009939"/>
<path d="M17.8884 5.58859C17.8884 8.65425 15.403 11.1396 12.3373 11.1396C9.27168 11.1396 6.78628 8.65425 6.78628 5.58859C6.78628 2.52294 9.27168 0.0375376 12.3373 0.0375376C15.403 0.0375376 17.8884 2.52294 17.8884 5.58859Z" fill="#BF0000"/>
<path d="M13.571 10.6464C13.571 10.7632 13.5811 10.8775 13.5885 10.9927C16.0507 10.4246 17.8883 8.22325 17.8883 5.58851C17.8883 5.47173 17.8781 5.35698 17.8708 5.24183C15.4086 5.81028 13.571 8.01166 13.571 10.6464Z" fill="#FC0007"/>
<path d="M14.3033 13.3949C15.26 15.0673 17.0577 16.1973 19.1223 16.1973C19.9638 16.1973 20.7585 16.0044 21.4735 15.6691C20.5172 13.9967 18.7195 12.8667 16.6544 12.8667C15.8129 12.8667 15.0183 13.0596 14.3033 13.3949Z" fill="#1CD306"/>
<path d="M11.1037 18.4177C11.1037 19.774 11.5911 21.015 12.3993 21.979C13.2066 21.015 13.6941 19.774 13.6941 18.4177C13.6941 17.0615 13.2066 15.8204 12.3993 14.8565C11.5911 15.8204 11.1037 17.0615 11.1037 18.4177Z" fill="#0F7504"/>
<path d="M3.35489 15.6197C4.02914 15.911 4.77134 16.0742 5.55261 16.0742C7.59692 16.0742 9.37796 14.9662 10.3415 13.3211C9.66727 13.0297 8.92466 12.867 8.1438 12.867C6.09949 12.867 4.31804 13.975 3.35489 15.6197Z" fill="#0C5E87"/>
<path d="M6.81008 5.12032C6.79706 5.27495 6.78607 5.43039 6.78607 5.58868C6.78607 8.22138 8.62083 10.4207 11.0802 10.9912C11.0928 10.8366 11.1038 10.6811 11.1038 10.5233C11.1038 7.89056 9.26944 5.6904 6.81008 5.12032Z" fill="#6B0001"/>
<path d="M7.32824 17.731H6.4599C5.69328 17.731 5.06989 17.1097 5.06989 16.3451V8.48525C5.06989 7.72067 5.69328 7.09891 6.4599 7.09891H17.3484C18.115 7.09891 18.738 7.72067 18.738 8.48525V16.3451C18.738 17.1097 18.115 17.731 17.3484 17.731H13.639L6.19662 21.3794L7.32824 17.731Z" fill="white"/>
</g>
<defs>
<clipPath id="clip0_2266_5172">
<rect width="24.6747" height="24" fill="white"/>
</clipPath>
</defs>
</svg>
