<svg xmlns="http://www.w3.org/2000/svg" xmlns:xlink="http://www.w3.org/1999/xlink" width="50" height="50" viewBox="0 0 50 50"><defs><style>.a{fill:#fff;}.b{fill:#005d6d;}.c{clip-path:url(#a);}.d{fill:#80bfff;}.e{fill:#8095ff;}.f{fill:#8066ff;}.g{fill:#e6f2f2;}.h{fill:#4d628c;}.i{fill:#cfe6e6;}.j{fill:#283d66;}</style><clipPath id="a"><rect class="a" width="32" height="32"/></clipPath></defs><g transform="translate(774 -319)"><circle class="b" cx="25" cy="25" r="25" transform="translate(-774 319)"/><g class="c" transform="translate(-765 328)"><path class="d" d="M10.625,9.626,9.87,7.265a1.894,1.894,0,0,0-1.019.253L.9,12.123a1.917,1.917,0,0,0-.7.7l9.646,9.15.031.03.755-.718Z" transform="translate(0.064 2.421)"/><path class="e" d="M17.065,12.863,7.45,22.006V13.2l1.668-2.845L7.45,7.265a1.872,1.872,0,0,1,.9.253l8.017,4.641A1.918,1.918,0,0,1,17.065,12.863Z" transform="translate(2.483 2.422)"/><path class="e" d="M9.934,17.039l3.275,5.134L9.934,28.188a1.905,1.905,0,0,1-.957-.257L.96,23.29A1.924,1.924,0,0,1,0,21.623V12.4a1.928,1.928,0,0,1,.257-.964Z" transform="translate(0 3.812)"/><path class="f" d="M17.323,12.427v9.221a1.924,1.924,0,0,1-.96,1.667L8.408,27.922a1.905,1.905,0,0,1-.957.257V17.029l9.615-5.565A1.928,1.928,0,0,1,17.323,12.427Z" transform="translate(2.483 3.821)"/><path class="g" d="M18.483,0l1.8,8.653-1.8,7.91H8.388a.938.938,0,0,1-.937-.937V.938A.938.938,0,0,1,8.388,0Z" transform="translate(2.483)"/><path class="h" d="M13.951,3.519l-.01-.026a1.1,1.1,0,0,0-1.016-.681h0a1.1,1.1,0,0,0-1.016.683l-.009.021L9.224,10.541a.937.937,0,1,0,1.752.667l.436-1.146h3l.431,1.143a.937.937,0,1,0,1.754-.662ZM12.127,8.188,12.922,6.1l.787,2.087Z" transform="translate(3.054 0.938)"/><path class="i" d="M26.758.938V15.625a.938.938,0,0,1-.937.937H23.86L18.907,21.01a.943.943,0,0,1-1.564-.7v-3.75H15.725V0h10.1A.938.938,0,0,1,26.758.938Z" transform="translate(5.242)"/><path class="j" d="M20.628,8.253a2.806,2.806,0,0,0,2-2.651A2.846,2.846,0,0,0,19.73,2.813h-1.9a.938.938,0,0,0-.937.937v7.125a.937.937,0,1,0,1.875,0V8.982l2.211,2.512a.937.937,0,1,0,1.407-1.239Zm-.9-3.565a.984.984,0,0,1,1.019.914.984.984,0,0,1-1.019.914l-.948,0c0-.346,0-1.47-.005-1.831Z" transform="translate(5.632 0.938)"/></g></g></svg>