<svg width="24" height="24" viewBox="0 0 24 24" fill="none" xmlns="http://www.w3.org/2000/svg">
<g clip-path="url(#clip0_2266_5155)">
<path d="M24 13.814V20.0765C24 20.3296 23.8594 20.5546 23.6484 20.6812L17.9625 23.9155C17.8641 23.9717 17.7376 23.9999 17.625 23.9999L16.2188 20.2426L17.625 16.9218L20.8359 13.7585L23.9015 13.4624C23.9718 13.575 24 13.6874 24 13.814Z" fill="#5A69E6"/>
<path d="M17.625 16.9218V23.9999C17.5124 23.9999 17.386 23.9717 17.2875 23.9155L11.6484 20.6812C11.4375 20.5546 11.2969 20.3296 11.2969 20.0765V13.814C11.2969 13.6874 11.3251 13.575 11.3954 13.4624L14.5838 13.8268L17.625 16.9218Z" fill="#7984EB"/>
<path d="M23.9015 13.4625L17.625 16.9219L11.3954 13.4625C11.4657 13.364 11.5499 13.2656 11.6625 13.2094C11.6625 13.2094 17.3157 9.96094 17.3297 9.96094C17.4282 9.91882 17.5265 9.89062 17.625 9.89062C17.7235 9.89062 17.8218 9.91882 17.9203 9.96094C17.9343 9.96094 23.6343 13.2094 23.6343 13.2094C23.7469 13.2656 23.8312 13.364 23.9015 13.4625Z" fill="#B5BAF3"/>
<path d="M23.9015 13.4625L17.625 16.9219V9.89062C17.7235 9.89062 17.8218 9.91882 17.9203 9.96094C17.9343 9.96094 23.6343 13.2094 23.6343 13.2094C23.7469 13.2656 23.8312 13.364 23.9015 13.4625Z" fill="#979FEF"/>
<path d="M14.1094 17.625C14.1094 18.0187 13.8001 18.3281 13.4062 18.3281H6.375C5.98114 18.3281 5.67188 18.0187 5.67188 17.625V13.4062C5.67188 13.0124 5.98114 12.7031 6.375 12.7031C6.76886 12.7031 7.07812 13.0124 7.07812 13.4062V16.9219H13.4062C13.8001 16.9219 14.1094 17.2311 14.1094 17.625Z" fill="#A8EBFA"/>
<path d="M14.1094 17.625C14.1094 18.0187 13.8001 18.3281 13.4062 18.3281H6.375V12.7031C6.76886 12.7031 7.07812 13.0124 7.07812 13.4062V16.9219H13.4062C13.8001 16.9219 14.1094 17.2311 14.1094 17.625Z" fill="#76E2F8"/>
<path d="M12.7031 3.97021V10.1859C12.7031 10.439 12.5625 10.664 12.3516 10.7905L6.71246 14.0249C6.61414 14.0811 6.48761 14.1093 6.375 14.1093L4.96875 10.352L6.375 7.07806L9.53906 3.91473L12.6046 3.61865C12.6749 3.73126 12.7031 3.84369 12.7031 3.97021Z" fill="#5A69E6"/>
<path d="M6.375 7.07806V14.1093C6.26239 14.1093 6.13605 14.0811 6.03754 14.0249L0.351562 10.7905C0.140625 10.664 0 10.439 0 10.1859V3.97021C0 3.84369 0.0281982 3.73126 0.0985107 3.61865L3.3338 3.98303L6.375 7.07806Z" fill="#7984EB"/>
<path d="M12.6046 3.61871L6.375 7.07812L0.0985107 3.61871C0.168823 3.5202 0.253052 3.42188 0.365662 3.36566C0.365662 3.36566 6.06573 0.0703125 6.07965 0.0703125C6.17816 0.0281982 6.27649 0 6.375 0C6.47351 0 6.57184 0.0281982 6.67035 0.0703125C6.68427 0.0703125 12.3375 3.36566 12.3375 3.36566C12.4501 3.42188 12.5343 3.5202 12.6046 3.61871Z" fill="#B5BAF3"/>
<path d="M12.6046 3.61871L6.375 7.07812V0C6.47351 0 6.57184 0.0281982 6.67035 0.0703125C6.68427 0.0703125 12.3375 3.36566 12.3375 3.36566C12.4501 3.42188 12.5343 3.5202 12.6046 3.61871Z" fill="#979FEF"/>
<path d="M18.3281 7.78125V13.4062C18.3281 13.7999 18.0189 14.1094 17.625 14.1094C17.2311 14.1094 16.9219 13.7999 16.9219 13.4062V8.48438H10.5938C10.1999 8.48438 9.89062 8.17493 9.89062 7.78125C9.89062 7.38739 10.1999 7.07812 10.5938 7.07812H17.625C18.0189 7.07812 18.3281 7.38739 18.3281 7.78125Z" fill="#A8EBFA"/>
<path d="M18.3281 7.78125V13.4062C18.3281 13.7999 18.0189 14.1094 17.625 14.1094V7.07812C18.0189 7.07812 18.3281 7.38739 18.3281 7.78125Z" fill="#76E2F8"/>
</g>
<defs>
<clipPath id="clip0_2266_5155">
<rect width="24" height="24" fill="white"/>
</clipPath>
</defs>
</svg>
