<svg xmlns="http://www.w3.org/2000/svg" xmlns:xlink="http://www.w3.org/1999/xlink" width="50" height="50" viewBox="0 0 50 50"><defs><style>.a,.d{fill:#fff;}.b{fill:#005d6d;}.c{clip-path:url(#a);}.d{fill-rule:evenodd;}</style><clipPath id="a"><rect class="a" width="32" height="32"/></clipPath></defs><g transform="translate(774 -319)"><circle class="b" cx="25" cy="25" r="25" transform="translate(-774 319)"/><g class="c" transform="translate(-765 328)"><path class="d" d="M17.216,9.422a.937.937,0,0,1,.937-.937h4.183a.937.937,0,0,1,0,1.875H18.153A.937.937,0,0,1,17.216,9.422Z" transform="translate(5.739 2.828)"/><path class="d" d="M19.716,8.664a.937.937,0,0,1,.937.938v7.26a.938.938,0,0,1-1.875,0V9.6A.938.938,0,0,1,19.716,8.664Z" transform="translate(6.259 2.888)"/><path class="d" d="M3.178,8.664a.938.938,0,0,1,.938.938v7.26a.938.938,0,0,1-1.875,0V9.6A.938.938,0,0,1,3.178,8.664Z" transform="translate(0.747 2.888)"/><path class="d" d="M12.384,10.359A2.813,2.813,0,1,0,15.2,13.172,2.813,2.813,0,0,0,12.384,10.359ZM7.7,13.172a4.688,4.688,0,1,1,4.688,4.687A4.688,4.688,0,0,1,7.7,13.172Z" transform="translate(2.566 2.828)"/><path class="d" d="M17.413,9.422a6.563,6.563,0,0,0-9.281,0A.938.938,0,0,1,6.806,8.1a8.438,8.438,0,0,1,11.932,0,.938.938,0,0,1-1.326,1.326Z" transform="translate(2.177 1.875)"/><path class="d" d="M6.806,15.6a.937.937,0,0,1,1.326,0,6.563,6.563,0,0,0,9.281,0,.937.937,0,0,1,1.326,1.326,8.437,8.437,0,0,1-11.932,0A.937.937,0,0,1,6.806,15.6Z" transform="translate(2.177 5.107)"/><path class="d" d="M20.728,7.708a10.313,10.313,0,0,0-14.584,0A.938.938,0,0,1,4.818,6.382a12.188,12.188,0,0,1,17.236,0,.938.938,0,0,1-1.326,1.326Z" transform="translate(1.514 0.938)"/><path class="d" d="M4.818,17.585a.937.937,0,0,1,1.326,0,10.313,10.313,0,0,0,14.584,0,.937.937,0,1,1,1.326,1.326,12.187,12.187,0,0,1-17.236,0A.937.937,0,0,1,4.818,17.585Z" transform="translate(1.514 5.77)"/><path class="d" d="M24.042,5.994a14.062,14.062,0,0,0-19.887,0A.938.938,0,0,1,2.829,4.668a15.937,15.937,0,0,1,22.539,0,.938.938,0,0,1-1.326,1.326Z" transform="translate(0.851 0)"/><path class="d" d="M2.829,19.573a.938.938,0,0,1,1.326,0,14.062,14.062,0,0,0,19.887,0A.938.938,0,0,1,25.368,20.9a15.937,15.937,0,0,1-22.539,0A.938.938,0,0,1,2.829,19.573Z" transform="translate(0.851 6.433)"/></g></g></svg>