<svg width="20" height="23" viewBox="0 0 20 23" fill="none" xmlns="http://www.w3.org/2000/svg"><path d="M9.9212 12.9849C7.32727 12.9849 4.73732 12.9849 2.14339 12.9849C1.87857 12.9849 1.74484 12.8564 1.74219 12.5995C1.74219 8.21747 1.74219 4.75154 1.74219 0.369476C1.74219 0.00397283 1.74219 0 2.10367 0C5.73834 0 9.36905 0 13.0037 0C13.3652 0 13.3652 0 13.3652 0.369476C13.3652 1.60504 13.3652 2.8406 13.3652 4.07218C13.3652 4.5092 13.5122 4.65619 13.9531 4.65619C15.2242 4.65619 16.4914 4.65619 17.7626 4.65619C18.1121 4.65619 18.1161 4.65619 18.1161 5.01375C18.1161 7.86229 18.1161 9.79072 18.1201 12.6393C18.1201 12.9015 18.0446 12.9889 17.7745 12.9889C15.1567 12.9809 12.535 12.9849 9.91722 12.9849H9.9212ZM13.2937 6.24693C13.1149 6.24693 12.9997 6.32241 12.9282 6.47338C12.8409 6.65613 12.9163 6.80313 13.0355 6.93026C13.4089 7.33152 13.7743 7.73675 14.1676 8.11417C14.3781 8.31679 14.3384 8.43995 14.1517 8.6227C13.7624 9.00807 13.389 9.40535 13.0196 9.81058C12.8369 10.0092 12.8448 10.2158 13.0077 10.3787C13.1547 10.5257 13.397 10.5178 13.5797 10.3588C13.6075 10.335 13.6313 10.3112 13.6552 10.2834C14.1517 9.75894 14.6522 9.23849 15.1448 8.7101C15.3951 8.44392 15.403 8.29692 15.1527 8.02677C14.6443 7.47851 14.1199 6.94218 13.6035 6.3979C13.5122 6.30255 13.4089 6.24693 13.2858 6.2509L13.2937 6.24693ZM6.93798 10.0966C6.9499 9.96155 6.87443 9.85826 6.77909 9.76291C6.41364 9.38151 6.04818 9.00012 5.6867 8.61475C5.44439 8.36049 5.44439 8.36049 5.69465 8.09828C6.05216 7.72483 6.41364 7.34741 6.77115 6.96999C6.97373 6.75545 6.99757 6.49722 6.83073 6.3383C6.66787 6.18336 6.41364 6.21514 6.2031 6.43365C5.69465 6.95807 5.19016 7.48646 4.68568 8.01882C4.45528 8.26514 4.45528 8.45981 4.69362 8.7101C5.19016 9.23452 5.69068 9.75496 6.19119 10.2754C6.23886 10.3271 6.2905 10.3787 6.34611 10.4145C6.47322 10.4979 6.61623 10.4939 6.75128 10.4303C6.88237 10.3668 6.93798 10.2516 6.93798 10.0927V10.0966ZM11.0533 6.24295C11.0414 6.19925 11.0334 6.15555 11.0176 6.11582C10.95 5.95691 10.8309 5.84964 10.6561 5.85361C10.4614 5.85759 10.3343 5.97677 10.2708 6.1635C10.0602 6.77134 9.8497 7.37919 9.63916 7.98704C9.37699 8.74586 9.11482 9.5007 8.85661 10.2595C8.74539 10.5813 8.85661 10.8157 9.12673 10.8554C9.38096 10.8912 9.51602 10.7442 9.59149 10.5217C10.0563 9.17493 10.525 7.82415 10.9898 6.47735C11.0136 6.40187 11.0295 6.32638 11.0533 6.24693V6.24295Z" fill="#7DB2F7"></path><path d="M9.92331 21.3685C6.80901 21.3685 3.69869 21.3685 0.584387 21.3685C-0.102824 21.3685 0.00840074 21.3566 0.00442842 20.8043C0.000456095 19.1993 0.00442842 15.754 0.00442842 14.149C0.00442842 13.7994 0.00840074 13.7994 0.361937 13.7954C4.70766 13.7517 9.05338 13.7477 13.4031 13.7716C15.4409 13.7835 17.4747 13.7835 19.5125 13.7875C19.7826 13.7875 19.866 13.8749 19.866 14.1331C19.8581 15.8097 19.866 19.3225 19.8621 20.999C19.8621 21.3407 19.8343 21.3645 19.4767 21.3645C16.2949 21.3645 13.1091 21.3645 9.92729 21.3645L9.92331 21.3685ZM7.05133 17.6078C7.14666 17.7349 7.12283 17.8263 7.12283 17.9097C7.12283 18.299 7.12283 18.6844 7.12283 19.0738C7.12283 19.3797 7.27775 19.5743 7.51212 19.5783C7.74648 19.5783 7.89743 19.3956 7.89743 19.0777C7.89743 18.1084 7.89743 17.139 7.89743 16.1696C7.89743 15.9511 7.86168 15.7604 7.61142 15.6968C7.37308 15.6333 7.23008 15.7644 7.11886 15.9551C6.86066 16.3881 6.60245 16.8172 6.34425 17.2462C6.20125 17.4806 6.17742 17.4806 6.03441 17.2462C5.76032 16.7933 5.48623 16.3404 5.21214 15.8875C5.10886 15.7207 4.95791 15.6412 4.76327 15.6929C4.56465 15.7445 4.47329 15.8835 4.47329 16.0822C4.47329 17.1032 4.47329 18.1282 4.47329 19.1492C4.47329 19.3995 4.64013 19.5704 4.85066 19.5743C5.07311 19.5783 5.23598 19.4035 5.23995 19.1333C5.24789 18.7281 5.23995 18.3229 5.24392 17.9177C5.24392 17.8263 5.20817 17.723 5.33131 17.6157C5.49418 17.8859 5.64512 18.1481 5.80799 18.4023C6.02647 18.74 6.34823 18.7361 6.56273 18.3944C6.72162 18.1441 6.87257 17.8859 7.04338 17.6078H7.05133ZM12.6324 17.5164C12.6324 17.9931 12.6324 18.4699 12.6324 18.9427C12.6324 19.2565 12.7993 19.471 13.0336 19.4671C13.264 19.4671 13.4229 19.2764 13.4348 18.9665C13.4468 18.7043 13.4428 18.4381 13.4348 18.1719C13.4348 18.017 13.5024 17.9455 13.6533 17.9455C13.848 17.9455 14.0426 17.9455 14.2333 17.9415C14.8609 17.9216 15.3336 17.4449 15.3694 16.8053C15.4051 16.2093 14.9841 15.6809 14.3922 15.5776C13.9552 15.5022 13.5143 15.5339 13.0734 15.5498C12.7715 15.5617 12.6324 15.7246 12.6285 16.0305C12.6205 16.5232 12.6285 17.0158 12.6285 17.5124L12.6324 17.5164ZM12.0207 16.0703C12.0247 15.8359 11.8777 15.6889 11.6473 15.6849C11.4368 15.6849 11.3295 15.812 11.254 15.9829C10.9601 16.6344 10.6661 17.282 10.3722 17.9335C10.3404 18.0011 10.3404 18.1123 10.2451 18.1084C10.1537 18.1084 10.1458 17.9971 10.114 17.9256C10.0226 17.7349 9.94318 17.5402 9.85579 17.3456C9.63731 16.8648 9.42678 16.3802 9.20035 15.9034C9.10104 15.6929 8.8786 15.6213 8.68792 15.7087C8.49725 15.7961 8.4178 15.9988 8.49328 16.2212C8.50917 16.2729 8.533 16.3206 8.55286 16.3682C8.97393 17.3098 9.40294 18.2474 9.82003 19.189C9.90743 19.3836 10.0028 19.5664 10.2411 19.5704C10.4794 19.5704 10.5827 19.3916 10.6701 19.1969C11.0952 18.2474 11.5242 17.3019 11.9492 16.3523C11.9889 16.2649 12.0247 16.1736 12.0247 16.0742L12.0207 16.0703Z" fill="#3771E7"></path><path d="M9.93823 22.147C12.5401 22.147 15.142 22.147 17.7399 22.147C18.1212 22.147 18.1212 22.147 18.1212 22.5284C18.1212 22.9058 18.1212 22.3671 18.1212 22.7445C18.1212 22.9193 18.0537 23.0107 17.871 22.9988C17.8114 22.9948 17.7478 22.9988 17.6843 22.9988C12.5163 22.9988 7.35225 22.9988 2.18426 22.9988C1.89031 22.9988 1.74333 22.8478 1.74333 22.5459C1.74333 22.2121 1.75525 22.7946 1.74333 22.4608C1.73142 22.2225 1.81086 22.1351 2.05715 22.139C2.72847 22.151 3.39582 22.143 4.06714 22.143C6.0255 22.143 7.98385 22.143 9.93823 22.143V22.147Z" fill="#7DB2F7"></path><path d="M15.8368 3.84561C15.38 3.84561 14.9192 3.83369 14.4624 3.84958C14.236 3.85753 14.1446 3.78602 14.1486 3.55162C14.1565 2.65375 14.1486 1.75191 14.1525 0.854046C14.1525 0.778561 14.1287 0.675267 14.2161 0.643484C14.2876 0.615674 14.3392 0.699104 14.3869 0.746778C15.3641 1.70424 16.3373 2.6617 17.3105 3.62313C17.3582 3.6708 17.4456 3.71848 17.4218 3.78999C17.39 3.88534 17.2867 3.84561 17.2152 3.84561C16.7584 3.84561 16.2976 3.84561 15.8408 3.84561H15.8368Z" fill="#3771E7"></path><path d="M13.9064 16.3563C14.0017 16.3563 14.101 16.3523 14.1963 16.3563C14.4188 16.3722 14.5539 16.4954 14.5777 16.7178C14.6015 16.9443 14.4863 17.0953 14.2758 17.1469C14.0454 17.2065 13.8071 17.1787 13.5687 17.1628C13.4893 17.1588 13.4416 17.1072 13.4376 17.0237C13.4337 16.9522 13.4337 16.8847 13.4297 16.8132C13.4297 16.5033 13.5873 16.3497 13.9024 16.3523L13.9064 16.3563Z" fill="#3771E7"></path></svg>