<svg xmlns="http://www.w3.org/2000/svg" width="18" height="18" viewBox="0 0 18 18"><defs><style>.a{fill:#005d6d;}.b{fill:#fff;}</style></defs><g transform="translate(773 -318)"><circle class="a" cx="9" cy="9" r="9" transform="translate(-773 318)"/><path class="b" d="M9.46.075A1.161,1.161,0,0,0,8.442,1.789l-1.9,1.9a1.531,1.531,0,0,0-1.891,0L3.172,2.207a.765.765,0,0,0,.109-.391.772.772,0,1,0-.772.774.763.763,0,0,0,.39-.11L4.38,3.964a1.54,1.54,0,0,0,0,1.895L1.935,8.31a1.151,1.151,0,1,0,.241.305L4.654,6.133a1.531,1.531,0,0,0,.753.313V8.412a1.158,1.158,0,1,0,.386,0V6.446a1.533,1.533,0,0,0,.753-.313L8.026,7.617a.765.765,0,0,0-.11.391.772.772,0,1,0,.772-.774.761.761,0,0,0-.39.11L6.817,5.86a1.54,1.54,0,0,0,0-1.9l1.866-1.87A1.159,1.159,0,1,0,9.46.075Z" transform="translate(-769 321.925)"/></g></svg>