<svg width="22" height="24" viewBox="0 0 22 24" fill="none" xmlns="http://www.w3.org/2000/svg">
<g clip-path="url(#clip0_1078_568)">
<path d="M10.6298 23.9555C10.2996 23.9555 9.99153 23.8674 9.70543 23.7134L6.7784 21.9748C6.33824 21.7327 6.55832 21.6447 6.69037 21.6006C7.28458 21.4026 7.39461 21.3586 8.01083 21.0064C8.07686 20.9624 8.16489 20.9844 8.23091 21.0284L10.4757 22.3709C10.5637 22.4149 10.6738 22.4149 10.7398 22.3709L19.5209 17.2871C19.6089 17.2431 19.6529 17.1551 19.6529 17.045V6.89944C19.6529 6.7894 19.6089 6.70137 19.5209 6.65735L10.7398 1.59556C10.6518 1.55155 10.5417 1.55155 10.4757 1.59556L1.6946 6.65735C1.60657 6.70137 1.56255 6.81141 1.56255 6.89944V17.045C1.56255 17.1331 1.60657 17.2431 1.6946 17.2871L4.09345 18.6736C5.39191 19.3338 6.20619 18.5636 6.20619 17.7933V7.77975C6.20619 7.6477 6.31623 7.51566 6.47029 7.51566H7.59268C7.72473 7.51566 7.85678 7.6257 7.85678 7.77975V17.7933C7.85678 19.5319 6.91044 20.5443 5.25986 20.5443C4.75368 20.5443 4.35754 20.5443 3.23514 19.9941L0.924327 18.6736C0.352125 18.3435 0 17.7273 0 17.067V6.92145C0 6.26121 0.352125 5.645 0.924327 5.31488L9.70543 0.231082C10.2556 -0.0770272 11.0039 -0.0770272 11.5541 0.231082L20.3352 5.31488C20.9074 5.645 21.2595 6.26121 21.2595 6.92145V17.067C21.2595 17.7273 20.9074 18.3435 20.3352 18.6736L11.5541 23.7574C11.268 23.8894 10.9379 23.9555 10.6298 23.9555ZM13.3367 16.979C9.48535 16.979 8.69307 15.2184 8.69307 13.7219C8.69307 13.5898 8.80311 13.4578 8.95717 13.4578H10.1016C10.2336 13.4578 10.3437 13.5458 10.3437 13.6778C10.5197 14.8442 11.0259 15.4165 13.3587 15.4165C15.2074 15.4165 15.9997 14.9983 15.9997 14.008C15.9997 13.4358 15.7796 13.0176 12.8966 12.7315C10.4977 12.4894 9.00118 11.9612 9.00118 10.0466C9.00118 8.26392 10.4977 7.20755 13.0066 7.20755C15.8236 7.20755 17.2101 8.17589 17.3861 10.2886C17.3861 10.3547 17.3641 10.4207 17.3201 10.4867C17.2761 10.5307 17.2101 10.5747 17.1441 10.5747H15.9997C15.8896 10.5747 15.7796 10.4867 15.7576 10.3767C15.4935 9.16624 14.8112 8.7701 13.0066 8.7701C10.9819 8.7701 10.7398 9.47435 10.7398 10.0025C10.7398 10.6408 11.0259 10.8388 13.7549 11.191C16.4618 11.5431 17.7383 12.0493 17.7383 13.9419C17.7163 15.8786 16.1317 16.979 13.3367 16.979Z" fill="#539E43"/>
</g>
<defs>
<clipPath id="clip0_1078_568">
<rect width="21.2595" height="24" fill="white"/>
</clipPath>
</defs>
</svg>
