<svg xmlns="http://www.w3.org/2000/svg" width="50" height="50" viewBox="0 0 50 50"><defs><style>.a{fill:#005d6d;}.b{fill:#fff;fill-rule:evenodd;}</style></defs><g transform="translate(774 -319)"><circle class="a" cx="25" cy="25" r="25" transform="translate(-774 319)"/><g transform="translate(-826.54 292.5)"><path class="b" d="M88.231,64.621c-2.16,0-2.421-2.029-2.421-3.207V52.253c0-.916.131-1.047-.589-1.047H84.7V64.752h1.963V67.5H65V64.752h2.094V36.809A1.313,1.313,0,0,1,68.4,35.5H83.389A1.313,1.313,0,0,1,84.7,36.809v3.377c.537.366,4.24,2.932,4.908,3.429.72.524,1.243.785,1.243,2.814V61.676C90.849,63.116,90.391,64.621,88.231,64.621ZM82.538,39.1a1.313,1.313,0,0,0-1.309-1.309H70.562A1.313,1.313,0,0,0,69.254,39.1v6.282a1.313,1.313,0,0,0,1.309,1.309H81.229a1.313,1.313,0,0,0,1.309-1.309Zm6.413,9.227c0-1.047-.72-.916-1.374-.916h-1.7V43.156L84.7,42.476v6.832h1.571c1.047,0,1.44.131,1.44,1.7V61.48c0,1.047.131,1.178.589,1.178s.654-.327.654-1.112Z" transform="translate(0 0)"/></g></g></svg>