<svg width="24" height="24" viewBox="0 0 18 18" fill="none" xmlns="http://www.w3.org/2000/svg">
    <path fill="#005D6D" fill-rule="evenodd" d="M927,346a9,9,0,1,1-9,9A9,9,0,0,1,927,346Zm-0.012,4.726c-1.777,0-2.912,1.057-2.912,2.541,0,1.215.641,2.069,2.777,2.53,1.226,0.236,1.6.506,1.6,0.99,0,0.607-.5.933-1.361,0.933a3.367,3.367,0,0,1-2.327-.967l-0.934,1.428a4.861,4.861,0,0,0,3.205,1.1c1.945,0,3.126-1.068,3.126-2.654,0-1.27-.675-2.046-2.811-2.5-1.237-.236-1.552-0.472-1.552-0.944a0.961,0.961,0,0,1,1.181-.9,3.086,3.086,0,0,1,2.012.72l0.889-1.417A4.778,4.778,0,0,0,926.988,350.726Z" transform="translate(-918 -346)"></path>
</svg>