<svg xmlns="http://www.w3.org/2000/svg" width="18" height="18" viewBox="0 0 18 18"><defs><style>.a{fill:#005d6d;}.b{fill:#fff;}</style></defs><g transform="translate(897 -154)"><circle class="a" cx="9" cy="9" r="9" transform="translate(-897 154)"/><path class="b" d="M7.814.157,5.686.362A.417.417,0,0,0,5.36.617L4,4.528,2.629.617A.418.418,0,0,0,2.3.362L.175.157A.144.144,0,0,0,.014.364L2.691,7.81a.375.375,0,0,0,.329.231H5.1a.1.1,0,0,0,.06-.018.185.185,0,0,0,.092-.1l.013-.036L7.975.364A.143.143,0,0,0,7.814.157Z" transform="translate(-891.995 158.902)"/></g></svg>