<svg width="24" height="12" viewBox="0 0 24 12" fill="none" xmlns="http://www.w3.org/2000/svg">
<path d="M1.81896 2.66943H5.22792C6.22848 2.67783 6.95352 2.96631 7.40304 3.53439C7.85256 4.10247 8.00088 4.87839 7.84824 5.86215C7.78896 6.31167 7.65744 6.75255 7.45392 7.18503C7.2588 7.61751 6.9876 8.00751 6.63984 8.35527C6.21576 8.79615 5.76216 9.07599 5.2788 9.19479C4.79544 9.31359 4.29504 9.37287 3.77784 9.37287H2.25144L1.76808 11.7897H0L1.81896 2.66943ZM3.3072 4.11951L2.544 7.93551C2.59488 7.94391 2.64576 7.94823 2.69664 7.94823C2.75592 7.94823 2.81544 7.94823 2.87472 7.94823C3.6888 7.95663 4.36728 7.87623 4.90992 7.70655C5.45256 7.52847 5.81736 6.90951 6.00384 5.84943C6.15648 4.95903 6.00384 4.44591 5.54592 4.31031C5.0964 4.17471 4.53264 4.11111 3.85416 4.11951C3.7524 4.12791 3.65496 4.13223 3.5616 4.13223C3.47688 4.13223 3.38784 4.13223 3.29448 4.13223L3.3072 4.11951Z" fill="black"/>
<path d="M9.86244 0.240234H11.6178L11.1217 2.66975H12.699C13.564 2.68679 14.2084 2.86487 14.6324 3.20399C15.0649 3.54311 15.1921 4.18775 15.014 5.13743L14.1618 9.37319H12.381L13.1951 5.32823C13.2798 4.90415 13.2544 4.60319 13.1188 4.42511C12.9832 4.24703 12.6906 4.15799 12.2411 4.15799L10.8292 4.14527L9.78612 9.37319H8.03076L9.86244 0.240234Z" fill="black"/>
<path d="M16.8988 2.66943H20.3078C21.3083 2.67783 22.0334 2.96631 22.4829 3.53439C22.9324 4.10247 23.0807 4.87839 22.9281 5.86215C22.8688 6.31167 22.7373 6.75255 22.5338 7.18503C22.3386 7.61751 22.0674 8.00751 21.7197 8.35527C21.2956 8.79615 20.842 9.07599 20.3586 9.19479C19.8753 9.31359 19.3749 9.37287 18.8577 9.37287H17.3313L16.8479 11.7897H15.0798L16.8988 2.66943ZM18.387 4.11951L17.6238 7.93551C17.6747 7.94391 17.7256 7.94823 17.7765 7.94823C17.8358 7.94823 17.8953 7.94823 17.9546 7.94823C18.7686 7.95663 19.4471 7.87623 19.9898 7.70655C20.5324 7.52847 20.8972 6.90951 21.0837 5.84943C21.2363 4.95903 21.0837 4.44591 20.6258 4.31031C20.1762 4.17471 19.6125 4.11111 18.934 4.11951C18.8322 4.12791 18.7348 4.13223 18.6414 4.13223C18.5567 4.13223 18.4677 4.13223 18.3743 4.13223L18.387 4.11951Z" fill="black"/>
</svg>
