<svg xmlns="http://www.w3.org/2000/svg" width="18" height="18" viewBox="0 0 18 18"><defs><style>.a{fill:#005d6d;}</style></defs><g transform="translate(-1.999 -2)"><path class="a" d="M29.733,22.531H28.079v2.587h1.654a1.4,1.4,0,0,0,.977-.316,1.288,1.288,0,0,0,.349-1,1.212,1.212,0,0,0-.349-.978,1.479,1.479,0,0,0-.977-.292" transform="translate(-18.27 -14.381)"/><path class="a" d="M11,2a9,9,0,1,0,9,9,9,9,0,0,0-9-9m2.819,9.585a3.319,3.319,0,0,1-2.183.637H9.823v3.13H8.016v-8.7h3.737a3.017,3.017,0,0,1,2.061.673,2.63,2.63,0,0,1,.769,2.085,2.7,2.7,0,0,1-.765,2.179"/></g></svg>