<svg width="24" height="10" viewBox="0 0 24 10" fill="none" xmlns="http://www.w3.org/2000/svg">
<g clip-path="url(#clip0_1078_920)">
<path d="M17.6633 7.4175L18.3566 5.66437H20.3586L19.4085 3.00469L20.5968 0L23.9999 9.03609H21.4902L20.9085 7.4175H17.6633Z" fill="#3D3D3D"/>
<path d="M15.5222 9.03609L19.1653 0H16.7503L14.258 5.83922L12.4856 0H10.6289L8.72624 5.83922L7.38421 3.17859L6.16968 6.91969L7.40296 9.03609H9.77999L11.4994 3.79969L13.14 9.03609H15.5222Z" fill="#5A0FC8"/>
<path d="M2.29266 5.93391H3.78047C4.18674 5.93962 4.59185 5.88898 4.98422 5.78344L5.36906 4.59797L6.44438 1.28484C6.36173 1.15409 6.26761 1.03094 6.16313 0.916875C5.61187 0.305625 4.80438 0 3.74063 0H0V9.03609H2.29266V5.93391ZM4.26141 2.07891C4.47703 2.29578 4.58484 2.58625 4.58484 2.95031C4.58484 3.31437 4.49016 3.60516 4.30078 3.82266C4.09297 4.06141 3.71016 4.18078 3.15234 4.18078H2.29266V1.75313H3.15891C3.67797 1.75313 4.04562 1.86172 4.26188 2.07891H4.26141Z" fill="#3D3D3D"/>
</g>
<defs>
<clipPath id="clip0_1078_920">
<rect width="24" height="9.03609" fill="white"/>
</clipPath>
</defs>
</svg>
