<svg width="24" height="24" viewBox="0 0 24 24" fill="none" xmlns="http://www.w3.org/2000/svg">
<g clip-path="url(#clip0_1078_709)">
<path d="M11.7277 0.000172974C10.7497 0.00444382 9.81438 0.0877253 8.99224 0.232934C6.56854 0.660018 6.12864 1.5569 6.12864 3.20971V5.39211H11.8537V6.12029H3.98041C2.31691 6.12029 0.858419 7.11967 0.403574 9.02233C-0.121739 11.2026 -0.145229 12.565 0.403574 14.8414C0.81144 16.5369 1.78306 17.7434 3.44655 17.7434H5.41541V15.1275C5.41541 13.2376 7.05114 11.5699 8.99224 11.5699H14.7109C16.3039 11.5699 17.5745 10.2587 17.5745 8.66144V3.20971C17.5745 1.65726 16.2655 0.493455 14.7109 0.232934C13.7265 0.0706419 12.7057 -0.00409787 11.7277 0.000172974ZM8.63135 1.75549C9.22287 1.75549 9.70547 2.24664 9.70547 2.84882C9.70547 3.45101 9.22287 3.93575 8.63135 3.93575C8.03984 3.93575 7.55724 3.44888 7.55724 2.84882C7.55724 2.24877 8.03771 1.75549 8.63135 1.75549Z" fill="url(#paint0_linear_1078_709)"/>
<path d="M18.2878 6.12012V8.6634C18.2878 10.6344 16.6157 12.2936 14.7109 12.2936H8.99226C7.42486 12.2936 6.12866 13.6347 6.12866 15.2042V20.6559C6.12866 22.2084 7.47825 23.1202 8.99226 23.5644C10.8052 24.0982 12.5435 24.1943 14.7109 23.5644C16.1523 23.1458 17.5745 22.3066 17.5745 20.6559V18.4735H11.8559V17.7453H20.4381C22.1016 17.7453 22.723 16.5837 23.3017 14.8433C23.8996 13.0496 23.874 11.3241 23.3017 9.02429C22.8896 7.3672 22.1059 6.12225 20.4381 6.12225H18.2899L18.2878 6.12012ZM15.0718 19.9278C15.6655 19.9278 16.1459 20.4146 16.1459 21.0147C16.1459 21.6147 15.6655 22.108 15.0718 22.108C14.4782 22.108 13.9977 21.6169 13.9977 21.0147C13.9977 20.4125 14.4803 19.9278 15.0718 19.9278Z" fill="url(#paint1_linear_1078_709)"/>
</g>
<defs>
<linearGradient id="paint0_linear_1078_709" x1="-0.642014" y1="0.714642" x2="12.592" y2="11.9003" gradientUnits="userSpaceOnUse">
<stop stop-color="#5A9FD4"/>
<stop offset="1" stop-color="#306998"/>
</linearGradient>
<linearGradient id="paint1_linear_1078_709" x1="17.4355" y1="19.0405" x2="12.6695" y2="12.4157" gradientUnits="userSpaceOnUse">
<stop stop-color="#FFD43B"/>
<stop offset="1" stop-color="#FFE873"/>
</linearGradient>
<clipPath id="clip0_1078_709">
<rect width="23.7373" height="24" fill="white"/>
</clipPath>
</defs>
</svg>
