<svg width="25" height="25" viewBox="0 0 20 20" xmlns="http://www.w3.org/2000/svg"> <g id="Team_Extension" data-name="Team Extension" transform="translate(-1206 -604)"> <g id="Group_35" data-name="Group 35" transform="translate(-149.4 -61)"> <g id="Group_19" data-name="Group 19" transform="translate(1356 668)"> <g id="Group_3" data-name="Group 3"> <g id="Group_2" data-name="Group 2"> <g id="Group_1" data-name="Group 1"> <path id="Path_1" data-name="Path 1" d="M15,7.8H13.7A5.019,5.019,0,0,1,13.9,9v5a.9.9,0,0,1-.1.5H16A1.538,1.538,0,0,0,17.5,13V10.3A2.61,2.61,0,0,0,15,7.8Z" fill="#87bbfd"></path> </g> </g> </g> <g id="Group_6" data-name="Group 6"> <g id="Group_5" data-name="Group 5"> <g id="Group_4" data-name="Group 4"> <path id="Path_2" data-name="Path 2" d="M4,9a5.019,5.019,0,0,1,.2-1.2H2.9A2.476,2.476,0,0,0,.4,10.3V13a1.538,1.538,0,0,0,1.5,1.5H4.1a1.268,1.268,0,0,1-.1-.6Z" fill="#87bbfd"></path> </g> </g> </g> <g id="Group_9" data-name="Group 9"> <g id="Group_8" data-name="Group 8"> <g id="Group_7" data-name="Group 7"> <path id="Path_3" data-name="Path 3" d="M10.5,6.5h-3A2.476,2.476,0,0,0,5,9v5a.472.472,0,0,0,.5.5h6.9a.472.472,0,0,0,.5-.5V9A2.456,2.456,0,0,0,10.5,6.5Z" fill="#3d7ef1"></path> </g> </g> </g> <g id="Group_12" data-name="Group 12"> <g id="Group_11" data-name="Group 11"> <g id="Group_10" data-name="Group 10"> <path id="Path_4" data-name="Path 4" d="M8.9,0A2.925,2.925,0,0,0,6,3,2.825,2.825,0,0,0,7.5,5.5a3.255,3.255,0,0,0,1.4.4,2.3,2.3,0,0,0,1.4-.4A2.738,2.738,0,0,0,11.9,3,2.946,2.946,0,0,0,8.9,0Z" fill="#3d7ef1"></path> </g> </g> </g> <g id="Group_15" data-name="Group 15"> <g id="Group_14" data-name="Group 14"> <g id="Group_13" data-name="Group 13"> <path id="Path_5" data-name="Path 5" d="M3.8,2.8a2.2,2.2,0,1,0,0,4.4A2.92,2.92,0,0,0,4.7,7,2.66,2.66,0,0,0,5.8,6,3.553,3.553,0,0,0,6,5,2.156,2.156,0,0,0,3.8,2.8Z" fill="#87bbfd"></path> </g> </g> </g> <g id="Group_18" data-name="Group 18"> <g id="Group_17" data-name="Group 17"> <g id="Group_16" data-name="Group 16"> <path id="Path_6" data-name="Path 6" d="M14.1,2.8A2.22,2.22,0,0,0,11.9,5a1.689,1.689,0,0,0,.3,1,2.168,2.168,0,0,0,1.1,1,2.92,2.92,0,0,0,.9.2A2.22,2.22,0,0,0,16.4,5,2.308,2.308,0,0,0,14.1,2.8Z" fill="#87bbfd"></path> </g> </g> </g> </g> </g> <rect id="Rectangle_1" data-name="Rectangle 1" width="20" height="20" transform="translate(1206 604)" fill="none"></rect> </g> </svg>