<svg width="24" height="24" viewBox="0 0 24 24" fill="none" xmlns="http://www.w3.org/2000/svg">
<path fill-rule="evenodd" clip-rule="evenodd" d="M18.6086 8.17272C21.5086 9.06037 23.4001 10.4918 23.4001 12.0021C23.4001 13.5079 21.5179 14.9393 18.6365 15.8269C19.3104 18.7734 19.0176 21.1203 17.7117 21.8732C17.405 22.0498 17.0518 22.1334 16.6614 22.1334C15.3834 22.1334 13.7103 21.2318 12.0187 19.661C10.327 21.2411 8.65398 22.152 7.37596 22.152C6.98558 22.152 6.63238 22.0683 6.3303 21.8917C5.01974 21.1389 4.72231 18.7873 5.39153 15.8316C2.49158 14.9439 0.600098 13.5125 0.600098 12.0021C0.600098 10.4964 2.48228 9.06966 5.37294 8.17737C4.69907 5.23094 4.99186 2.88402 6.29777 2.13115C6.60449 1.95455 6.95769 1.87089 7.34807 1.87089V1.86625C8.6261 1.86625 10.2991 2.76783 11.9908 4.33864C13.6824 2.75854 15.3555 1.84766 16.6335 1.84766V1.85231C17.0174 1.85298 17.369 1.93667 17.6699 2.11256C18.9804 2.86543 19.2779 5.217 18.6086 8.17272ZM16.6289 2.88402C15.6623 2.88649 14.2423 3.65774 12.7297 5.06363C13.385 5.7468 14.0356 6.52755 14.663 7.38732C15.7087 7.49885 16.7032 7.6708 17.6141 7.89388C17.7163 7.42449 17.8 6.96441 17.8511 6.52755C18.0649 4.75226 17.7907 3.37199 17.1587 3.0095C17.0146 2.93049 16.8426 2.88867 16.6289 2.88867V2.88402ZM11.2519 5.06828C9.73682 3.66942 8.31008 2.90261 7.34807 2.90261V2.90726C7.13429 2.90726 6.95305 2.94443 6.81363 3.02809C6.18623 3.39523 5.91668 4.7755 6.13511 6.55079C6.19088 6.98299 6.26988 7.43379 6.37677 7.89853C7.28766 7.6708 8.28219 7.49885 9.3325 7.38732C9.9506 6.52755 10.6012 5.75144 11.2519 5.06828ZM16.7218 10.7381C16.9635 10.12 17.1772 9.50187 17.3492 8.90236C16.7404 8.75364 16.1037 8.63281 15.4438 8.53521C15.6715 8.88841 15.8992 9.25091 16.113 9.6227C16.3314 9.99449 16.5313 10.3663 16.7218 10.7381ZM14.1007 15.6271C14.4864 15.0741 14.8582 14.4792 15.2207 13.8518C15.5693 13.243 15.8899 12.6202 16.1827 11.9975C15.8899 11.3748 15.5693 10.7567 15.2161 10.1479C14.8536 9.5251 14.4771 8.93489 14.0914 8.38185C13.4036 8.32608 12.7018 8.29355 12.0001 8.29355C11.2937 8.29355 10.5919 8.32608 9.89948 8.3865C9.51374 8.93954 9.14196 9.5344 8.77946 10.1618C8.43091 10.7706 8.10559 11.3933 7.81746 12.0161C8.11024 12.6388 8.43091 13.2569 8.78411 13.8657C9.1466 14.4885 9.52304 15.0787 9.90877 15.6317C10.5966 15.6875 11.2983 15.72 12.0001 15.72C12.7065 15.72 13.4082 15.6875 14.1007 15.6271ZM17.3631 15.0973C17.1865 14.4931 16.9728 13.8704 16.7218 13.2476C16.5313 13.6194 16.3314 13.9959 16.1177 14.3677C15.9039 14.7441 15.6762 15.1112 15.4484 15.4691C16.113 15.3715 16.7543 15.246 17.3631 15.0973ZM10.7174 16.7192C11.145 17.263 11.5772 17.7602 12.0094 18.2064C12.4369 17.7602 12.8691 17.263 13.2874 16.7192C12.8645 16.7425 12.4323 16.7518 11.9954 16.7518C11.5632 16.7518 11.1357 16.7378 10.7174 16.7192ZM6.64632 15.1019C7.25512 15.2507 7.89181 15.3715 8.55174 15.4691C8.32402 15.1159 8.10095 14.7534 7.88252 14.3816C7.66409 14.0098 7.46426 13.638 7.27371 13.2662C7.03205 13.8843 6.81827 14.5024 6.64632 15.1019ZM13.2781 7.28507C12.8506 6.74133 12.4183 6.24406 11.9861 5.79792C11.5586 6.24406 11.1264 6.74133 10.7081 7.28507C11.131 7.26184 11.5632 7.25254 12.0001 7.25254C12.4323 7.25254 12.8598 7.26648 13.2781 7.28507ZM7.87787 9.63664C8.09165 9.2602 8.31937 8.89306 8.54709 8.53521C7.88252 8.63281 7.24118 8.75829 6.63238 8.90236C6.80898 9.50651 7.02276 10.1293 7.27371 10.752C7.46426 10.3802 7.66409 10.0084 7.87787 9.63664ZM1.63181 12.0021C1.63181 12.7318 2.69606 13.652 4.34123 14.3537C4.74555 14.5257 5.1824 14.6837 5.64249 14.8277C5.90274 13.9215 6.24665 12.9781 6.6742 12.0114C6.242 11.0401 5.89345 10.0921 5.62855 9.1812C5.17775 9.32527 4.7409 9.47863 4.34123 9.65058C2.69606 10.3477 1.63181 11.2725 1.63181 12.0021ZM6.14905 17.4767C5.93527 19.252 6.20947 20.6323 6.84151 20.9948C6.98093 21.0738 7.15753 21.1156 7.36666 21.1203C8.33331 21.1203 9.75541 20.3488 11.2704 18.9407C10.6152 18.2575 9.96454 17.4767 9.33715 16.617C8.29149 16.5054 7.29695 16.3335 6.38607 16.1104C6.28383 16.5798 6.20017 17.0399 6.14905 17.4767ZM17.1865 20.9762C17.8139 20.6091 18.0835 19.2288 17.8651 17.4535C17.8139 17.0213 17.7303 16.5705 17.6234 16.1011C16.7125 16.3288 15.718 16.5008 14.6677 16.6123C14.0496 17.4721 13.3989 18.2482 12.7483 18.9314C14.2634 20.3302 15.6901 21.097 16.6521 21.097C16.8659 21.097 17.0471 21.0599 17.1865 20.9762ZM18.367 14.8231C18.8178 14.679 19.2546 14.5257 19.6543 14.3537C21.2995 13.6566 22.3637 12.7318 22.3684 12.0021C22.3684 11.2725 21.3041 10.3523 19.6589 9.65058C19.25 9.47863 18.8131 9.32062 18.353 9.17655C18.0928 10.0828 17.7489 11.0262 17.3213 11.9929C17.7535 12.9642 18.1021 13.9122 18.367 14.8231ZM14.12 12.0023C14.12 13.1752 13.1691 14.1261 11.9961 14.1261C10.8232 14.1261 9.8723 13.1752 9.8723 12.0023C9.8723 10.8293 10.8232 9.87841 11.9961 9.87841C13.1691 9.87841 14.12 10.8293 14.12 12.0023Z" fill="#00D8FF"/>
</svg>
