<svg xmlns="http://www.w3.org/2000/svg" width="50" height="50" viewBox="0 0 50 50"><defs><style>.a{fill:#005d6d;}.b{fill:#fff;fill-rule:evenodd;}</style></defs><g transform="translate(774 -319)"><circle class="a" cx="25" cy="25" r="25" transform="translate(-774 319)"/><path class="b" d="M28.982,11.816c4.57,1.4,7.551,3.655,7.551,6.035s-2.966,4.629-7.508,6.028c1.062,4.644.6,8.342-1.458,9.529a3.266,3.266,0,0,1-1.655.41c-2.014,0-4.651-1.421-7.317-3.9-2.666,2.49-5.3,3.926-7.317,3.926a3.22,3.22,0,0,1-1.648-.41c-2.065-1.186-2.534-4.893-1.48-9.551C3.581,22.488.6,20.232.6,17.851s2.966-4.622,7.522-6.028C7.06,7.18,7.522,3.481,9.58,2.294a3.266,3.266,0,0,1,1.655-.41V1.877c2.014,0,4.651,1.421,7.317,3.9,2.666-2.49,5.3-3.926,7.317-3.926v.007a3.209,3.209,0,0,1,1.633.41C29.568,3.452,30.037,7.158,28.982,11.816Zm-3.12-8.335c-1.523,0-3.761,1.219-6.145,3.435a35.725,35.725,0,0,1,3.047,3.662,35.491,35.491,0,0,1,4.651.8c.161-.74.293-1.465.374-2.153.337-2.8-.1-4.973-1.091-5.545a1.7,1.7,0,0,0-.835-.19ZM17.388,6.923C15,4.719,12.751,3.51,11.235,3.51v.007a1.63,1.63,0,0,0-.842.19C9.4,4.287,8.979,6.462,9.323,9.26c.088.681.212,1.392.381,2.124a34.2,34.2,0,0,1,4.658-.806A34.579,34.579,0,0,1,17.388,6.923Zm8.621,8.936c.381-.974.718-1.948.989-2.893-.959-.234-1.963-.425-3-.579.359.557.718,1.128,1.055,1.714S25.708,15.273,26.008,15.859Zm-4.131,7.705c.608-.872,1.194-1.809,1.765-2.8.549-.959,1.055-1.941,1.516-2.922-.461-.981-.967-1.956-1.523-2.915q-.857-1.472-1.773-2.783c-1.084-.088-2.19-.139-3.3-.139s-2.219.051-3.311.146c-.608.872-1.194,1.809-1.765,2.8-.549.959-1.062,1.941-1.516,2.922.461.981.967,1.956,1.523,2.915q.857,1.472,1.772,2.783c1.084.088,2.19.139,3.3.139S20.786,23.659,21.877,23.564Zm5.142-.835c-.278-.952-.615-1.934-1.011-2.915-.3.586-.615,1.179-.952,1.765s-.7,1.172-1.055,1.736C25.049,23.161,26.059,22.964,27.019,22.729ZM16.545,25.285a30.212,30.212,0,0,0,2.036,2.344A28.618,28.618,0,0,0,20.6,25.285c-.666.037-1.348.051-2.036.051S17.2,25.315,16.545,25.285Zm-6.416-2.549c.959.235,1.963.425,3,.579q-.538-.835-1.055-1.714c-.344-.586-.659-1.172-.959-1.758C10.737,20.818,10.4,21.792,10.129,22.737ZM20.581,10.417a30.177,30.177,0,0,0-2.036-2.344,28.616,28.616,0,0,0-2.014,2.344c.666-.037,1.348-.051,2.036-.051S19.922,10.388,20.581,10.417ZM12.07,14.123c.337-.593.7-1.172,1.055-1.736-1.047.154-2.058.352-3.018.579.278.952.615,1.934,1.011,2.915C11.418,15.3,11.733,14.709,12.07,14.123ZM2.226,17.851c0,1.15,1.677,2.6,4.27,3.706.637.271,1.326.52,2.051.747a34.69,34.69,0,0,1,1.626-4.439,35.176,35.176,0,0,1-1.648-4.46c-.71.227-1.4.469-2.029.74C3.9,15.244,2.226,16.7,2.226,17.851Zm7.119,8.628c-.337,2.8.1,4.973,1.091,5.545a1.749,1.749,0,0,0,.828.2c1.523,0,3.765-1.216,6.152-3.435a35.761,35.761,0,0,1-3.047-3.662,35.5,35.5,0,0,1-4.651-.8C9.558,25.066,9.426,25.791,9.345,26.479Zm17.4,5.515c.989-.579,1.414-2.754,1.069-5.552a20.535,20.535,0,0,0-.381-2.131,34.2,34.2,0,0,1-4.658.806,34.6,34.6,0,0,1-3.025,3.655c2.388,2.2,4.636,3.413,6.152,3.413A1.629,1.629,0,0,0,26.741,31.995Zm1.86-9.7c.71-.227,1.4-.469,2.029-.74,2.593-1.1,4.27-2.556,4.277-3.706s-1.677-2.6-4.27-3.706c-.644-.271-1.333-.52-2.058-.747a34.663,34.663,0,0,1-1.626,4.439A35.177,35.177,0,0,1,28.6,22.3Zm-6.693-4.446A3.347,3.347,0,1,1,18.56,14.5,3.347,3.347,0,0,1,21.908,17.852Z" transform="translate(-767.567 326.152)"/></g></svg>