<svg xmlns="http://www.w3.org/2000/svg" width="30" height="30" viewBox="0 0 30 30"><defs><style>.a{fill:#fff;fill-rule:evenodd;}</style></defs><path class="a" d="M38.5,38H36.469a3.955,3.955,0,0,0,.031-.5,3.477,3.477,0,0,0-2-3.169V17.5A.472.472,0,0,0,34,17H26.5V9.5A.472.472,0,0,0,26,9H12.5a.472.472,0,0,0-.5.5V38H9.5a.5.5,0,0,0,0,1h29a.5.5,0,0,0,0-1ZM14,35.5v1a.584.584,0,0,0,.023.163A3.486,3.486,0,0,0,13.536,38H13V10H25.5v7H23a.472.472,0,0,0-.5.5V33.05a3.629,3.629,0,0,0-.871-.64l-.086-.044-.034-.017a3.464,3.464,0,0,0-1.151-.329l-.017,0c-.048,0-.095-.008-.142-.011l-.038,0c-.054,0-.108,0-.162,0a3.389,3.389,0,0,0-2,.657V32.5a.5.5,0,0,0-1,0v1a.564.564,0,0,0,.036.2,3.614,3.614,0,0,0-.486,1.346,3.4,3.4,0,0,0-1.55.583V35.5a.5.5,0,1,0-1,0ZM25.173,38H14.55a2.52,2.52,0,0,1,2.222-1.99l.03,0,.08-.006c.039,0,.078,0,.118,0a.472.472,0,0,0,.5-.5A2.476,2.476,0,0,1,20,33a2.439,2.439,0,0,1,2.45,2.15.543.543,0,0,0,.223.321l.021.013a.182.182,0,0,0,.024.014.435.435,0,0,0,.058.028h0a.484.484,0,0,0,.072.023.276.276,0,0,0,.1.013.484.484,0,0,0,.4-.213l.05-.05a2.014,2.014,0,0,1,1.6-.8,1.941,1.941,0,0,1,.978.271A3.039,3.039,0,0,0,25,36.845c0,.051,0,.1,0,.155A2.939,2.939,0,0,0,25.173,38Zm.594-4.4-.014,0-.112-.027-.092-.018-.04-.007-.1-.015-.044-.006-.09-.011-.066-.005-.071,0L25,33.5l-.11,0-.072,0-.029,0a2.944,2.944,0,0,0-1.291.386V18h10V34.035A3.643,3.643,0,0,0,33,34a3.382,3.382,0,0,0-1.1.185A.485.485,0,0,0,31.5,34a.472.472,0,0,0-.5.5v.153a3.458,3.458,0,0,0-.525.465c-.025.027-.051.054-.074.081a3.165,3.165,0,0,0-1.552-1.074A.5.5,0,0,0,28.5,34a.6.6,0,0,0-.156.02A3,3,0,0,0,28,34a2.631,2.631,0,0,0-.952.157l-.105.037A3.125,3.125,0,0,0,25.767,33.6ZM35.45,38h-9.1a2.133,2.133,0,0,1-.3-1.05,1.954,1.954,0,0,1,.593-1.416,2.058,2.058,0,0,1,.229-.183A.494.494,0,0,0,27.1,35.3a1.967,1.967,0,0,1,2.8,1.05.454.454,0,0,0,.45.3.345.345,0,0,0,.153-.042.424.424,0,0,0,.3-.258,2.3,2.3,0,0,1,.86-.971.456.456,0,0,0,.2-.113A2.531,2.531,0,0,1,33,35a2.476,2.476,0,0,1,2.5,2.5A1.7,1.7,0,0,1,35.45,38ZM25.5,22a.472.472,0,0,0-.5.5v1a.5.5,0,0,0,1,0v-1A.472.472,0,0,0,25.5,22Zm0,9a.472.472,0,0,0-.5.5v1a.5.5,0,0,0,1,0v-1A.472.472,0,0,0,25.5,31Zm0-6a.472.472,0,0,0-.5.5v1a.5.5,0,0,0,1,0v-1A.472.472,0,0,0,25.5,25Zm0,3a.472.472,0,0,0-.5.5v1a.5.5,0,0,0,1,0v-1A.472.472,0,0,0,25.5,28Zm0-9a.472.472,0,0,0-.5.5v1a.5.5,0,0,0,1,0v-1A.472.472,0,0,0,25.5,19Zm3,5a.472.472,0,0,0,.5-.5v-1a.5.5,0,0,0-1,0v1A.472.472,0,0,0,28.5,24Zm0-3a.472.472,0,0,0,.5-.5v-1a.5.5,0,0,0-1,0v1A.472.472,0,0,0,28.5,21Zm0,6a.472.472,0,0,0,.5-.5v-1a.5.5,0,0,0-1,0v1A.472.472,0,0,0,28.5,27Zm0,3a.472.472,0,0,0,.5-.5v-1a.5.5,0,0,0-1,0v1A.472.472,0,0,0,28.5,30Zm0,3a.472.472,0,0,0,.5-.5v-1a.5.5,0,0,0-1,0v1A.472.472,0,0,0,28.5,33Zm3-6a.472.472,0,0,0,.5-.5v-1a.5.5,0,0,0-1,0v1A.472.472,0,0,0,31.5,27Zm0-3a.472.472,0,0,0,.5-.5v-1a.5.5,0,0,0-1,0v1A.472.472,0,0,0,31.5,24Zm0,9a.472.472,0,0,0,.5-.5v-1a.5.5,0,0,0-1,0v1A.472.472,0,0,0,31.5,33Zm0-3a.472.472,0,0,0,.5-.5v-1a.5.5,0,0,0-1,0v1A.472.472,0,0,0,31.5,30Zm0-9a.472.472,0,0,0,.5-.5v-1a.5.5,0,0,0-1,0v1A.472.472,0,0,0,31.5,21Zm-17,7a.472.472,0,0,0,.5-.5v-1a.5.5,0,0,0-1,0v1A.472.472,0,0,0,14.5,28Zm0,3a.472.472,0,0,0,.5-.5v-1a.5.5,0,0,0-1,0v1A.472.472,0,0,0,14.5,31Zm.5,1.5a.5.5,0,0,0-1,0v1a.5.5,0,0,0,1,0ZM14.5,13a.472.472,0,0,0,.5-.5v-1a.5.5,0,0,0-1,0v1A.472.472,0,0,0,14.5,13Zm0,3a.472.472,0,0,0,.5-.5v-1a.5.5,0,0,0-1,0v1A.472.472,0,0,0,14.5,16Zm0,3a.472.472,0,0,0,.5-.5v-1a.5.5,0,0,0-1,0v1A.472.472,0,0,0,14.5,19Zm0,3a.472.472,0,0,0,.5-.5v-1a.5.5,0,0,0-1,0v1A.472.472,0,0,0,14.5,22Zm0,3a.472.472,0,0,0,.5-.5v-1a.5.5,0,0,0-1,0v1A.472.472,0,0,0,14.5,25Zm3-9a.472.472,0,0,0,.5-.5v-1a.5.5,0,0,0-1,0v1A.472.472,0,0,0,17.5,16Zm0-3a.472.472,0,0,0,.5-.5v-1a.5.5,0,0,0-1,0v1A.472.472,0,0,0,17.5,13Zm0,9a.472.472,0,0,0,.5-.5v-1a.5.5,0,0,0-1,0v1A.472.472,0,0,0,17.5,22Zm0-3a.472.472,0,0,0,.5-.5v-1a.5.5,0,0,0-1,0v1A.472.472,0,0,0,17.5,19Zm0,6a.472.472,0,0,0,.5-.5v-1a.5.5,0,0,0-1,0v1A.472.472,0,0,0,17.5,25Zm0,3a.472.472,0,0,0,.5-.5v-1a.5.5,0,0,0-1,0v1A.472.472,0,0,0,17.5,28Zm0,3a.472.472,0,0,0,.5-.5v-1a.5.5,0,0,0-1,0v1A.472.472,0,0,0,17.5,31Zm3-12a.472.472,0,0,0,.5-.5v-1a.5.5,0,0,0-1,0v1A.472.472,0,0,0,20.5,19Zm0-3a.472.472,0,0,0,.5-.5v-1a.5.5,0,0,0-1,0v1A.472.472,0,0,0,20.5,16Zm0-3a.472.472,0,0,0,.5-.5v-1a.5.5,0,0,0-1,0v1A.472.472,0,0,0,20.5,13Zm0,18a.472.472,0,0,0,.5-.5v-1a.5.5,0,0,0-1,0v1A.472.472,0,0,0,20.5,31Zm0-3a.472.472,0,0,0,.5-.5v-1a.5.5,0,0,0-1,0v1A.472.472,0,0,0,20.5,28Zm0-3a.472.472,0,0,0,.5-.5v-1a.5.5,0,0,0-1,0v1A.472.472,0,0,0,20.5,25Zm0-3a.472.472,0,0,0,.5-.5v-1a.5.5,0,0,0-1,0v1A.472.472,0,0,0,20.5,22Zm3-6a.472.472,0,0,0,.5-.5v-1a.5.5,0,0,0-1,0v1A.472.472,0,0,0,23.5,16Zm0-3a.472.472,0,0,0,.5-.5v-1a.5.5,0,0,0-1,0v1A.472.472,0,0,0,23.5,13Z" transform="translate(-9 -9)"/></svg>