<svg xmlns="http://www.w3.org/2000/svg" width="31.573" height="30" viewBox="0 0 31.573 30"><defs><style>.a{fill:#fff;}</style></defs><g transform="translate(-10.003 -11)"><g transform="translate(10.003 11)"><path class="a" d="M35.333,36.106H26.108c-.283,0-.5-.211-.568-.56V26.454a.556.556,0,0,1,.568-.559h9.224a.556.556,0,0,1,.568.559v9.092a.557.557,0,0,1-.568.56Zm-.5-9.091h-8.16v8.042h8.16V27.015ZM17.879,35.266a.555.555,0,0,1-.568-.559v-2.1a.557.557,0,0,1,.568-.56.519.519,0,0,1,.567.56v2.1a.518.518,0,0,1-.567.559ZM39.235,23.938V39.882h1.773a.559.559,0,1,1,0,1.118H10.5a.543.543,0,0,1-.5-.559.5.5,0,0,1,.5-.559v.07h1.845V24.007A4.3,4.3,0,0,1,10,20.231c0-.14,0-.21.071-.28l4.754-8.672a.717.717,0,0,1,.5-.279H35.687a.578.578,0,0,1,.425.279l5.322,8.672a.419.419,0,0,1,.07.28,4.182,4.182,0,0,1-2.269,3.707ZM16.529,39.882h5.747V27.015H16.529V39.882ZM14.4,23.377a3.2,3.2,0,0,0,3.194-2.657H11.137A3.34,3.34,0,0,0,14.4,23.377Zm1.207-11.328-4.187,7.622h5.747l2.625-7.623Zm9.578,0H20.929l-2.7,7.623h6.954V12.049ZM18.8,20.721a3.262,3.262,0,0,0,3.193,2.657,3.2,3.2,0,0,0,3.194-2.657ZM21.923,24.5a4.261,4.261,0,0,1-3.762-2.238,4.149,4.149,0,0,1-4.753,2.1h-.071v15.6h2.058V26.525a.556.556,0,0,1,.568-.559h6.81a.554.554,0,0,1,.568.559V39.953H38.1v-15.6a4.916,4.916,0,0,1-.994.14,4.217,4.217,0,0,1-3.831-2.308,4.306,4.306,0,0,1-7.592.07,4.255,4.255,0,0,1-3.76,2.238Zm10.785-3.776H26.322a3.262,3.262,0,0,0,3.194,2.657,3.2,3.2,0,0,0,3.193-2.657Zm-6.457-8.672v7.623h6.528l-2.7-7.623Zm9.009,0H31.217l2.7,7.623h6.032l-4.684-7.623Zm-1.276,8.672a3.248,3.248,0,0,0,6.387,0Z" transform="translate(-10.003 -11)"/></g></g></svg>