<svg width="25" height="24" viewBox="0 0 25 24" fill="none" xmlns="http://www.w3.org/2000/svg">
<g clip-path="url(#clip0_1077_397)">
<path fill-rule="evenodd" clip-rule="evenodd" d="M18.6428 8.17272C21.5428 9.06037 23.4343 10.4918 23.4343 12.0021C23.4343 13.5079 21.5521 14.9393 18.6707 15.8269C19.3446 18.7734 19.0518 21.1203 17.7459 21.8732C17.4392 22.0498 17.086 22.1334 16.6956 22.1334C15.4175 22.1334 13.7445 21.2318 12.0529 19.661C10.3612 21.2411 8.68816 22.152 7.41014 22.152C7.01976 22.152 6.66656 22.0683 6.36448 21.8917C5.05392 21.1389 4.75649 18.7873 5.42571 15.8316C2.52575 14.9439 0.634277 13.5125 0.634277 12.0021C0.634277 10.4964 2.51646 9.06966 5.40712 8.17737C4.73325 5.23094 5.02604 2.88402 6.33195 2.13115C6.63867 1.95455 6.99187 1.87089 7.38225 1.87089V1.86625C8.66028 1.86625 10.3333 2.76783 12.025 4.33864C13.7166 2.75854 15.3897 1.84766 16.6677 1.84766V1.85231C17.0516 1.85298 17.4032 1.93667 17.7041 2.11256C19.0146 2.86543 19.312 5.217 18.6428 8.17272ZM16.663 2.88402C15.6965 2.88649 14.2765 3.65774 12.7639 5.06363C13.4192 5.7468 14.0698 6.52755 14.6972 7.38732C15.7429 7.49885 16.7374 7.6708 17.6483 7.89388C17.7505 7.42449 17.8342 6.96441 17.8853 6.52755C18.0991 4.75226 17.8249 3.37199 17.1928 3.0095C17.0488 2.93049 16.8768 2.88867 16.663 2.88867V2.88402ZM11.286 5.06828C9.771 3.66942 8.34426 2.90261 7.38225 2.90261V2.90726C7.16847 2.90726 6.98723 2.94443 6.84781 3.02809C6.22041 3.39523 5.95086 4.7755 6.16929 6.55079C6.22506 6.98299 6.30406 7.43379 6.41095 7.89853C7.32184 7.6708 8.31637 7.49885 9.36668 7.38732C9.98478 6.52755 10.6354 5.75144 11.286 5.06828ZM16.756 10.7381C16.9977 10.12 17.2114 9.50187 17.3834 8.90236C16.7746 8.75364 16.1379 8.63281 15.478 8.53521C15.7057 8.88841 15.9334 9.25091 16.1472 9.6227C16.3656 9.99449 16.5654 10.3663 16.756 10.7381ZM14.1349 15.6271C14.5206 15.0741 14.8924 14.4792 15.2549 13.8518C15.6034 13.243 15.9241 12.6202 16.2169 11.9975C15.9241 11.3748 15.6034 10.7567 15.2502 10.1479C14.8877 9.5251 14.5113 8.93489 14.1256 8.38185C13.4378 8.32608 12.736 8.29355 12.0343 8.29355C11.3279 8.29355 10.6261 8.32608 9.93366 8.3865C9.54792 8.93954 9.17614 9.5344 8.81364 10.1618C8.46509 10.7706 8.13977 11.3933 7.85164 12.0161C8.14442 12.6388 8.46509 13.2569 8.81829 13.8657C9.18078 14.4885 9.55722 15.0787 9.94295 15.6317C10.6308 15.6875 11.3325 15.72 12.0343 15.72C12.7407 15.72 13.4424 15.6875 14.1349 15.6271ZM17.3973 15.0973C17.2207 14.4931 17.0069 13.8704 16.756 13.2476C16.5654 13.6194 16.3656 13.9959 16.1518 14.3677C15.9381 14.7441 15.7103 15.1112 15.4826 15.4691C16.1472 15.3715 16.7885 15.246 17.3973 15.0973ZM10.7516 16.7192C11.1791 17.263 11.6114 17.7602 12.0436 18.2064C12.4711 17.7602 12.9033 17.263 13.3216 16.7192C12.8987 16.7425 12.4665 16.7518 12.0296 16.7518C11.5974 16.7518 11.1699 16.7378 10.7516 16.7192ZM6.6805 15.1019C7.2893 15.2507 7.92599 15.3715 8.58592 15.4691C8.3582 15.1159 8.13513 14.7534 7.9167 14.3816C7.69827 14.0098 7.49844 13.638 7.30789 13.2662C7.06623 13.8843 6.85245 14.5024 6.6805 15.1019ZM13.3123 7.28507C12.8847 6.74133 12.4525 6.24406 12.0203 5.79792C11.5928 6.24406 11.1606 6.74133 10.7423 7.28507C11.1652 7.26184 11.5974 7.25254 12.0343 7.25254C12.4665 7.25254 12.894 7.26648 13.3123 7.28507ZM7.91205 9.63664C8.12583 9.2602 8.35355 8.89306 8.58127 8.53521C7.9167 8.63281 7.27536 8.75829 6.66656 8.90236C6.84316 9.50651 7.05694 10.1293 7.30789 10.752C7.49844 10.3802 7.69827 10.0084 7.91205 9.63664ZM1.66599 12.0021C1.66599 12.7318 2.73024 13.652 4.37541 14.3537C4.77973 14.5257 5.21658 14.6837 5.67667 14.8277C5.93692 13.9215 6.28083 12.9781 6.70838 12.0114C6.27618 11.0401 5.92763 10.0921 5.66273 9.1812C5.21193 9.32527 4.77508 9.47863 4.37541 9.65058C2.73024 10.3477 1.66599 11.2725 1.66599 12.0021ZM6.18323 17.4767C5.96945 19.252 6.24365 20.6323 6.87569 20.9948C7.01511 21.0738 7.19171 21.1156 7.40084 21.1203C8.36749 21.1203 9.78959 20.3488 11.3046 18.9407C10.6494 18.2575 9.99872 17.4767 9.37133 16.617C8.32567 16.5054 7.33113 16.3335 6.42025 16.1104C6.31801 16.5798 6.23435 17.0399 6.18323 17.4767ZM17.2207 20.9762C17.8481 20.6091 18.1177 19.2288 17.8992 17.4535C17.8481 17.0213 17.7645 16.5705 17.6576 16.1011C16.7467 16.3288 15.7522 16.5008 14.7019 16.6123C14.0838 17.4721 13.4331 18.2482 12.7825 18.9314C14.2975 20.3302 15.7243 21.097 16.6863 21.097C16.9001 21.097 17.0813 21.0599 17.2207 20.9762ZM18.4012 14.8231C18.8519 14.679 19.2888 14.5257 19.6885 14.3537C21.3336 13.6566 22.3979 12.7318 22.4025 12.0021C22.4025 11.2725 21.3383 10.3523 19.6931 9.65058C19.2842 9.47863 18.8473 9.32062 18.3872 9.17655C18.127 10.0828 17.7831 11.0262 17.3555 11.9929C17.7877 12.9642 18.1363 13.9122 18.4012 14.8231ZM14.1542 12.0023C14.1542 13.1752 13.2033 14.1261 12.0303 14.1261C10.8574 14.1261 9.90648 13.1752 9.90648 12.0023C9.90648 10.8293 10.8574 9.87841 12.0303 9.87841C13.2033 9.87841 14.1542 10.8293 14.1542 12.0023Z" fill="#00D8FF"/>
</g>
<defs>
<clipPath id="clip0_1077_397">
<rect width="24" height="24" fill="white" transform="translate(0.0341797)"/>
</clipPath>
</defs>
</svg>
