<svg width="25" height="18" viewBox="0 0 25 18" fill="none" xmlns="http://www.w3.org/2000/svg"><path d="M0 10.3804C0.04942 10.4498 0.00855346 10.5407 0.0608246 10.6251C0.0646261 10.027 0.260405 9.49078 0.509406 8.97426C0.920923 8.12214 1.55863 7.47062 2.37311 6.97941C2.9538 6.62975 3.5839 6.40008 4.23681 6.22479C4.27863 6.21354 4.3195 6.20041 4.36227 6.19104C4.4516 6.17041 4.49722 6.12073 4.52098 6.02793C4.77663 5.03519 5.22426 4.13151 5.87338 3.33283C6.95111 2.00731 8.33772 1.15144 10.0161 0.76053C10.745 0.590856 11.4863 0.528986 12.2343 0.565545C12.4576 0.576794 12.68 0.613354 12.9034 0.638664C12.9746 0.647101 13.0089 0.678036 12.9861 0.75678C12.948 0.887082 12.9043 1.01645 12.8986 1.15425C12.8958 1.21331 12.853 1.24893 12.8036 1.27893C12.5213 1.45048 12.278 1.6614 12.1127 1.95012C12.0727 2.02043 12.0043 2.01856 11.9359 2.01762C11.3533 2.01012 10.7783 2.0748 10.2157 2.21916C8.67606 2.61288 7.48143 3.47719 6.63749 4.8074C6.1699 5.54421 5.90474 6.3504 5.78119 7.20627C5.75553 7.38344 5.72892 7.41907 5.5531 7.45094C5.04844 7.54093 4.54664 7.63749 4.06099 7.80341C3.43754 8.01714 2.87586 8.32462 2.41588 8.80177C1.8504 9.38954 1.54342 10.0814 1.494 10.8913C1.43033 11.9431 1.7316 12.8777 2.40447 13.6942C2.62591 13.9632 2.87491 14.2079 3.17904 14.3898C3.23416 14.4226 3.25032 14.4704 3.24841 14.5276C3.23511 14.9503 3.29688 15.3628 3.41188 15.7687C3.41948 15.795 3.42138 15.8222 3.42233 15.8493C3.43184 16.0846 3.37006 16.1231 3.15623 16.0331C2.66298 15.824 2.21345 15.5456 1.81428 15.1931C1.15852 14.6138 0.694731 13.9051 0.368749 13.1036C0.24805 12.8065 0.174871 12.4971 0.09884 12.1878C0.0731796 12.0846 0.0902865 11.9787 0.086485 11.8737C0.0836338 11.7968 0.0978896 11.719 0.0655765 11.6394C0.0209085 11.7397 0.0522712 11.8503 0.000950384 11.9431V10.3813L0 10.3804Z" fill="#7DB2F7"></path><path d="M18.3662 17.7464C18.3472 17.6948 18.3187 17.6639 18.255 17.6611C17.8093 17.6423 17.3702 17.5786 16.9349 17.4839C16.9083 17.4783 16.8807 17.4745 16.8532 17.4736C16.7933 17.4717 16.7695 17.4426 16.7733 17.3845C16.7933 17.063 16.8123 16.7415 16.8294 16.4199C16.8342 16.3346 16.8855 16.329 16.9511 16.3384C17.259 16.3824 17.5698 16.4059 17.8796 16.4237C18.1039 16.4368 18.3272 16.4677 18.5525 16.4565C18.5686 16.4565 18.5838 16.4565 18.6 16.4546C18.6865 16.4405 18.7939 16.4293 18.7996 16.3262C18.8062 16.2174 18.6988 16.2052 18.6123 16.1902C18.3291 16.1396 18.044 16.0993 17.7655 16.0271C16.9891 15.8256 16.7021 15.46 16.7372 14.5816C16.7439 14.411 16.7724 14.2423 16.8199 14.0773C16.9168 13.7389 17.1316 13.5092 17.4624 13.3808C17.9186 13.2036 18.3966 13.2139 18.8737 13.2261C19.2805 13.2364 19.6777 13.3348 20.0826 13.3555C20.1472 13.3583 20.1748 13.3864 20.1738 13.4483C20.1681 13.7782 20.1377 14.1073 20.1453 14.4382C20.1472 14.5132 20.1054 14.5291 20.0284 14.5244C19.5409 14.4973 19.0562 14.4194 18.5658 14.4391C18.4859 14.4429 18.408 14.4494 18.3339 14.4776C18.2426 14.5123 18.2312 14.5854 18.3073 14.6463C18.3662 14.6941 18.4413 14.711 18.5135 14.7297C18.8224 14.8104 19.1369 14.8647 19.4401 14.966C19.6511 15.0363 19.8526 15.1206 20.0189 15.2725C20.1596 15.4009 20.2527 15.5528 20.2755 15.744C20.3116 16.0421 20.3297 16.3384 20.2736 16.6365C20.1843 17.1164 19.902 17.422 19.4316 17.5617C19.2586 17.6133 19.0847 17.6667 18.8994 17.662C18.8414 17.6601 18.7996 17.6817 18.7929 17.7454H18.3671L18.3662 17.7464Z" fill="#3771E7"></path><path d="M6.46159 17.7465C6.44259 17.6875 6.40457 17.6622 6.33899 17.6612C5.84479 17.6594 5.35915 17.5825 4.8754 17.4887C4.67202 17.4494 4.67012 17.4503 4.67962 17.2431C4.69293 16.976 4.71384 16.7088 4.72334 16.4407C4.72619 16.3554 4.76421 16.331 4.84024 16.3395C5.00466 16.3582 5.16812 16.3882 5.33254 16.3966C5.70604 16.4173 6.07859 16.4651 6.45304 16.4566C6.51672 16.4548 6.57944 16.4435 6.63456 16.4116C6.71725 16.3629 6.72105 16.3076 6.64882 16.2467C6.6051 16.2101 6.55188 16.1998 6.49676 16.1885C6.12611 16.1182 5.75261 16.0648 5.39146 15.9439C4.90677 15.7808 4.68152 15.4358 4.63686 14.9586C4.60835 14.6521 4.62925 14.3465 4.72144 14.0475C4.80983 13.7634 4.9809 13.5544 5.25366 13.4259C5.50266 13.3088 5.76496 13.2553 6.04057 13.2366C6.56329 13.201 7.07935 13.245 7.59445 13.3266C7.7104 13.3453 7.83015 13.35 7.948 13.3538C8.01927 13.3556 8.05539 13.3734 8.05729 13.4531C8.06204 13.7794 8.04874 14.1056 8.02593 14.4309C8.02118 14.5068 7.99076 14.5312 7.90333 14.5237C7.38917 14.4805 6.87691 14.4074 6.35895 14.4412C6.3428 14.4421 6.32664 14.4412 6.31143 14.4431C6.25156 14.4534 6.17933 14.4468 6.16412 14.5302C6.14797 14.6174 6.20024 14.6577 6.27437 14.683C6.45684 14.7477 6.64787 14.7786 6.8351 14.8246C7.14492 14.9015 7.45665 14.968 7.73511 15.1349C8.01072 15.2999 8.14663 15.537 8.17609 15.8501C8.2008 16.1192 8.2027 16.3845 8.15233 16.6498C8.05349 17.1756 7.7123 17.4634 7.2048 17.5872C7.01757 17.6331 6.82844 17.6734 6.63266 17.6622C6.57564 17.6584 6.52337 17.6659 6.55663 17.7456H6.46159V17.7465Z" fill="#3771E7"></path><path d="M9.65641 17.7464C9.6507 17.6902 9.61554 17.6715 9.56232 17.6611C8.91986 17.5346 8.67371 17.0237 8.74404 16.479C8.74784 16.4519 8.74974 16.4247 8.75164 16.3975C8.77635 16.0591 8.94267 15.8322 9.28005 15.731C9.54521 15.6522 9.81132 15.5866 10.0917 15.5913C10.2133 15.5932 10.335 15.5772 10.4576 15.5726C10.5213 15.5697 10.5783 15.5651 10.5773 15.4807C10.5773 15.4057 10.583 15.3298 10.4823 15.3063C10.3302 15.2716 10.1772 15.2801 10.0233 15.2904C9.67351 15.3138 9.32377 15.3345 8.97403 15.3588C8.89515 15.3645 8.8923 15.3176 8.8923 15.2641C8.8923 15.1123 8.8923 14.9614 8.8923 14.8095C8.8923 14.7626 8.89325 14.7158 8.8904 14.6698C8.87614 14.4036 8.87424 14.398 9.1432 14.338C9.72959 14.2067 10.3226 14.1261 10.9252 14.1964C11.1571 14.2236 11.3785 14.3005 11.5904 14.3961C11.7377 14.4626 11.8394 14.5864 11.9098 14.7289C11.9896 14.891 12.0343 15.0635 12.0343 15.2454C12.0343 15.6654 12.0343 16.0844 12.0333 16.5044C12.0333 16.5709 12.04 16.6272 12.1074 16.6609C12.1635 16.689 12.1759 16.7406 12.1759 16.7987C12.173 17.0237 12.1711 17.2496 12.1721 17.4746C12.1721 17.5665 12.1331 17.6011 12.04 17.6143C11.8527 17.6405 11.6655 17.6602 11.4764 17.6649C11.2825 17.6696 11.1095 17.6227 10.9527 17.5168C10.8834 17.4699 10.8206 17.4633 10.7446 17.5046C10.5773 17.5955 10.392 17.6368 10.2038 17.6602C10.1449 17.6677 10.0926 17.6733 10.085 17.7455H9.65926L9.65641 17.7464ZM10.621 16.4575C10.621 16.3656 10.621 16.3075 10.621 16.2494C10.621 16.1978 10.5992 16.1706 10.5412 16.1744C10.4234 16.1819 10.3055 16.1838 10.1886 16.1922C10.047 16.2025 9.91776 16.2934 9.88735 16.4153C9.85028 16.5606 9.85979 16.7003 9.98144 16.8118C10.0233 16.8503 10.0727 16.8765 10.1297 16.8746C10.296 16.8681 10.4452 16.8137 10.5726 16.7087C10.6695 16.629 10.6096 16.5194 10.6201 16.4575H10.621Z" fill="#3771E7"></path><path d="M13.6335 17.7468C13.6383 17.6783 13.5917 17.6708 13.5375 17.6558C13.2277 17.5686 12.9511 17.4299 12.8323 17.1093C12.705 16.7662 12.6993 16.4175 12.8456 16.0772C12.9074 15.9328 13.0243 15.8335 13.1735 15.7744C13.4615 15.66 13.7609 15.6 14.0707 15.5935C14.1961 15.5907 14.3225 15.5813 14.448 15.5738C14.4993 15.571 14.5687 15.5907 14.5696 15.5044C14.5706 15.4257 14.5953 15.3366 14.4784 15.3076C14.3064 15.2654 14.1334 15.2813 13.9614 15.2907C13.6468 15.3094 13.3332 15.331 13.0186 15.3544C12.9426 15.3601 12.9122 15.3404 12.915 15.2598C12.9236 15.0038 12.9027 14.7479 12.8742 14.4939C12.8685 14.4414 12.8675 14.3973 12.9397 14.3814C13.4938 14.2595 14.0507 14.1602 14.6229 14.1733C14.9317 14.1808 15.2245 14.2492 15.5058 14.3655C15.9002 14.5276 16.0152 14.8614 16.0237 15.2438C16.0323 15.6479 16.0285 16.0509 16.0247 16.455C16.0247 16.5468 16.0351 16.6228 16.1264 16.6706C16.1786 16.6978 16.1986 16.7475 16.1976 16.8075C16.1948 17.0324 16.1948 17.2574 16.1948 17.4833C16.1948 17.5452 16.1701 17.5902 16.1064 17.6033C15.7766 17.668 15.4449 17.7121 15.1152 17.6061C15.0743 17.593 15.0249 17.5827 14.9973 17.5546C14.8985 17.4515 14.8015 17.4815 14.6884 17.5302C14.5231 17.6015 14.3511 17.6633 14.1657 17.6633C14.1078 17.6633 14.065 17.683 14.0593 17.7468H13.6335ZM14.6419 16.5637C14.6219 16.4728 14.6314 16.3678 14.6276 16.2637C14.6248 16.1953 14.5953 16.1663 14.524 16.1728C14.4223 16.1822 14.3206 16.185 14.2189 16.1906C14.0203 16.2028 13.9006 16.3172 13.8825 16.5122C13.8664 16.6903 13.9538 16.8478 14.0963 16.8674C14.2864 16.8928 14.4489 16.8131 14.5972 16.7053C14.6362 16.6772 14.64 16.6247 14.6419 16.5637Z" fill="#3771E7"></path><path d="M18.9895 0.574733C18.9733 0.751907 18.9591 0.945016 18.9382 1.13813C18.9296 1.21874 18.9553 1.26749 19.0323 1.30311C19.2176 1.39029 19.3915 1.49904 19.5502 1.62746C19.6092 1.67433 19.6557 1.6809 19.7165 1.63309C19.8211 1.55059 19.9304 1.47372 20.0387 1.39592C20.0958 1.35561 20.1547 1.31436 20.2165 1.28249C20.3799 1.19812 20.5206 1.21218 20.6451 1.34905C20.8561 1.58059 21.0499 1.8262 21.2134 2.09243C21.3351 2.29022 21.298 2.45896 21.1146 2.60895C20.9663 2.73081 20.8085 2.84143 20.6527 2.95392C20.6023 2.99048 20.5795 3.02235 20.6052 3.08891C20.684 3.28858 20.7344 3.49669 20.7572 3.70949C20.7667 3.79573 20.8019 3.83323 20.8855 3.84448C21.0452 3.86604 21.2049 3.89322 21.3645 3.91666C21.6088 3.95228 21.738 4.12383 21.7209 4.36756C21.701 4.64691 21.6468 4.92158 21.6126 5.19812C21.5879 5.39685 21.355 5.55809 21.1516 5.52715C20.9768 5.50091 20.8009 5.47653 20.6261 5.44935C20.5301 5.43435 20.4645 5.45779 20.4179 5.5534C20.3286 5.73995 20.2145 5.91337 20.0796 6.07086C20.033 6.1243 20.0387 6.16085 20.0786 6.21148C20.1841 6.34647 20.2887 6.48333 20.3885 6.62301C20.5386 6.83205 20.5082 7.05328 20.3067 7.2089C20.0986 7.3692 19.8905 7.5295 19.6757 7.68042C19.4514 7.83885 19.2642 7.81073 19.0883 7.5998C18.9714 7.45825 18.8603 7.31201 18.751 7.16484C18.7091 7.10953 18.6673 7.09359 18.5998 7.11609C18.3984 7.18546 18.194 7.24264 17.9783 7.24921C17.869 7.25202 17.83 7.30639 17.8272 7.41138C17.8224 7.58199 17.8034 7.7526 17.7569 7.91759C17.6989 8.12289 17.5288 8.24382 17.314 8.22038C17.0517 8.19226 16.7894 8.16038 16.529 8.11914C16.2324 8.07227 16.1051 7.89041 16.1441 7.59699C16.1669 7.42825 16.1792 7.25764 16.222 7.09078C16.24 7.02235 16.2106 6.98392 16.1479 6.95392C15.9483 6.85924 15.7582 6.74956 15.59 6.60613C15.533 6.55739 15.4845 6.55364 15.4246 6.60332C15.3125 6.69519 15.1946 6.77956 15.0806 6.86955C14.8373 7.06172 14.593 7.03454 14.4049 6.79081C14.2642 6.60801 14.1226 6.42615 13.9838 6.24241C13.7871 5.98181 13.8147 5.78026 14.0732 5.57871C14.2062 5.4756 14.3431 5.37717 14.4799 5.2778C14.5322 5.23937 14.5569 5.19906 14.5312 5.12969C14.4533 4.91783 14.3839 4.70316 14.3811 4.47443C14.3801 4.39756 14.3203 4.38818 14.268 4.37975C14.1283 4.35912 13.9867 4.34787 13.846 4.32819C13.5181 4.28225 13.3879 4.13133 13.4184 3.80698C13.4431 3.54825 13.4839 3.29139 13.5286 3.03548C13.5647 2.82737 13.7225 2.70644 13.9392 2.70457C14.134 2.70269 14.3231 2.74112 14.5113 2.78518C14.6054 2.80674 14.6567 2.78425 14.7004 2.69988C14.7983 2.50958 14.9076 2.32397 15.0492 2.15992C15.0967 2.10555 15.0977 2.06149 15.053 2.00618C14.9523 1.8815 14.8496 1.75776 14.7584 1.62653C14.5845 1.37717 14.6025 1.20937 14.8344 1.01907C15.0312 0.857836 15.2355 0.705035 15.4465 0.560672C15.6869 0.395685 15.8599 0.420058 16.0462 0.637541C16.1631 0.773468 16.2676 0.920643 16.375 1.06407C16.4178 1.12219 16.4643 1.14938 16.5356 1.11844C16.7295 1.03595 16.9367 1.00689 17.1429 0.973139C17.2455 0.956266 17.2978 0.914081 17.3045 0.799715C17.313 0.64504 17.3406 0.491302 17.3729 0.339439C17.4233 0.10227 17.619 -0.0270943 17.8614 0.00477818C18.1113 0.0385255 18.3603 0.0732103 18.6094 0.110707C18.8745 0.150079 18.9933 0.291631 18.9895 0.572858V0.574733ZM19.2214 4.12758C19.2746 3.24921 18.4649 2.48146 17.5962 2.47115C16.6459 2.4599 15.9426 3.25296 15.9084 4.01227C15.8608 5.07625 16.7029 5.75495 17.5449 5.76432C18.4734 5.77464 19.2604 5.02094 19.2214 4.12758Z" fill="#3771E7"></path><path d="M10.6561 11.7144C10.4251 11.7191 10.3291 11.6385 10.294 11.4454C10.2759 11.346 10.2579 11.2466 10.2398 11.1473C10.2293 11.0863 10.1904 11.0563 10.1305 11.0413C10.0041 11.0104 9.8777 10.9804 9.7551 10.9401C9.67527 10.9138 9.6306 10.9335 9.59164 11.0029C9.53746 11.0976 9.47664 11.1885 9.39776 11.2663C9.29131 11.3694 9.17917 11.3938 9.05467 11.3179C8.8874 11.2157 8.71918 11.1126 8.57377 10.9804C8.44167 10.8613 8.42932 10.7592 8.52721 10.6082C8.58708 10.5164 8.65171 10.4283 8.71633 10.3401C8.75815 10.2839 8.7648 10.2314 8.72489 10.1686C8.6498 10.0542 8.57948 9.93798 8.5101 9.81987C8.47969 9.76831 8.44452 9.74862 8.38465 9.76362C8.30101 9.78518 8.21548 9.80206 8.13089 9.81799C7.93512 9.85549 7.80586 9.77768 7.76215 9.58645C7.72413 9.41584 7.69277 9.24429 7.66711 9.0718C7.6424 8.90588 7.70892 8.80464 7.87524 8.75589C7.97313 8.72683 8.07387 8.70714 8.17556 8.69402C8.2725 8.68183 8.33333 8.64621 8.35709 8.54591C8.38655 8.42123 8.42646 8.29936 8.46828 8.1775C8.48729 8.12031 8.46448 8.09125 8.42171 8.06126C8.33143 7.99939 8.24019 7.93658 8.1537 7.87002C8.0064 7.75659 7.98359 7.63848 8.08243 7.4838C8.18317 7.32631 8.28961 7.17164 8.41126 7.02821C8.52435 6.8951 8.6251 6.87916 8.77336 6.97103C8.87315 7.0329 8.96913 7.10133 9.06702 7.16789C9.12975 7.21101 9.18772 7.21195 9.25045 7.1632C9.34929 7.0854 9.46048 7.0254 9.57358 6.97009C9.63155 6.94103 9.65531 6.90822 9.6363 6.84167C9.61159 6.75167 9.59734 6.65981 9.57833 6.56794C9.54602 6.4142 9.57833 6.32889 9.72279 6.26421C9.94898 6.16391 10.1932 6.13953 10.4384 6.13578C10.5411 6.13391 10.6123 6.19484 10.6494 6.29421C10.6979 6.42357 10.7121 6.55856 10.7302 6.69262C10.7388 6.75261 10.7549 6.79948 10.8252 6.80417C10.9526 6.81261 11.0733 6.8501 11.1892 6.89979C11.2776 6.93728 11.3394 6.91385 11.3898 6.83698C11.4373 6.76573 11.4896 6.6973 11.538 6.62606C11.6293 6.49388 11.7661 6.44795 11.9058 6.52107C12.1007 6.62325 12.2822 6.7498 12.4428 6.89979C12.5435 6.99353 12.5492 7.09008 12.4751 7.20445C12.4076 7.30944 12.3354 7.41162 12.2622 7.51286C12.2242 7.5663 12.2147 7.61223 12.2546 7.67223C12.3278 7.78284 12.3962 7.89627 12.4618 8.01157C12.4989 8.07719 12.5416 8.09594 12.6158 8.07532C12.7213 8.04532 12.8296 8.02188 12.9408 8.01907C13.0501 8.01626 13.1337 8.06126 13.1774 8.16062C13.281 8.39217 13.3067 8.63965 13.3086 8.88807C13.3095 9.01743 13.2069 9.07274 13.091 9.09899C12.9722 9.12524 12.8524 9.15055 12.7317 9.16929C12.6614 9.18054 12.6281 9.21148 12.6243 9.28179C12.6177 9.4074 12.5891 9.52833 12.5321 9.64082C12.497 9.71019 12.5112 9.75612 12.5777 9.79643C12.6785 9.85737 12.7792 9.92017 12.8629 10.0036C12.9931 10.133 13.0026 10.1986 12.9037 10.3505C12.8077 10.4976 12.707 10.6411 12.6025 10.7826C12.4827 10.9438 12.3687 10.9663 12.1985 10.8623C12.1016 10.8032 12.0104 10.7348 11.9191 10.6664C11.865 10.6251 11.8193 10.6167 11.7604 10.6589C11.6492 10.7395 11.5323 10.8126 11.4069 10.8698C11.3394 10.9007 11.3432 10.9485 11.3527 11.0057C11.3689 11.1051 11.386 11.2044 11.3993 11.3048C11.4192 11.4622 11.3603 11.5654 11.2063 11.6075C11.0134 11.66 10.8167 11.705 10.658 11.7153L10.6561 11.7144ZM10.4888 9.74581C10.9583 9.74581 11.3318 9.37834 11.3327 8.91619C11.3337 8.47841 10.9317 8.06969 10.4974 8.08094C10.0849 8.09125 9.64296 8.42404 9.65341 8.92369C9.66196 9.35397 10.0003 9.7655 10.4888 9.74581Z" fill="#3771E7"></path><path d="M24.9993 10.5668C24.9679 11.299 24.8681 12.123 24.5526 12.9123C24.1278 13.9763 23.395 14.7768 22.4228 15.3796C22.2194 15.5061 22.0056 15.6139 21.7936 15.7264C21.7166 15.7677 21.6729 15.7733 21.6691 15.6646C21.6606 15.449 21.5931 15.2446 21.5199 15.044C21.4885 14.9578 21.4752 14.8734 21.4971 14.7825C21.5266 14.6578 21.5456 14.5284 21.5313 14.4009C21.5161 14.2603 21.5788 14.1787 21.6938 14.1084C22.0198 13.9088 22.3106 13.6669 22.5691 13.3847C22.9759 12.9395 23.224 12.4164 23.3589 11.8408C23.6231 10.7084 23.5813 9.59193 23.1403 8.5017C22.9464 8.02267 22.6746 7.59521 22.3106 7.22493C22.1785 7.09087 22.1861 7.04681 22.3429 6.94651C22.6794 6.72996 22.9607 6.46374 23.1346 6.10095C23.185 5.9969 23.2278 6.04283 23.28 6.09626C23.6991 6.51998 24.0403 6.99713 24.3036 7.52865C24.602 8.12954 24.8196 8.75668 24.909 9.41944C24.9556 9.76441 25.0059 10.1113 24.9983 10.5668H24.9993Z" fill="#7DB2F7"></path></svg>