<svg width="31" height="12" viewBox="0 0 31 12" fill="none" xmlns="http://www.w3.org/2000/svg">
<path d="M14.1257 3.3501C13.6947 3.3501 13.3453 3.69949 13.3453 4.13049V4.25089C12.7671 3.85292 12.0674 3.61929 11.3139 3.61929C9.33317 3.61929 7.72168 5.23078 7.72168 7.21155C7.72168 9.19233 9.33317 10.8037 11.3139 10.8037C12.0675 10.8037 12.7672 10.5701 13.3453 10.1721V10.2926C13.3453 10.7237 13.6947 11.073 14.1257 11.073C14.5567 11.073 14.9061 10.7236 14.9061 10.2926V4.13049C14.9062 3.69939 14.5568 3.3501 14.1257 3.3501ZM11.3139 9.24293C10.1938 9.24293 9.28256 8.33174 9.28256 7.21155C9.28256 6.09137 10.1939 5.18007 11.3139 5.18007C12.434 5.18007 13.3453 6.09137 13.3453 7.21155C13.3453 8.33174 12.434 9.24293 11.3139 9.24293Z" fill="#074267"/>
<path d="M22.3235 3.3501C21.8925 3.3501 21.5431 3.69949 21.5431 4.13049V4.25089C20.9648 3.85292 20.2651 3.61929 19.5117 3.61929C17.5309 3.61929 15.9194 5.23078 15.9194 7.21155C15.9194 9.19233 17.5309 10.8037 19.5117 10.8037C20.2652 10.8037 20.9649 10.5701 21.5431 10.1721V10.2926C21.5431 10.7237 21.8925 11.073 22.3235 11.073C22.7545 11.073 23.1039 10.7236 23.1039 10.2926V4.13049C23.1039 3.69939 22.7545 3.3501 22.3235 3.3501ZM19.5116 9.24293C18.3914 9.24293 17.4802 8.33174 17.4802 7.21155C17.4802 6.09137 18.3915 5.18007 19.5116 5.18007C20.6317 5.18007 21.543 6.09137 21.543 7.21155C21.543 8.33174 20.6318 9.24293 19.5116 9.24293Z" fill="#074267"/>
<path d="M27.6599 4.75589C26.6788 4.75589 25.8806 4.03923 25.8806 3.15844C25.8806 2.27754 26.6788 1.56088 27.6599 1.56088C28.641 1.56088 29.4391 2.27754 29.4391 3.15844C29.4391 3.58954 29.7885 3.93883 30.2195 3.93883C30.6505 3.93883 30.9999 3.58944 30.9999 3.15844C30.9999 1.41695 29.5016 0 27.6599 0C25.8182 0 24.3198 1.41685 24.3198 3.15844C24.3198 4.89992 25.8182 6.31677 27.6599 6.31677C28.641 6.31677 29.4391 7.03342 29.4391 7.91432C29.4391 8.79521 28.641 9.51187 27.6599 9.51187C26.6788 9.51187 25.8806 8.79521 25.8806 7.91432C25.8806 7.48322 25.5312 7.13393 25.1002 7.13393C24.6692 7.13393 24.3198 7.48332 24.3198 7.91432C24.3198 9.65581 25.8182 11.0728 27.6599 11.0728C29.5016 11.0728 30.9999 9.65591 30.9999 7.91432C31 6.17273 29.5017 4.75589 27.6599 4.75589Z" fill="#074267"/>
<path d="M3.34015 1.56088C4.32124 1.56088 5.11941 2.27754 5.11941 3.15844C5.11941 3.58954 5.4688 3.93883 5.89981 3.93883C6.33081 3.93883 6.6802 3.58944 6.6802 3.15844C6.6802 1.41695 5.18184 0 3.34015 0C1.49836 0 0 1.41685 0 3.15844C0 4.89992 1.49836 6.31677 3.34015 6.31677C4.32124 6.31677 5.11941 7.03342 5.11941 7.91432C5.11941 8.79521 4.32124 9.51187 3.34015 9.51187C2.35905 9.51187 1.56088 8.79521 1.56088 7.91432C1.56088 7.48322 1.2115 7.13393 0.780492 7.13393C0.349489 7.13393 0.000100953 7.48332 0.000100953 7.91432C0.000100953 9.65581 1.49846 11.0728 3.34025 11.0728C5.18194 11.0728 6.6803 9.65591 6.6803 7.91432C6.6803 6.17283 5.18194 4.75589 3.34025 4.75589C2.35915 4.75589 1.56099 4.03923 1.56099 3.15844C1.56088 2.27754 2.35895 1.56088 3.34015 1.56088Z" fill="#074267"/>
</svg>
