<svg xmlns="http://www.w3.org/2000/svg" width="18" height="18" viewBox="0 0 18 18"><defs><style>.a{fill:#005d6d;}.b{fill:#fff;}</style></defs><g transform="translate(773 -318)"><circle class="a" cx="9" cy="9" r="9" transform="translate(-773 318)"/><path class="b" d="M10.429,16.763a.7.7,0,1,1,.7-.7.7.7,0,0,1-.7.7Zm.7-4.2.914,1.166H9.962V12.565Zm-6.3,4.2a.7.7,0,1,1,.7-.7A.7.7,0,0,1,4.832,16.763Zm6.529-4.9h-1.4V10H3.433a.93.93,0,0,0-.933.933v5.13h.933a1.4,1.4,0,1,0,2.8,0h2.8a1.4,1.4,0,1,0,2.8,0h.933V13.731Z" transform="translate(-771.5 313)"/></g></svg>