<svg xmlns="http://www.w3.org/2000/svg" width="29.996" height="30" viewBox="0 0 29.996 30"><defs><style>.a{fill:#fff;}</style></defs><g transform="translate(-10.248 -9.782)"><g transform="translate(10.248 9.782)"><path class="a" d="M40.244,32.54a3.62,3.62,0,1,1-3.621-3.62,3.519,3.519,0,0,1,.738.076,12.359,12.359,0,0,0-5.618-13.24.517.517,0,1,1,.541-.882,13.4,13.4,0,0,1,6.055,14.478,3.623,3.623,0,0,1,1.9,3.187Zm-3.621-2.586a2.586,2.586,0,1,0,2.586,2.586,2.588,2.588,0,0,0-2.586-2.586Zm-6.238,8.808a13.434,13.434,0,0,1-14.769-3.054,3.584,3.584,0,0,1-1.749.453,3.624,3.624,0,1,1,2.578-1.081,12.4,12.4,0,0,0,13.542,2.727.517.517,0,0,1,.4.955ZM16.454,32.54a2.586,2.586,0,1,0-2.586,2.586,2.589,2.589,0,0,0,2.586-2.586Zm8.792-15.518a3.623,3.623,0,0,1-3.471-2.6,12.355,12.355,0,0,0-8.907,11.026.516.516,0,0,1-.515.481h-.037a.514.514,0,0,1-.478-.551,13.379,13.379,0,0,1,9.788-11.985,3.62,3.62,0,1,1,3.621,3.632Zm0-6.206A2.586,2.586,0,1,0,27.833,13.4a2.589,2.589,0,0,0-2.586-2.586Z" transform="translate(-10.248 -9.782)"/></g></g></svg>