<svg width="25" height="25" viewBox="0 0 20 20" xmlns="http://www.w3.org/2000/svg"> <g id="Software_Development" data-name="Software Development" transform="translate(-1206 -634)"> <g id="Group_24" data-name="Group 24" transform="translate(1207 607.9)"> <g id="Group_23" data-name="Group 23"> <g id="Group_20" data-name="Group 20"> <path id="Path_7" data-name="Path 7" d="M12.1,33.9V29.3H4.9v4.6a.265.265,0,0,0,.3.3h6.7C12,34.2,12.1,34.1,12.1,33.9ZM7.5,32.5a.283.283,0,0,1-.4.4h0L6.2,32a.3.3,0,0,1,0-.4l.9-.9a.283.283,0,0,1,.4.4l-.7.7Zm1.6-1.9L8.5,33c0,.1-.2.2-.3.2H8.1c-.2,0-.3-.2-.2-.4l.6-2.4c0-.2.2-.3.4-.2a.758.758,0,0,1,.2.4ZM10.8,32l-.9.9a.283.283,0,0,1-.4-.4l.7-.7-.7-.7a.283.283,0,0,1,.4-.4l.9.9A.208.208,0,0,1,10.8,32Z" fill="#3d7ef1"></path> </g> <path id="Path_8" data-name="Path 8" d="M12.1,28.4a.265.265,0,0,0-.3-.3H5.2a.265.265,0,0,0-.3.3v.3h7.3v-.3Z" fill="#87bbfd"></path> <path id="Path_9" data-name="Path 9" d="M0,39.4v.3H7.3v-.3a.265.265,0,0,0-.3-.3H.3A.265.265,0,0,0,0,39.4Z" fill="#87bbfd"></path> <g id="Group_21" data-name="Group 21"> <path id="Path_10" data-name="Path 10" d="M0,44.8a.265.265,0,0,0,.3.3H7a.265.265,0,0,0,.3-.3V40.2H0ZM4.6,42a.283.283,0,0,1,.4-.4l1,.9a.3.3,0,0,1,0,.4l-.9.9a.283.283,0,0,1-.4-.4l.7-.7ZM3,43.8l.6-2.4c0-.2.2-.3.4-.2.2,0,.3.2.2.4L3.6,44c0,.1-.2.2-.3.2H3.2C3.1,44.2,3,44,3,43.8ZM1.3,42.5l.9-.9a.3.3,0,0,1,.4,0,.3.3,0,0,1,0,.4l-.7.7.7.7a.3.3,0,0,1,0,.4.3.3,0,0,1-.4,0h0l-.9-.9A.3.3,0,0,1,1.3,42.5Z" fill="#3d7ef1"></path> </g> <g id="Group_22" data-name="Group 22"> <path id="Path_11" data-name="Path 11" d="M10,44.8a.265.265,0,0,0,.3.3H17a.265.265,0,0,0,.3-.3V40.2H10ZM14.7,42a.283.283,0,0,1,.4-.4l.9.9a.3.3,0,0,1,0,.4l-.9.9a.283.283,0,0,1-.4-.4l.7-.7Zm-1.6,1.8.6-2.4c0-.2.2-.3.4-.2.2,0,.3.2.2.4h0L13.7,44c0,.1-.2.2-.3.2h-.1c-.2,0-.3-.2-.2-.4Zm-1.8-1.3.9-.9a.283.283,0,0,1,.4.4l-.6.7.7.7a.283.283,0,0,1-.4.4h0l-.9-.9A.247.247,0,0,1,11.3,42.5Z" fill="#3d7ef1"></path> </g> <path id="Path_12" data-name="Path 12" d="M17,39.1H10.3a.265.265,0,0,0-.3.3v.3h7.3v-.3A.265.265,0,0,0,17,39.1Z" fill="#87bbfd"></path> <path id="Path_13" data-name="Path 13" d="M14.3,37.2a.9.9,0,0,0-.9-.9H8.8V34.8H8.2v1.5H4.3a.9.9,0,0,0-.9.9v1.2H4V37.2a.265.265,0,0,1,.3-.3h9.1a.265.265,0,0,1,.3.3v1.2h.6V37.2Z" fill="#87bbfd"></path> </g> </g> <rect id="Rectangle_2" data-name="Rectangle 2" width="20" height="20" transform="translate(1206 634)" fill="none"></rect> </g> </svg>