<svg xmlns="http://www.w3.org/2000/svg" width="18" height="18" viewBox="0 0 18 18"><defs><style>.a{fill:#005d6d;}.b{fill:#fff;}</style></defs><g transform="translate(773 -318)"><circle class="a" cx="9" cy="9" r="9" transform="translate(-773 318)"/><path class="b" d="M9.5,10H6.35A1.35,1.35,0,0,0,5,11.35v3.6A1.35,1.35,0,0,0,6.35,16.3l-.45.45v.45h.45l.9-.914.9.014V14.05H5.9V10.9H9.95v.9h.9v-.45A1.35,1.35,0,0,0,9.5,10ZM6.35,14.5a.45.45,0,1,1-.45.45A.45.45,0,0,1,6.35,14.5Zm7.007-1.953a.451.451,0,0,0-.437-.3H9.684a.457.457,0,0,0-.441.3L8.6,14.4v2.479a.327.327,0,0,0,.315.324h.279a.336.336,0,0,0,.306-.342V16.3h3.6v.558a.34.34,0,0,0,.31.342h.274A.327.327,0,0,0,14,16.876V14.4ZM9.684,12.7H12.92l.464,1.35H9.221ZM9.5,15.4a.45.45,0,1,1,.45-.45A.45.45,0,0,1,9.5,15.4Zm3.6,0a.45.45,0,1,1,.45-.45A.45.45,0,0,1,13.1,15.4Z" transform="translate(-773 313)"/></g></svg>