<svg xmlns="http://www.w3.org/2000/svg" width="489.928" height="447.6" viewBox="0 0 489.928 447.6">
  <g id="trust" transform="translate(0 -21.164)">
    <path id="Path_8" data-name="Path 8" d="M432.127,172.464c-3.3,12.4-7.8,36.5-9.5,49.3a1.381,1.381,0,0,0,.3.4,35.96,35.96,0,0,1,6.9,3.2,29.985,29.985,0,0,1,4.9,3.7c0-1.4.1-2.7.1-4.1.3-13.4,3.7-38.5,6-52.5a88.265,88.265,0,0,1,2.9-12.9c-6.3,2.1-9.9,6.7-11.6,12.9Zm-83.7,69.4c13.8-18.2,21.3-37.7,22.2-57.9.7-13.5.6-27.2.6-40.5v-60c0-11.6-7.1-19.5-19-21.1l-5.1-.6a189.681,189.681,0,0,1-19.5-3c-22.5-5-44.2-15.2-68.3-32-3.8-2.6-8-5.6-14.2-5.6s-10.4,3-14.1,5.6c-32.3,22.3-61.3,33.5-91.2,35.3-7.9.4-21,3.7-21,22.3l-.1,30c-.1,20.2-.1,40.5.1,60.7a118.465,118.465,0,0,0,3.1,26c4.5,20.2,15.2,38.7,32.7,56.5,21.4,21.7,48.4,38.5,83.1,51.5a22.967,22.967,0,0,0,16.4-.9l8.8-3.8c7.2-3.1,14.5-6.3,21.9-10,27.1-14.2,48-31.5,63.6-52.5Zm-77.6,25.5c-6.6,3.3-13.4,6.2-20.1,9.1-1.9.8-3.8,1.6-5.8,2.5v-110.6h-95.8c-.1-18-.1-36-.1-53.9l.1-22.7c31.9-3.3,62.7-15.4,95.8-37.7v114.4h95.7c-.1,4.7-.1,9.5-.4,14.1-.6,14.2-5.9,27.5-16.2,41.1-12.8,17.4-30.3,31.8-53.2,43.7Zm139.3-48.8.8-6.1c1.2-9,6.4-25.9,8.4-35.2-6.2,2.1-9.8,6.6-11.4,12.8-2,7.7-7.5,24.1-8.8,32.4a37.082,37.082,0,0,1,10.9-2.2A9.7,9.7,0,0,1,410.127,218.564Zm-396.7,75c2.3,15.5,9.6,28.3,20.4,39.7l73,87.9,1.4,40.5a6.638,6.638,0,0,0,6.5,6.6l76.8.4a6.638,6.638,0,0,0,6.6-6.5l2.7-49.1a107.56,107.56,0,0,0,.8-14.4,79.523,79.523,0,0,0-.4-8.4c-3.6-15.3-9.1-45.1-49.9-74.6a75.289,75.289,0,0,1-12.5-12.1l-45.4-58.4c-4.7-7.9-15.9-10.6-24.5-5.4s-11.3,16.5-6.6,24.4l43.7,71.3a4.815,4.815,0,0,1-8.1,5.2l-1.8-2.7s-33-45.1-49.5-80.9a54.734,54.734,0,0,1-5.1-20.2c-.1-1.1-.1-2.6-.2-3.7-.5-16.3-3.1-39.4-5.8-55.5-.8-4.5-3.1-21.4-7.8-26.8-6.7-7.6-15.7-5.9-21.4-1.3a18.111,18.111,0,0,0-6.2,16.1l12.7,123.3.6,4.6Z" fill="#00f6ff"/>
    <path id="Path_9" data-name="Path 9" d="M483.527,149.664c-5.7-4.6-14.7-6.3-21.4,1.3-4.8,5.4-7.1,22.3-7.8,26.8-2.7,16.1-5.4,39.3-5.8,55.5,0,1.1-.1,2.6-.2,3.7a54.734,54.734,0,0,1-5.1,20.2c-16.4,35.7-49.5,80.9-49.5,80.9l-1.8,2.7a4.815,4.815,0,0,1-8.1-5.2l43.7-71.3c4.7-7.9,2-19.1-6.6-24.4s-19.8-2.6-24.5,5.4l-45.4,58.4a75.291,75.291,0,0,1-12.5,12.1c-40.9,29.4-46.3,59.3-49.9,74.6,0,0-.3,3.4-.4,8.4a108.432,108.432,0,0,0,.8,14.4l2.7,49.1a6.573,6.573,0,0,0,6.6,6.5l76.8-.4a6.573,6.573,0,0,0,6.5-6.6l1.4-40.5,73-87.9c10.8-11.4,18.1-24.3,20.4-39.7l.7-4.5,12.7-123.3a18.367,18.367,0,0,0-6.3-16.2Zm-437.4,10a107.675,107.675,0,0,1,2.9,12.9c2.4,13.9,5.8,39.1,6,52.5,0,1.4.1,2.7.1,4.1a36.973,36.973,0,0,1,4.9-3.7,32.987,32.987,0,0,1,6.9-3.2,1.38,1.38,0,0,1,.3-.4c-1.7-12.7-6.2-36.8-9.5-49.3-1.7-6.3-5.3-10.9-11.6-12.9Zm24.4,17.6c2,9.3,7.2,26.2,8.4,35.2l.8,6.1a10.869,10.869,0,0,1,.1,1.8,34.127,34.127,0,0,1,10.9,2.2c-1.2-8.3-6.7-24.7-8.8-32.4C80.327,183.864,76.727,179.364,70.527,177.264Z" fill="#00f6ff"/>
  </g>
</svg>
