<svg width="24" height="24" viewBox="0 0 24 24" fill="none" xmlns="http://www.w3.org/2000/svg">
<g clip-path="url(#clip0_1076_194)">
<path d="M12.75 10.125H12C11.793 10.125 11.625 9.957 11.625 9.75V8.625C11.625 8.418 11.793 8.25 12 8.25H12.75C12.957 8.25 13.125 8.418 13.125 8.625V9.75C13.125 9.957 12.957 10.125 12.75 10.125Z" fill="#CFD8DC"/>
<path d="M12 10.5H12.75C13.1632 10.5 13.5 10.1632 13.5 9.75V8.625C13.5 8.21175 13.1632 7.875 12.75 7.875H12C11.5868 7.875 11.25 8.21175 11.25 8.625V9.75C11.25 10.1632 11.5868 10.5 12 10.5ZM12.75 8.625V9.75H12V8.625H12.75Z" fill="#455A64"/>
<path d="M8.625 1.125C9.62025 1.125 10.5682 1.41225 11.4375 1.923C8.69025 3.537 6.375 7.1565 6.375 12C6.375 16.8435 8.69025 20.463 11.4375 22.077C10.5682 22.5878 9.62025 22.875 8.625 22.875C4.4835 22.875 1.125 18.006 1.125 12C1.125 5.994 4.4835 1.125 8.625 1.125Z" fill="#CFD8DC"/>
<path d="M9.85498 20.868C9.33073 20.9482 8.79748 21 8.24998 21C6.48598 21 4.83673 20.5612 3.40948 19.8053C2.00248 17.8282 1.12498 15.0645 1.12498 12C1.12498 8.9355 2.00248 6.17175 3.40948 4.19475C4.83673 3.438 6.48598 3 8.24998 3C8.79748 3 9.33073 3.05175 9.85498 3.132C7.85698 5.04 6.37498 8.127 6.37498 12C6.37498 15.873 7.85698 18.96 9.85498 20.868Z" fill="#ECEFF1"/>
<path d="M1.125 12.375C1.332 12.375 1.5 12.207 1.5 12C1.5 6.21 4.6965 1.5 8.625 1.5C8.832 1.5 9 1.332 9 1.125C9 0.918 8.832 0.75 8.625 0.75C4.2825 0.75 0.75 5.79675 0.75 12C0.75 12.207 0.918 12.375 1.125 12.375Z" fill="#455A64"/>
<path d="M8.625 23.2502C8.832 23.2502 9 23.0822 9 22.8752C9 22.6682 8.832 22.5002 8.625 22.5002C5.55975 22.5002 2.844 19.6187 1.86675 15.3294C1.821 15.1277 1.62 15.0002 1.41825 15.0474C1.21575 15.0932 1.08975 15.2942 1.13625 15.4959C2.19225 20.1339 5.202 23.2502 8.625 23.2502Z" fill="#455A64"/>
<path d="M10.0943 21.4687C10.1978 21.4687 10.3005 21.4259 10.3748 21.3434C10.5128 21.1882 10.4985 20.9519 10.344 20.8139C8.73752 19.3837 7.56977 17.2926 7.05677 14.9256C7.01252 14.7231 6.81227 14.5964 6.61052 14.6384C6.40802 14.6827 6.27977 14.8822 6.32327 15.0847C6.87002 17.6054 8.12027 19.8397 9.84452 21.3742C9.91652 21.4372 10.005 21.4687 10.0943 21.4687Z" fill="#455A64"/>
<path d="M6.37514 12.3751C6.58214 12.3751 6.75014 12.2071 6.75014 12.0001C6.75014 8.42486 8.06339 5.20961 10.3539 3.17786C10.5091 3.04061 10.5226 2.80286 10.3854 2.64836C10.2481 2.49311 10.0104 2.47886 9.85589 2.61686C7.40564 4.79036 6.00014 8.21111 6.00014 12.0001C6.00014 12.2071 6.16814 12.3751 6.37514 12.3751Z" fill="#455A64"/>
<path d="M16.125 12C16.125 5.994 12.7665 1.125 8.625 1.125H14.25C18.3915 1.125 21.75 5.994 21.75 12C21.75 18.006 18.3915 22.875 14.25 22.875H8.625C12.7665 22.875 16.125 18.006 16.125 12Z" fill="white"/>
<path d="M16.125 12H21.75C21.75 18.006 18.3915 22.875 14.25 22.875H8.625C12.7665 22.875 16.125 18.006 16.125 12Z" fill="#ECEFF1"/>
<path d="M8.625 23.25H14.25C18.5925 23.25 22.125 18.2033 22.125 12C22.125 11.793 21.957 11.625 21.75 11.625C21.543 11.625 21.375 11.793 21.375 12C21.375 17.79 18.1785 22.5 14.25 22.5H11.4532C14.4022 20.8733 16.5 16.7805 16.5 12C16.5 7.2195 14.4022 3.12675 11.4532 1.5H14.25C16.0642 1.5 17.796 2.51325 19.125 4.35375C19.2465 4.52175 19.4813 4.55925 19.6485 4.43775C19.8157 4.31625 19.854 4.08225 19.7332 3.91425C18.2587 1.87425 16.3117 0.75 14.25 0.75H8.625C8.418 0.75 8.25 0.918 8.25 1.125C8.25 1.332 8.418 1.5 8.625 1.5C12.5535 1.5 15.75 6.21 15.75 12C15.75 17.79 12.5535 22.5 8.625 22.5C8.418 22.5 8.25 22.668 8.25 22.875C8.25 23.082 8.418 23.25 8.625 23.25Z" fill="#455A64"/>
<path d="M14.625 18.375H20.625C21.8677 18.375 22.875 17.3678 22.875 16.125V7.875C22.875 6.63225 21.8677 5.625 20.625 5.625H14.625C13.3822 5.625 12.375 6.63225 12.375 7.875V16.125C12.375 17.3678 13.3822 18.375 14.625 18.375Z" fill="#78909C"/>
<path d="M14.625 18.375C13.3822 18.375 12.375 17.3678 12.375 16.125V7.875C12.375 7.46325 12.4935 7.08225 12.687 6.75H12.75C18.135 6.75 22.5 11.115 22.5 16.5V17.25C22.5 17.2972 22.4887 17.3422 22.4857 17.3888C22.0807 17.9843 21.399 18.375 20.625 18.375H14.625Z" fill="#607D8B"/>
<path d="M14.625 18.75H20.625C22.0725 18.75 23.25 17.5725 23.25 16.125V7.875C23.25 6.4275 22.0725 5.25 20.625 5.25H14.625C13.1775 5.25 12 6.4275 12 7.875V16.125C12 17.5725 13.1775 18.75 14.625 18.75ZM20.625 6C21.6585 6 22.5 6.8415 22.5 7.875V16.125C22.5 17.1585 21.6585 18 20.625 18H14.625C13.5915 18 12.75 17.1585 12.75 16.125V7.875C12.75 6.8415 13.5915 6 14.625 6H20.625Z" fill="#455A64"/>
<path d="M3.75 15C5.4045 15 6.75 13.6545 6.75 12C6.75 11.793 6.582 11.625 6.375 11.625C6.168 11.625 6 11.793 6 12C6 13.2405 4.9905 14.25 3.75 14.25C2.5095 14.25 1.5 13.2405 1.5 12C1.5 11.793 1.332 11.625 1.125 11.625C0.918 11.625 0.75 11.793 0.75 12C0.75 13.6545 2.0955 15 3.75 15Z" fill="#455A64"/>
<path d="M3.75 12.75C3.12868 12.75 2.625 12.2463 2.625 11.625C2.625 11.0037 3.12868 10.5 3.75 10.5C4.37132 10.5 4.875 11.0037 4.875 11.625C4.875 12.2463 4.37132 12.75 3.75 12.75Z" fill="white"/>
<path d="M3.75 13.125C4.57725 13.125 5.25 12.4523 5.25 11.625C5.25 10.7977 4.57725 10.125 3.75 10.125C2.92275 10.125 2.25 10.7977 2.25 11.625C2.25 12.4523 2.92275 13.125 3.75 13.125ZM3.75 10.875C4.16325 10.875 4.5 11.2118 4.5 11.625C4.5 12.0382 4.16325 12.375 3.75 12.375C3.33675 12.375 3 12.0382 3 11.625C3 11.2118 3.33675 10.875 3.75 10.875Z" fill="#455A64"/>
</g>
<defs>
<clipPath id="clip0_1076_194">
<rect width="24" height="24" fill="white" transform="matrix(-1 0 0 1 24 0)"/>
</clipPath>
</defs>
</svg>
