<svg width="24" height="24" viewBox="0 0 24 24" fill="none" xmlns="http://www.w3.org/2000/svg">
<mask id="mask0_1078_898" style="mask-type:luminance" maskUnits="userSpaceOnUse" x="0" y="0" width="24" height="24">
<path d="M23.9996 0H0V24H23.9996V0Z" fill="white"/>
</mask>
<g mask="url(#mask0_1078_898)">
<path d="M1.70557 11.9996C1.70557 16.0746 4.07366 19.5959 7.50726 21.2647L2.59686 7.81006C2.02584 9.09031 1.70557 10.5071 1.70557 11.9996Z" fill="#00749A"/>
<path d="M18.9497 11.48C18.9497 10.2076 18.4928 9.32668 18.1006 8.64103C17.5792 7.79319 17.0901 7.07485 17.0901 6.22701C17.0901 5.28068 17.8076 4.39973 18.8185 4.39973C18.864 4.39973 18.9075 4.40552 18.9521 4.408C17.1203 2.7301 14.6802 1.70557 12.0001 1.70557C8.4035 1.70557 5.23969 3.55064 3.39917 6.34576C3.64082 6.35321 3.86882 6.35776 4.06164 6.35776C5.13831 6.35776 6.80546 6.22701 6.80546 6.22701C7.36034 6.19432 7.42572 7.00947 6.87166 7.07485C6.87166 7.07485 6.31388 7.14065 5.6932 7.17292L9.4421 18.3236L11.6952 11.5669L10.0909 7.17292C9.53644 7.14023 9.01135 7.07485 9.01135 7.07485C8.45646 7.04216 8.52184 6.19432 9.07631 6.22701C9.07631 6.22701 10.7761 6.35776 11.7879 6.35776C12.8645 6.35776 14.5313 6.22701 14.5313 6.22701C15.0866 6.19432 15.1519 7.00947 14.5975 7.07485C14.5975 7.07485 14.0388 7.14065 13.4194 7.17292L17.1398 18.2392L18.1664 14.8081C18.6116 13.3843 18.9505 12.3614 18.9505 11.48H18.9497Z" fill="#00749A"/>
<path d="M12.1805 12.9003L9.09204 21.8749C10.0144 22.1464 10.9893 22.2945 12.0001 22.2945C13.1989 22.2945 14.3484 22.0868 15.4188 21.7111C15.3907 21.6672 15.3659 21.6204 15.3456 21.5691L12.181 12.8999L12.1805 12.9003Z" fill="#00749A"/>
<path d="M21.0327 7.06096C21.077 7.38868 21.1018 7.74122 21.1018 8.11942C21.1018 9.16423 20.9069 10.3386 20.3189 11.8067L17.1746 20.898C20.2349 19.1133 22.2935 15.7976 22.2935 11.9995C22.2935 10.2099 21.8363 8.527 21.0323 7.06055L21.0327 7.06096Z" fill="#00749A"/>
<path d="M11.9998 0C5.38336 0 0 5.38294 0 11.9998C0 18.6166 5.38294 24.0004 11.9998 24.0004C18.6166 24.0004 24.0004 18.6175 24.0004 11.9998C24.0004 5.38336 18.6162 0 11.9998 0ZM11.9998 23.4497C5.68666 23.4497 0.549922 18.3129 0.549922 11.9994C0.549922 5.68583 5.68666 0.550335 11.9998 0.550335C18.3129 0.550335 23.4493 5.68625 23.4493 11.9994C23.4493 18.3125 18.3129 23.4497 11.9998 23.4497Z" fill="#00749A"/>
</g>
</svg>
